<?xml version="1.0" standalone="no"?>
<!DOCTYPE svg PUBLIC "-//W3C//DTD SVG 20010904//EN"
 "http://www.w3.org/TR/2001/REC-SVG-20010904/DTD/svg10.dtd">
<svg version="1.0" xmlns="http://www.w3.org/2000/svg"
 width="720.000000pt" height="720.000000pt" viewBox="0 0 720.000000 720.000000"
 preserveAspectRatio="xMidYMid meet">

<g transform="translate(0.000000,720.000000) scale(0.100000,-0.100000)"
fill="#000000" stroke="none">
<path d="M2598 7195 c-2 -3 -36 -5 -74 -5 -366 -5 -822 -129 -1159 -317 -235
-131 -400 -257 -600 -457 -408 -410 -651 -904 -741 -1506 -16 -102 -18 -240
-22 -1220 -4 -1152 -1 -1267 39 -1502 90 -540 339 -1020 733 -1414 396 -395
873 -643 1414 -733 235 -40 350 -43 1502 -39 1203 5 1175 4 1450 64 741 163
1376 644 1747 1324 161 294 281 708 297 1030 3 52 8 145 12 207 l7 112 -536
535 c-294 295 -538 536 -541 536 -3 0 -7 -24 -9 -52 -2 -29 -5 105 -7 297 -3
214 -7 -43 -10 -665 -6 -990 -7 -1017 -28 -1114 -67 -307 -188 -534 -401 -747
-177 -176 -352 -283 -584 -358 -215 -69 -152 -66 -1487 -66 -1122 0 -1211 1
-1299 18 -308 59 -554 189 -772 406 -217 218 -347 464 -406 772 -17 88 -18
177 -18 1299 0 1335 -3 1272 66 1487 75 232 182 407 358 584 213 213 440 334
747 401 97 21 124 22 1114 28 622 3 879 7 665 10 -192 2 -326 5 -297 7 28 2
52 6 52 9 0 3 -240 246 -534 540 l-535 534 -69 0 c-38 0 -71 -2 -74 -5z"/>
<path d="M2349 5604 c-186 -33 -360 -124 -495 -259 -130 -129 -209 -263 -256
-436 l-23 -84 0 -1245 0 -1245 28 -88 c103 -329 341 -564 667 -658 126 -37
257 -40 1415 -36 1031 3 1126 5 1195 21 347 83 609 328 717 673 l28 88 0 1210
c1 666 -2 1089 -5 940 -3 -148 -7 -241 -9 -205 -2 36 -3 69 -2 73 1 5 -3 6 -8
3 -5 -4 -99 83 -208 192 l-198 198 24 44 c20 36 25 61 27 130 l2 85 -7 -86
c-9 -102 -35 -154 -106 -217 -116 -102 -300 -96 -409 12 -62 63 -90 129 -90
216 0 85 21 143 71 201 17 18 32 39 33 44 1 6 4 12 7 15 4 3 2 -1 -2 -9 -5 -9
6 -6 29 8 21 13 56 29 79 37 23 7 33 13 22 13 -11 1 -43 -10 -72 -23 l-52 -25
-205 205 c-113 112 -213 205 -223 206 -10 1 79 5 197 8 118 3 -305 6 -940 7
-942 1 -1169 -1 -1231 -13z m1476 -740 c181 -31 377 -114 529 -222 467 -335
657 -934 470 -1481 -154 -448 -562 -785 -1036 -855 -609 -91 -1202 267 -1412
852 -47 132 -69 262 -69 422 -1 161 15 263 63 415 142 442 539 785 1005 869
110 20 338 20 450 0z"/>
<path d="M3399 4400 c-308 -76 -553 -330 -620 -645 -19 -89 -16 -256 5 -350
35 -156 129 -320 244 -426 274 -254 664 -300 992 -116 144 81 294 256 358 417
60 153 74 361 33 515 -79 302 -315 533 -614 605 -109 26 -291 26 -398 0z"/>
<path d="M4788 5603 c6 -2 18 -2 25 0 6 3 1 5 -13 5 -14 0 -19 -2 -12 -5z"/>
<path d="M4858 5593 c7 -3 16 -2 19 1 4 3 -2 6 -13 5 -11 0 -14 -3 -6 -6z"/>
<path d="M4918 5243 c12 -2 30 -2 40 0 9 3 -1 5 -23 4 -22 0 -30 -2 -17 -4z"/>
<path d="M4998 5233 c7 -3 16 -2 19 1 4 3 -2 6 -13 5 -11 0 -14 -3 -6 -6z"/>
<path d="M5100 5196 c0 -2 8 -10 18 -17 15 -13 16 -12 3 4 -13 16 -21 21 -21
13z"/>
<path d="M5140 5166 c0 -2 8 -10 18 -17 15 -13 16 -12 3 4 -13 16 -21 21 -21
13z"/>
<path d="M5203 5081 c12 -22 23 -38 25 -36 5 5 -26 63 -37 69 -5 4 0 -12 12
-33z"/>
<path d="M5612 4810 c0 -14 2 -19 5 -12 2 6 2 18 0 25 -3 6 -5 1 -5 -13z"/>
</g>
</svg>
