<?xml version="1.0" standalone="no"?>
<!DOCTYPE svg PUBLIC "-//W3C//DTD SVG 20010904//EN"
 "http://www.w3.org/TR/2001/REC-SVG-20010904/DTD/svg10.dtd">
<svg version="1.0" xmlns="http://www.w3.org/2000/svg"
 width="750.000000pt" height="350.000000pt" viewBox="0 0 750.000000 350.000000"
 preserveAspectRatio="xMidYMid meet">

<g transform="translate(0.000000,350.000000) scale(0.100000,-0.100000)"
fill="#000000" stroke="none">
<path d="M1155 3489 c-12 -18 0 -21 102 -24 54 -1 80 -1 58 1 -90 9 -125 16
-120 25 4 5 -3 9 -14 9 -11 0 -23 -5 -26 -11z"/>
<path d="M1396 3484 c-7 -19 1 -34 19 -34 12 0 25 21 25 41 0 16 -38 10 -44
-7z"/>
<path d="M1490 3490 c0 -5 6 -10 14 -10 8 0 18 5 21 10 3 6 -3 10 -14 10 -12
0 -21 -4 -21 -10z"/>
<path d="M1566 3488 c-22 -79 -27 -121 -17 -131 7 -7 12 -6 15 4 29 95 36 119
36 128 0 15 -30 14 -34 -1z"/>
<path d="M2317 3493 c-11 -10 -8 -73 3 -73 6 0 10 18 10 40 0 41 -2 45 -13 33z"/>
<path d="M2856 3485 c-15 -11 -17 -18 -9 -26 12 -12 -2 -59 -17 -59 -13 0 -28
-47 -23 -72 7 -35 -13 -68 -41 -68 -12 0 -25 -3 -29 -6 -10 -10 4 -34 20 -34
8 0 11 -4 8 -10 -9 -15 8 -12 31 5 22 16 90 20 99 5 3 -6 -5 -10 -19 -10 -14
0 -27 -4 -30 -9 -10 -15 32 -20 51 -5 21 15 113 19 113 4 0 -5 -7 -10 -15 -10
-8 0 -15 -5 -15 -11 0 -7 11 -8 31 -4 29 7 31 6 24 -16 -10 -33 -55 -109 -64
-109 -4 0 -13 -12 -20 -27 -17 -38 -1 -49 44 -27 37 17 55 46 55 90 0 21 4 23
24 18 29 -7 79 17 101 48 l15 23 6 -22 c8 -29 44 -41 59 -19 13 17 35 22 35 7
0 -5 23 -11 51 -13 28 -3 54 -11 58 -17 6 -9 14 -8 32 1 18 10 25 22 26 52 2
21 7 44 12 50 5 6 20 51 32 99 12 48 27 87 33 87 6 0 12 17 14 37 1 20 7 42
13 50 18 21 -32 16 -61 -7 -14 -11 -29 -20 -34 -20 -5 0 -17 -6 -25 -13 -9 -7
-29 -19 -46 -26 -29 -12 -29 -12 -12 6 9 11 37 29 62 42 25 12 45 24 45 26 0
2 -18 3 -41 3 -38 0 -116 -35 -147 -64 -6 -7 -21 -16 -32 -19 -11 -4 -18 -11
-15 -16 3 -5 -9 -18 -27 -29 -45 -27 -62 -25 -18 3 27 17 31 23 16 25 -10 2
-28 -5 -39 -16 -12 -11 -32 -23 -44 -26 -12 -4 -36 -17 -55 -29 -18 -13 -55
-31 -83 -41 -27 -10 -54 -23 -59 -27 -13 -12 -56 -11 -56 0 0 5 12 14 28 19
15 6 21 11 13 11 -7 1 -31 -9 -52 -21 -21 -12 -42 -18 -46 -14 -10 10 14 24
75 42 28 8 52 19 52 23 0 4 19 14 41 21 23 8 51 21 63 30 11 9 30 20 40 24 38
14 -3 -21 -52 -44 -72 -33 -104 -51 -99 -56 7 -7 160 75 177 95 9 10 21 16 29
13 15 -5 56 14 86 39 11 9 38 26 60 37 22 12 33 21 23 22 -20 0 -127 -39 -148
-55 -23 -17 -89 -45 -106 -45 -8 0 -32 -9 -52 -19 -128 -67 -172 -83 -172 -62
0 5 24 17 53 25 30 9 65 25 80 36 14 11 31 20 39 20 7 0 46 23 86 50 54 37 67
50 50 49 -13 0 -43 -16 -68 -34 -25 -19 -61 -41 -80 -50 -19 -9 -48 -23 -63
-31 -37 -18 -57 -18 -57 1 0 8 6 15 14 15 18 0 73 29 100 53 11 9 25 17 31 17
6 0 20 7 31 15 18 13 16 14 -21 13 -22 -1 -56 -8 -75 -16 -82 -34 -110 -34
-74 2 14 15 14 16 -3 16 -10 0 -27 -7 -37 -15z m148 -10 c-10 -8 -23 -15 -28
-15 -6 0 -19 -8 -30 -18 -25 -22 -76 -45 -76 -34 0 14 37 40 76 53 22 7 43 17
49 21 5 4 13 8 19 8 5 0 1 -7 -10 -15z m411 -2 c-16 -8 -39 -23 -50 -33 -20
-17 -55 -33 -55 -25 0 6 114 75 125 75 5 -1 -3 -8 -20 -17z m80 -63 c-3 -5
-11 -10 -17 -10 -7 0 -21 -8 -32 -18 -12 -10 -41 -27 -66 -37 -25 -11 -47 -23
-50 -26 -3 -4 -30 -19 -60 -33 -30 -14 -70 -37 -89 -51 -19 -14 -41 -25 -49
-25 -20 0 57 55 116 83 26 12 51 28 55 35 4 6 14 12 21 12 7 0 31 12 52 26 54
37 133 66 119 44z m-625 -50 c0 -5 -5 -10 -11 -10 -5 0 -7 5 -4 10 3 6 8 10
11 10 2 0 4 -4 4 -10z m409 -9 c-20 -10 -47 -25 -60 -34 -27 -19 -43 -22 -33
-6 7 12 103 59 119 59 6 -1 -6 -9 -26 -19z m-152 -31 c-14 -11 -29 -20 -33
-20 -4 0 3 9 16 20 13 11 27 20 33 20 5 0 -2 -9 -16 -20z m323 0 c0 -5 -17
-19 -37 -30 -21 -11 -56 -34 -78 -50 -22 -16 -47 -29 -56 -30 -9 0 -22 -7 -29
-15 -13 -16 -50 -21 -50 -6 0 5 23 21 51 36 28 14 56 31 63 36 12 12 117 67
129 68 4 1 7 -3 7 -9z m-150 -34 c0 -2 -11 -11 -25 -20 -14 -9 -25 -12 -25 -6
0 6 10 15 23 20 27 11 27 11 27 6z m140 -26 c-6 -11 -25 -27 -43 -36 -18 -9
-34 -20 -37 -23 -11 -14 -60 -41 -60 -33 0 11 28 35 60 50 38 18 64 36 73 50
13 20 19 14 7 -8z m-370 -30 c-10 -19 -50 -29 -50 -12 0 7 17 16 58 31 1 1 -2
-8 -8 -19z m40 -5 c-7 -8 -17 -15 -23 -15 -6 0 -2 7 9 15 25 19 30 19 14 0z
m30 -59 c0 -16 -26 -46 -41 -46 -13 0 -11 34 3 48 16 16 38 15 38 -2z m280 -6
c0 -5 -7 -10 -16 -10 -8 0 -12 5 -9 10 3 6 10 10 16 10 5 0 9 -4 9 -10z m-407
-120 c-6 -22 -21 -35 -29 -27 -7 7 15 47 25 47 5 0 7 -9 4 -20z"/>
<path d="M3620 3473 c0 -27 -1 -27 36 -10 16 8 40 18 54 24 21 9 16 10 -32 9
-53 -1 -58 -3 -58 -23z"/>
<path d="M3921 3449 c-27 -65 -26 -69 4 -150 22 -56 33 -71 70 -95 42 -26 57
-44 37 -44 -11 0 -37 -56 -46 -96 -5 -22 -2 -34 8 -44 23 -18 39 -7 55 36 23
65 53 104 80 104 42 0 97 21 131 51 18 17 39 28 45 25 7 -2 57 -7 111 -11 80
-6 102 -4 111 7 24 28 -2 41 -109 51 l-105 10 9 51 c9 61 0 146 -17 153 -7 2
-28 3 -47 1 l-33 -3 30 -15 c35 -18 37 -42 11 -130 -21 -74 -32 -94 -66 -113
-34 -20 -71 -24 -52 -5 18 18 15 53 -6 71 -10 10 -21 17 -24 17 -2 0 -15 -22
-28 -50 -13 -27 -27 -50 -31 -50 -48 0 -109 75 -109 133 0 42 46 117 82 135
20 9 15 11 -33 11 l-56 1 -22 -51z"/>
<path d="M6356 3463 c-3 -21 -6 -56 -6 -79 0 -23 -4 -54 -9 -70 -18 -56 -21
-104 -6 -104 15 0 22 34 30 160 4 52 9 103 12 113 2 9 0 17 -5 17 -5 0 -12
-17 -16 -37z"/>
<path d="M6730 3496 c0 -2 6 -21 14 -43 18 -52 73 -109 111 -116 l30 -6 -28
13 c-36 16 -81 71 -96 119 -7 20 -17 37 -22 37 -5 0 -9 -2 -9 -4z"/>
<path d="M7057 3470 c4 -22 0 -36 -12 -50 -10 -11 -13 -20 -8 -20 6 0 16 7 23
15 10 13 15 12 36 -3 13 -9 24 -22 24 -27 0 -15 83 -105 96 -105 6 0 19 -9 29
-20 11 -12 30 -20 49 -19 17 0 24 3 16 6 -34 12 -120 68 -120 78 0 6 -10 21
-22 33 -50 46 -74 91 -64 117 5 13 16 8 62 -29 31 -25 63 -46 72 -45 15 0 15
1 -1 12 -10 7 -37 29 -60 50 -43 39 -64 45 -86 25 -11 -10 -14 -10 -18 0 -9
25 -22 11 -16 -18z"/>
<path d="M7385 3453 c11 -74 36 -107 90 -117 l30 -6 -32 15 c-21 10 -33 22
-33 35 0 11 -4 20 -9 20 -5 0 -15 23 -22 50 -16 64 -34 66 -24 3z"/>
<path d="M387 3442 c-19 -43 -22 -65 -6 -42 8 11 12 12 16 3 11 -28 23 -11 23
32 0 55 -11 57 -33 7z"/>
<path d="M4680 3346 c0 -80 4 -137 10 -141 23 -14 50 7 62 48 12 41 12 41 16
12 5 -42 21 -58 52 -51 15 3 32 0 39 -7 17 -17 29 1 46 67 21 80 19 118 -5
134 -18 11 -22 9 -38 -18 -21 -38 -28 -38 -36 0 -9 45 -34 49 -68 12 l-28 -32
0 43 c0 43 -13 67 -37 67 -10 0 -13 -31 -13 -134z"/>
<path d="M867 3448 c4 -20 3 -21 -7 -5 -14 21 -30 22 -30 2 0 -8 5 -15 10 -15
6 0 10 -9 10 -21 0 -12 5 -19 12 -17 15 5 24 78 10 78 -6 0 -8 -10 -5 -22z"/>
<path d="M508 3429 c3 -22 7 -27 13 -18 8 12 10 12 18 0 12 -18 21 0 14 27 -3
14 -13 22 -27 22 -19 0 -22 -4 -18 -31z"/>
<path d="M456 3424 c-4 -9 -4 -19 -2 -21 8 -8 26 8 26 23 0 19 -16 18 -24 -2z"/>
<path d="M587 3424 c-8 -8 1 -24 14 -24 5 0 9 7 9 15 0 15 -12 20 -23 9z"/>
<path d="M650 3415 c0 -8 5 -15 10 -15 6 0 10 7 10 15 0 8 -4 15 -10 15 -5 0
-10 -7 -10 -15z"/>
<path d="M2276 3407 c-12 -9 -18 -28 -19 -60 -2 -54 11 -69 58 -65 25 3 31 8
33 31 3 25 1 27 -31 27 l-35 0 9 37 c9 44 8 47 -15 30z m44 -103 c0 -14 -12
-19 -23 -8 -9 9 4 35 14 28 5 -3 9 -12 9 -20z"/>
<path d="M5565 3408 c-11 -5 -27 -24 -36 -41 -12 -24 -23 -33 -46 -35 -32 -3
-52 -30 -33 -42 6 -4 22 -5 36 -2 22 4 24 1 24 -32 0 -48 23 -92 57 -110 24
-12 32 -12 63 2 51 23 130 74 130 84 0 18 -42 6 -82 -22 -22 -16 -46 -30 -52
-30 -20 0 -48 42 -50 74 -1 29 2 31 34 34 63 5 80 11 80 32 0 18 -7 20 -56 20
-59 0 -59 -1 -37 56 6 17 -9 23 -32 12z"/>
<path d="M6987 3375 c-29 -26 -28 -32 2 -15 10 5 21 16 25 25 7 19 6 19 -27
-10z"/>
<path d="M7289 3386 c38 -18 87 -21 96 -6 4 6 -6 10 -22 10 -15 0 -46 3 -68 6
l-40 5 34 -15z"/>
<path d="M1811 3355 c-36 -42 -38 -54 -11 -85 19 -21 38 -25 100 -20 9 1 27
10 40 21 23 17 23 19 5 19 -12 0 -25 11 -33 28 -13 32 -48 72 -61 72 -5 0 -23
-16 -40 -35z m56 -7 c18 -23 21 -57 7 -69 -22 -18 -64 4 -64 34 0 39 36 61 57
35z"/>
<path d="M5022 3365 c-18 -8 -35 -22 -39 -32 -4 -10 -13 -24 -20 -31 -22 -23
-16 -98 10 -122 19 -19 31 -21 87 -18 66 4 120 23 128 46 5 16 -16 15 -76 -4
-46 -15 -51 -15 -76 1 -34 23 -35 71 -3 109 19 22 29 26 50 21 15 -4 34 -4 43
-1 15 6 15 8 -1 26 -21 23 -57 25 -103 5z"/>
<path d="M4346 3351 c-3 -5 0 -13 7 -19 18 -14 189 -34 200 -23 18 18 -1 38
-40 44 -56 10 -161 8 -167 -2z"/>
<path d="M5338 3349 c-15 -6 -29 -20 -33 -36 -3 -14 -30 -56 -60 -93 -30 -38
-56 -74 -57 -81 -2 -10 13 -13 62 -11 36 1 90 -1 121 -6 58 -8 99 -1 99 18 0
10 -99 221 -103 219 -1 0 -14 -5 -29 -10z m21 -111 c36 -82 38 -78 -34 -78
-36 0 -65 4 -65 9 0 6 12 23 26 38 14 15 30 38 35 51 12 31 16 28 38 -20z"/>
<path d="M960 3328 c0 -13 -3 -33 -6 -45 -4 -14 -2 -23 5 -23 6 0 13 12 17 28
3 15 8 35 11 45 3 11 -1 17 -11 17 -10 0 -16 -9 -16 -22z"/>
<path d="M1033 3339 c13 -8 15 -14 7 -30 -13 -24 -37 -25 -43 -1 -4 16 -5 16
-6 -1 0 -10 5 -20 13 -23 8 -3 12 -15 10 -27 -3 -13 -1 -16 2 -7 4 8 10 17 13
20 8 7 31 58 31 70 0 6 -10 10 -22 10 -21 -1 -21 -2 -5 -11z"/>
<path d="M1105 3330 c-3 -11 -11 -20 -17 -20 -7 0 -6 -5 1 -14 10 -11 8 -16
-8 -21 -12 -3 -21 -10 -21 -15 0 -4 11 -3 25 3 14 7 25 19 25 27 0 9 7 26 16
38 13 19 13 22 0 22 -8 0 -18 -9 -21 -20z"/>
<path d="M541 3318 c0 -16 -5 -28 -10 -28 -5 0 -11 -11 -13 -24 -4 -17 -1 -23
9 -19 16 6 26 43 20 74 -4 22 -4 22 -6 -3z"/>
<path d="M580 3290 c0 -75 25 -59 36 23 3 22 0 27 -16 27 -17 0 -20 -7 -20
-50z"/>
<path d="M800 3315 c-17 -20 -4 -65 18 -65 15 1 15 2 -2 15 -23 17 -14 45 14
45 11 0 20 5 20 10 0 15 -36 12 -50 -5z"/>
<path d="M740 3305 c0 -9 -7 -27 -16 -40 -9 -14 -12 -25 -6 -25 5 0 12 8 16
18 3 9 10 27 16 40 6 14 6 22 0 22 -6 0 -10 -7 -10 -15z"/>
<path d="M340 3300 c8 -5 10 -10 5 -10 -6 0 -11 -9 -12 -20 -1 -16 2 -18 14
-11 25 14 24 51 -1 51 -17 0 -18 -2 -6 -10z"/>
<path d="M387 3284 c-11 -14 -16 -28 -12 -32 4 -4 10 -1 12 6 4 10 10 9 24 -4
19 -17 20 -17 17 19 -2 43 -16 47 -41 11z"/>
<path d="M880 3300 c0 -5 10 -10 23 -10 18 0 19 2 7 10 -19 13 -30 13 -30 0z"/>
<path d="M677 3293 c-3 -5 -1 -17 4 -28 7 -17 8 -17 8 8 1 27 -4 34 -12 20z"/>
<path d="M6045 3269 c-61 -46 -58 -61 8 -34 14 6 17 2 17 -24 0 -24 4 -31 19
-31 16 0 20 9 23 50 5 82 -4 87 -67 39z"/>
<path d="M7470 3290 c-8 -5 -10 -10 -5 -10 6 0 17 5 25 10 8 5 11 10 5 10 -5
0 -17 -5 -25 -10z"/>
<path d="M3516 3267 c-10 -7 -17 -22 -14 -33 3 -16 13 -19 58 -21 59 -2 58 2
-2 12 -21 3 -38 10 -38 14 0 15 33 22 41 10 9 -16 29 -2 22 16 -7 19 -43 19
-67 2z"/>
<path d="M2600 3252 c0 -12 89 -21 96 -10 3 5 -4 8 -14 8 -11 0 -34 3 -51 6
-18 4 -31 2 -31 -4z"/>
<path d="M2100 3242 c0 -5 17 -12 38 -14 61 -8 60 9 -2 19 -22 3 -36 2 -36 -5z"/>
<path d="M2348 3243 c-71 -2 -108 -8 -108 -15 0 -8 25 -9 83 -5 45 4 115 7
156 7 41 0 72 2 69 5 -9 9 -84 12 -200 8z"/>
<path d="M1694 3218 c-3 -5 65 -8 150 -8 85 0 157 3 159 8 3 4 -65 7 -150 7
-85 0 -157 -3 -159 -7z"/>
<path d="M2080 3216 c0 -2 16 -6 35 -8 19 -2 35 0 35 4 0 4 -16 8 -35 8 -19 0
-35 -2 -35 -4z"/>
<path d="M2628 3213 c12 -2 32 -2 45 0 12 2 2 4 -23 4 -25 0 -35 -2 -22 -4z"/>
<path d="M802 3180 c0 -16 6 -34 14 -41 9 -7 14 -8 14 -1 0 6 -5 14 -10 17 -6
4 -8 15 -5 25 3 10 2 21 -3 24 -5 3 -9 -8 -10 -24z"/>
<path d="M1032 3195 c-7 -9 -8 -15 -2 -15 5 0 10 -13 10 -29 0 -51 15 -42 17
10 1 51 -4 58 -25 34z"/>
<path d="M6216 3183 c-32 -32 -51 -63 -38 -63 5 0 15 7 22 15 19 23 30 18 30
-16 0 -24 4 -30 18 -27 14 3 16 12 14 53 -2 28 -7 54 -11 58 -4 4 -20 -5 -35
-20z"/>
<path d="M447 3171 c-8 -16 -11 -34 -7 -41 5 -8 9 -7 13 4 8 20 27 21 27 2 0
-8 5 -18 10 -21 7 -4 9 3 4 22 -16 75 -24 80 -47 34z"/>
<path d="M657 3193 c-13 -12 -8 -75 6 -70 6 2 12 13 12 24 0 11 6 27 14 36 12
15 11 17 -6 17 -11 0 -23 -3 -26 -7z"/>
<path d="M2425 3173 c-10 -15 -11 -24 -4 -29 7 -4 8 -24 4 -55 -7 -49 7 -70
20 -30 3 11 18 22 33 26 15 3 36 12 46 20 19 15 19 15 1 29 -17 12 -17 16 -6
30 18 22 8 30 -40 31 -30 0 -43 -5 -54 -22z m75 -3 c0 -6 -7 -13 -15 -16 -21
-8 -19 -21 5 -29 26 -8 16 -25 -16 -25 -21 0 -24 5 -24 33 0 19 3 37 7 40 10
11 43 8 43 -3z"/>
<path d="M382 3178 c-7 -7 -12 -25 -12 -41 0 -43 25 -28 27 16 2 41 2 42 -15
25z"/>
<path d="M1072 3173 c-11 -20 1 -63 17 -63 5 0 16 3 25 6 20 8 11 24 -15 24
-22 0 -27 35 -6 43 9 4 9 6 0 6 -7 1 -16 -7 -21 -16z"/>
<path d="M2300 3180 c0 -5 -15 -10 -34 -10 -68 0 -86 -24 -41 -54 14 -9 25
-24 25 -32 0 -13 -3 -14 -13 -5 -14 11 -37 -2 -37 -21 0 -9 32 -11 54 -2 20 8
21 48 1 64 -16 13 -21 40 -7 40 21 -1 42 -30 42 -60 0 -24 4 -31 14 -27 8 3
17 1 19 -6 3 -8 11 -6 26 7 21 19 21 19 21 -2 0 -12 5 -22 10 -22 6 0 10 20
10 45 0 43 -1 45 -20 35 -16 -9 -20 -8 -20 5 0 11 -7 15 -22 13 -19 -2 -23 1
-21 20 2 12 1 22 -2 22 -3 0 -5 -4 -5 -10z"/>
<path d="M2770 3174 c0 -8 7 -22 15 -31 20 -20 10 -33 -26 -33 -16 0 -29 -5
-29 -11 0 -7 11 -9 33 -5 17 4 46 8 62 9 24 2 31 7 33 29 3 21 -3 30 -27 42
-38 20 -61 20 -61 0z m50 -14 c0 -5 -2 -10 -4 -10 -3 0 -8 5 -11 10 -3 6 -1
10 4 10 6 0 11 -4 11 -10z"/>
<path d="M5880 3154 c-25 -39 -20 -56 8 -31 24 22 32 13 32 -35 0 -26 4 -38
14 -38 24 0 27 35 10 118 -7 34 -39 27 -64 -14z"/>
<path d="M343 3173 c-7 -2 -13 -20 -13 -39 0 -44 16 -36 22 11 2 19 4 35 3 34
0 0 -6 -3 -12 -6z"/>
<path d="M518 3168 c-6 -18 3 -58 13 -58 5 0 9 16 9 35 0 34 -14 48 -22 23z"/>
<path d="M864 3165 c-3 -8 -4 -20 -2 -27 3 -7 7 -1 10 15 6 29 1 36 -8 12z"/>
<path d="M567 3163 c-7 -12 11 -53 22 -53 19 0 19 15 1 38 -10 12 -21 19 -23
15z"/>
<path d="M1727 3163 c-37 -6 -46 -30 -18 -50 22 -15 24 -37 3 -39 -25 -3 -27
-5 -13 -13 19 -12 92 -2 112 16 14 12 17 12 22 -2 4 -8 14 -15 23 -15 11 0 14
5 10 16 -3 9 -6 23 -6 31 0 11 -7 14 -25 9 -14 -4 -25 -2 -25 4 0 5 -11 10
-25 10 -14 0 -25 -5 -25 -11 0 -5 -4 -7 -10 -4 -14 9 -12 21 6 39 8 9 12 15 7
15 -4 -1 -21 -4 -36 -6z"/>
<path d="M1950 3152 c0 -10 -12 -22 -30 -29 -22 -8 -30 -18 -30 -36 0 -23 3
-24 55 -25 56 0 81 11 44 21 -15 4 -19 11 -15 26 3 12 9 30 12 41 4 15 1 20
-15 20 -13 0 -21 -6 -21 -18z"/>
<path d="M2870 3131 c0 -16 -3 -36 -6 -45 -3 -9 -1 -16 5 -16 6 0 16 11 21 25
10 27 30 34 30 10 0 -21 17 -19 23 4 7 28 -7 44 -32 36 -12 -4 -21 -2 -21 4 0
6 -4 11 -10 11 -5 0 -10 -13 -10 -29z"/>
<path d="M6083 3078 c-29 -14 -33 -68 -6 -68 14 0 13 -3 -5 -16 -37 -26 -28
-44 24 -44 49 0 88 15 79 31 -4 5 -17 6 -31 3 -28 -7 -29 -6 -8 34 28 57 2 87
-53 60z"/>
<path d="M6347 3055 c-20 -14 -37 -30 -37 -35 0 -13 27 -13 35 0 13 21 25 9
25 -26 0 -24 4 -34 13 -32 14 5 23 96 10 109 -5 5 -25 -3 -46 -16z"/>
<path d="M5776 3045 c-41 -38 -33 -61 12 -29 22 15 22 15 22 -31 0 -42 2 -46
23 -43 19 3 22 8 20 43 -5 91 -26 107 -77 60z"/>
<path d="M5934 2982 c-13 -9 -27 -40 -30 -69 -2 -16 5 -27 23 -37 l26 -13 -33
-12 c-27 -9 -31 -14 -21 -24 9 -9 20 -8 49 9 44 26 52 49 20 58 -20 6 -21 8
-7 19 18 13 39 50 39 66 0 12 -49 15 -66 3z"/>
<path d="M6568 2975 c-7 -8 -29 -32 -48 -52 -31 -33 -33 -38 -16 -41 12 -3 27
5 37 19 l19 24 0 -52 c0 -54 8 -67 34 -57 23 9 23 159 1 168 -8 3 -21 -1 -27
-9z"/>
<path d="M6223 2930 c-40 -24 -45 -53 -8 -44 20 5 24 3 19 -9 -3 -9 -1 -25 6
-36 10 -19 8 -21 -17 -22 -27 0 -27 -1 -5 -9 25 -11 82 -2 82 11 0 5 -8 16
-19 25 -14 13 -17 25 -13 60 5 50 0 52 -45 24z"/>
<path d="M2235 2894 c-19 -26 -35 -52 -35 -58 1 -11 22 11 52 55 l17 24 0 -42
c1 -45 15 -55 36 -26 11 15 13 15 19 -5 8 -24 46 -31 46 -9 0 8 13 32 30 55
18 25 23 39 14 35 -8 -3 -24 -24 -36 -46 -17 -34 -22 -38 -30 -24 -5 10 -6 26
-3 37 10 31 -19 25 -36 -7 l-14 -28 -3 43 c-2 23 -7 42 -12 42 -5 0 -25 -21
-45 -46z"/>
<path d="M5652 2930 c-29 -12 -50 -56 -34 -72 9 -9 14 -5 21 13 9 23 10 23 10
-8 1 -45 10 -63 33 -63 16 0 19 5 14 23 -3 12 -6 43 -6 70 0 50 -2 51 -38 37z"/>
<path d="M2838 2878 c-21 -16 -38 -36 -38 -44 0 -8 -9 -14 -20 -14 -14 0 -20
7 -20 23 l0 22 -20 -25 -20 -25 0 33 c0 28 -3 33 -21 30 -23 -3 -67 -53 -56
-64 3 -3 17 6 31 21 l26 28 0 -32 c0 -30 21 -44 35 -21 4 6 13 5 25 -2 16 -11
26 -5 71 40 59 59 63 75 7 30z"/>
<path d="M3104 2882 c-28 -24 -51 -62 -38 -62 3 0 16 12 29 28 l25 27 -6 -30
c-5 -30 -5 -30 41 -31 25 -1 41 2 34 6 -7 5 -9 18 -5 34 8 33 1 33 -31 -1
l-26 -28 7 43 c3 23 5 42 4 42 -2 0 -17 -13 -34 -28z"/>
<path d="M1026 2892 c-8 -13 10 -25 24 -17 6 4 10 -5 10 -20 0 -14 -7 -28 -15
-31 -12 -5 -13 -10 -4 -20 6 -7 8 -22 4 -33 -3 -12 -3 -26 2 -33 5 -8 10 1 13
27 4 35 9 41 35 46 l30 7 -27 1 c-20 1 -28 6 -28 20 0 24 18 38 55 44 26 3 24
4 -10 6 -22 1 -50 4 -61 7 -12 3 -25 1 -28 -4z"/>
<path d="M195 2863 c5 -10 8 -26 9 -35 0 -10 6 -18 13 -18 22 0 24 19 4 37
-11 9 -18 20 -15 25 3 4 0 8 -6 8 -8 0 -9 -7 -5 -17z"/>
<path d="M735 2868 c6 -16 45 -42 52 -35 2 3 -10 15 -26 27 -18 12 -29 16 -26
8z"/>
<path d="M3985 2864 c9 -9 18 -14 21 -11 9 9 -6 27 -22 27 -13 0 -13 -2 1 -16z"/>
<path d="M4055 2870 c3 -5 8 -10 11 -10 2 0 4 5 4 10 0 6 -5 10 -11 10 -5 0
-7 -4 -4 -10z"/>
<path d="M376 2856 c3 -9 3 -23 0 -33 -6 -14 -8 -14 -20 3 -8 10 -18 16 -21
12 -4 -4 0 -14 9 -24 13 -13 19 -14 31 -4 12 10 18 10 30 0 9 -7 18 -10 21 -7
3 3 -3 12 -15 19 -12 7 -21 18 -21 25 0 6 -4 15 -10 18 -6 3 -7 -1 -4 -9z"/>
<path d="M2858 2858 c-37 -13 -35 -20 12 -41 45 -19 64 -22 55 -7 -3 6 -16 10
-28 10 -16 0 -18 3 -9 12 13 13 16 38 5 37 -5 0 -20 -5 -35 -11z"/>
<path d="M3237 2845 c-20 -18 -24 -25 -12 -25 10 0 13 -5 9 -12 -5 -8 -2 -9
10 -5 10 4 23 7 29 8 7 0 3 4 -7 8 -19 7 -19 8 2 29 30 30 4 27 -31 -3z"/>
<path d="M3547 2840 c-27 -30 -36 -60 -17 -60 6 0 10 6 10 13 0 6 9 23 20 37
l20 25 0 -33 0 -33 81 6 c45 3 89 10 98 16 14 8 13 9 -4 7 -11 -1 -25 1 -31 4
-6 4 -23 0 -38 -7 -34 -18 -46 -12 -39 18 l6 22 -22 -22 c-29 -30 -34 -29 -26
7 6 25 4 30 -13 30 -10 0 -31 -13 -45 -30z"/>
<path d="M3803 2845 c-15 -13 -23 -25 -17 -25 6 0 17 7 24 15 7 8 18 15 26 15
7 0 16 5 19 10 12 20 -25 9 -52 -15z"/>
<path d="M3932 2848 c2 -12 8 -23 14 -25 7 -2 10 6 7 22 -6 30 -26 34 -21 3z"/>
<path d="M572 2830 c-13 -16 -19 -30 -15 -29 11 0 56 59 46 59 -5 0 -19 -13
-31 -30z"/>
<path d="M977 2813 c8 -65 13 -67 13 -5 0 29 -4 52 -10 52 -6 0 -7 -19 -3 -47z"/>
<path d="M1383 2843 c-4 -9 -1 -19 5 -21 7 -2 12 -17 12 -33 0 -20 5 -29 16
-29 11 0 14 5 10 16 -3 9 -6 31 -6 50 0 37 -25 49 -37 17z"/>
<path d="M2016 2846 c7 -18 32 -28 47 -19 6 3 1 -10 -12 -30 -28 -46 -20 -47
23 -4 l33 34 -38 16 c-48 21 -60 21 -53 3z"/>
<path d="M2436 2840 c-7 -20 -9 -22 -13 -7 -7 26 -23 21 -23 -8 0 -14 4 -25 8
-25 15 0 44 38 40 52 -3 7 -8 1 -12 -12z"/>
<path d="M252 2830 c0 -14 2 -19 5 -12 2 6 2 18 0 25 -3 6 -5 1 -5 -13z"/>
<path d="M290 2836 c0 -8 4 -17 9 -20 5 -4 7 3 4 14 -6 23 -13 26 -13 6z"/>
<path d="M1821 2831 c-13 -23 -2 -60 23 -80 9 -7 16 -19 16 -27 0 -13 -30 -27
-50 -22 -7 2 -15 -3 -17 -9 -6 -15 16 -17 51 -3 32 12 34 47 6 83 -11 14 -20
30 -20 35 0 13 29 24 42 16 6 -4 9 -1 6 7 -7 23 -45 23 -57 0z"/>
<path d="M4250 2835 c0 -9 -10 -16 -27 -17 -16 0 -40 -2 -54 -2 -15 -1 -34 -8
-43 -15 -14 -12 -16 -11 -16 5 0 17 -1 17 -15 -2 -17 -22 -20 -54 -5 -54 6 0
21 11 34 25 23 24 39 25 30 1 -7 -19 71 -19 86 -1 11 13 14 13 25 -2 8 -10 17
-15 21 -11 4 5 0 16 -9 26 -10 11 -14 26 -10 40 3 13 1 22 -6 22 -6 0 -11 -7
-11 -15z m-12 -37 c-6 -16 -36 -34 -44 -26 -3 4 -4 14 -1 23 7 17 51 21 45 3z"/>
<path d="M4041 2812 c-13 -25 -14 -62 -2 -62 8 0 22 70 15 78 -1 2 -7 -5 -13
-16z"/>
<path d="M6388 2822 c-17 -7 -68 -69 -68 -84 0 -4 18 -12 40 -18 24 -6 40 -17
40 -25 0 -20 29 -19 36 0 4 10 21 15 54 15 70 0 85 30 18 35 -18 2 -38 3 -45
4 -8 1 -10 13 -6 36 4 27 2 35 -10 35 -16 0 -27 -20 -27 -51 0 -14 -7 -19 -25
-19 -14 0 -25 5 -25 10 0 6 11 22 25 36 34 34 32 41 -7 26z"/>
<path d="M1498 2794 c-18 -39 0 -59 53 -59 44 1 86 12 77 20 -2 2 -21 0 -41
-6 -21 -5 -47 -7 -57 -4 -22 7 -27 44 -8 63 9 9 9 12 0 12 -7 0 -18 -12 -24
-26z"/>
<path d="M3271 2795 c-29 -28 -20 -45 22 -44 31 0 31 1 8 10 l-24 9 23 25 c31
33 4 33 -29 0z"/>
<path d="M3383 2813 c9 -2 25 -2 35 0 9 3 1 5 -18 5 -19 0 -27 -2 -17 -5z"/>
<path d="M3986 2805 c4 -8 8 -15 10 -15 2 0 4 7 4 15 0 8 -4 15 -10 15 -5 0
-7 -7 -4 -15z"/>
<path d="M4450 2795 c0 -28 30 -95 42 -95 5 0 14 11 20 25 6 14 15 25 19 25 9
0 41 61 35 67 -2 2 -19 -17 -37 -42 l-34 -47 -16 39 c-9 21 -14 41 -12 46 2 4
-1 7 -6 7 -6 0 -11 -11 -11 -25z"/>
<path d="M4882 2813 c-11 -4 -42 -54 -42 -68 0 -3 5 -5 10 -5 6 0 10 6 10 14
0 20 28 46 50 46 16 0 18 -6 15 -37 -4 -32 -3 -34 4 -13 17 47 13 70 -11 69
-13 0 -29 -3 -36 -6z"/>
<path d="M5114 2795 c-23 -23 -56 -45 -68 -45 -3 0 -6 11 -6 25 0 34 -15 31
-30 -5 -12 -30 -38 -44 -26 -15 11 29 -19 14 -41 -20 -24 -37 -19 -54 8 -29
10 9 25 14 33 11 8 -3 17 1 20 9 3 8 19 14 38 14 19 0 44 7 56 16 14 10 22 11
22 3 0 -6 7 -8 18 -4 14 5 15 4 5 -6 -7 -7 -13 -19 -13 -26 0 -18 60 -16 85 3
19 15 17 16 -25 10 l-45 -7 33 21 c50 31 42 52 -16 39 l-37 -8 24 20 c18 15
20 19 7 19 -9 0 -28 -11 -42 -25z"/>
<path d="M5549 2802 c-42 -28 -80 -78 -73 -97 6 -14 9 -12 24 10 9 14 27 33
39 41 21 15 21 15 21 -50 0 -53 3 -66 15 -66 20 0 23 10 28 103 4 85 -3 94
-54 59z"/>
<path d="M5731 2779 c-18 -22 -31 -42 -30 -43 16 -14 53 -26 78 -26 23 0 30
-5 33 -22 4 -33 30 -28 39 6 5 16 14 33 21 38 10 8 10 11 1 15 -7 2 -13 20
-13 39 0 27 -4 34 -20 34 -14 0 -20 -7 -20 -24 0 -40 -11 -56 -36 -56 -29 0
-31 19 -4 50 25 28 25 30 2 30 -10 0 -33 -18 -51 -41z"/>
<path d="M6038 2804 c-24 -12 -28 -21 -28 -57 0 -36 6 -49 33 -74 58 -55 100
-50 113 14 6 28 3 34 -17 41 -13 5 -36 6 -51 2 -31 -9 -38 -5 -38 25 0 27 18
45 46 45 13 0 26 5 29 10 10 16 -56 11 -87 -6z m82 -114 c0 -23 -22 -26 -39
-6 -10 11 -8 15 6 19 31 8 33 7 33 -13z"/>
<path d="M6666 2807 c-22 -7 -41 -18 -44 -25 -4 -14 24 -16 33 -2 3 6 15 10
26 10 16 0 19 -7 19 -45 0 -38 3 -45 20 -45 18 0 20 7 20 60 0 67 -2 68 -74
47z"/>
<path d="M845 2800 c3 -5 13 -10 21 -10 8 0 12 5 9 10 -3 6 -13 10 -21 10 -8
0 -12 -4 -9 -10z"/>
<path d="M2100 2788 c-17 -16 -20 -23 -10 -26 7 -3 19 3 25 12 23 31 27 16 5
-20 -27 -46 -20 -69 18 -59 30 7 49 22 40 31 -3 3 -15 0 -27 -7 -32 -21 -36
-3 -8 40 14 21 23 42 20 45 -13 12 -40 5 -63 -16z"/>
<path d="M2558 2788 c-4 -9 -21 -18 -40 -21 l-33 -4 33 -1 c29 -2 32 -5 33
-34 1 -21 3 -26 6 -13 3 11 12 26 21 33 9 6 11 12 5 12 -7 0 -13 10 -15 23 -3
18 -4 19 -10 5z"/>
<path d="M1219 2770 l-24 -19 50 0 c40 1 45 3 25 9 l-25 8 28 1 c15 1 27 6 27
11 0 18 -57 11 -81 -10z"/>
<path d="M1708 2778 c-10 -8 -18 -36 -21 -73 -4 -33 -9 -75 -13 -94 -5 -23 -4
-32 3 -28 6 4 14 34 18 68 7 56 9 60 29 55 23 -6 33 -1 55 26 12 16 10 20 -10
38 -28 23 -40 24 -61 8z m52 -33 c0 -9 -9 -15 -25 -15 -16 0 -25 6 -25 15 0 9
9 15 25 15 16 0 25 -6 25 -15z"/>
<path d="M2210 2781 c0 -6 18 -11 44 -11 23 0 72 -3 107 -6 51 -5 62 -4 52 6
-16 17 -203 27 -203 11z"/>
<path d="M3920 2780 c0 -5 7 -10 15 -10 8 0 15 5 15 10 0 6 -7 10 -15 10 -8 0
-15 -4 -15 -10z"/>
<path d="M2928 2768 c-8 -5 -1 -8 20 -8 18 0 43 -5 55 -12 19 -10 20 -9 9 4
-15 18 -66 28 -84 16z"/>
<path d="M4560 2760 c-11 -7 -12 -12 -4 -17 7 -5 14 -17 17 -28 3 -12 5 -4 6
18 0 20 0 37 -1 37 -2 0 -10 -5 -18 -10z"/>
<path d="M736 2738 c25 -31 36 -38 54 -37 13 1 13 1 0 6 -8 4 -23 17 -33 30
-10 12 -23 23 -29 23 -6 0 -3 -10 8 -22z"/>
<path d="M2650 2753 c0 -10 200 -27 209 -18 9 10 -7 13 -106 20 -64 4 -103 4
-103 -2z"/>
<path d="M2940 2730 c29 -22 63 -33 58 -18 -2 5 -22 16 -43 24 l-40 13 25 -19z"/>
<path d="M4705 2740 c38 -6 38 -7 11 -11 -16 -2 -31 -9 -33 -15 -3 -10 27 -11
96 -4 3 0 -5 9 -17 20 -14 13 -34 20 -59 19 l-38 -2 40 -7z"/>
<path d="M302 2715 c3 -30 43 -73 56 -60 4 4 -1 12 -10 19 -10 7 -25 26 -33
42 l-16 29 3 -30z"/>
<path d="M1137 2719 c6 -22 23 -26 23 -5 0 8 -6 16 -14 19 -10 4 -12 0 -9 -14z"/>
<path d="M1926 2695 c3 -27 8 -54 11 -58 12 -20 79 71 70 96 -3 7 -8 0 -12
-16 -4 -15 -16 -32 -27 -38 -23 -12 -21 -14 -36 31 -11 34 -11 33 -6 -15z"/>
<path d="M2270 2724 c0 -9 8 -23 18 -30 16 -13 16 -15 -5 -33 -30 -25 -29 -33
3 -21 19 8 31 6 47 -5 31 -21 46 -18 20 4 -30 25 -29 27 8 46 17 9 29 19 26
21 -3 3 -19 -1 -35 -10 -32 -16 -42 -12 -55 27 -8 22 -27 22 -27 1z"/>
<path d="M1349 2713 c-13 -15 -11 -16 15 -9 28 7 29 7 14 -16 -33 -51 -31 -58
15 -57 42 2 42 2 8 8 l-34 6 26 31 c15 18 27 37 27 43 0 17 -56 13 -71 -6z"/>
<path d="M4352 2715 c-36 -19 -34 -21 18 -21 55 1 62 7 28 23 -16 6 -30 6 -46
-2z"/>
<path d="M6816 2711 c-10 -10 -28 -22 -42 -25 -13 -4 -24 -11 -24 -16 0 -6 14
-4 34 4 l34 14 9 -45 c7 -41 34 -76 47 -62 3 2 2 36 -2 74 -8 76 -23 92 -56
56z"/>
<path d="M1580 2705 c0 -8 5 -15 10 -15 18 0 10 -27 -12 -44 l-23 -17 25 8
c14 3 33 7 43 7 11 0 15 6 12 14 -3 8 3 21 12 28 16 13 16 14 -8 8 -19 -4 -28
-1 -32 10 -8 20 -27 21 -27 1z"/>
<path d="M3110 2710 c0 -5 5 -10 10 -10 6 0 10 5 10 10 0 6 -4 10 -10 10 -5 0
-10 -4 -10 -10z"/>
<path d="M3278 2703 c17 -2 47 -2 65 0 17 2 3 4 -33 4 -36 0 -50 -2 -32 -4z"/>
<path d="M2838 2693 c6 -2 12 -16 12 -31 0 -17 3 -23 10 -16 14 14 0 54 -19
53 -10 0 -11 -2 -3 -6z"/>
<path d="M2710 2680 c0 -5 5 -10 10 -10 14 0 12 -27 -2 -33 -7 -3 1 -6 18 -6
22 -1 34 -8 44 -26 7 -14 17 -25 22 -25 15 0 9 19 -13 41 l-21 21 21 14 c31
22 25 34 -11 22 -24 -9 -33 -8 -36 0 -5 15 -32 16 -32 2z"/>
<path d="M4943 2678 c-29 -5 -53 -14 -53 -20 0 -6 7 -7 18 -2 26 11 137 21
220 20 39 0 72 2 72 7 0 10 -194 7 -257 -5z"/>
<path d="M3916 2655 c-19 -15 -19 -16 13 -49 31 -32 32 -35 14 -45 -13 -8 -14
-10 -3 -11 8 0 21 4 29 9 12 7 8 15 -17 41 -37 36 -33 54 9 48 18 -3 28 0 26
6 -6 17 -50 17 -71 1z"/>
<path d="M4016 2655 c-3 -9 0 -15 9 -15 16 0 20 16 6 24 -5 3 -11 -1 -15 -9z"/>
<path d="M4454 2653 c-27 -12 -25 -13 35 -8 35 3 81 5 102 5 22 0 39 5 39 11
0 15 -141 9 -176 -8z"/>
<path d="M4175 2640 c-14 -16 -17 -30 -11 -74 8 -68 27 -128 43 -133 8 -3 7 5
-3 26 -9 17 -18 65 -21 106 l-6 75 28 0 c28 0 28 0 21 -54 -7 -63 8 -85 43
-66 23 12 29 60 8 60 -8 0 -13 -8 -13 -17 1 -10 -3 -18 -9 -18 -5 0 -10 20
-10 45 0 25 -4 51 -8 58 -12 18 -42 15 -62 -8z"/>
<path d="M306 2633 c-3 -3 -6 -15 -6 -25 0 -10 -9 -44 -20 -75 -20 -56 -19
-73 3 -73 7 0 13 19 14 50 1 27 6 57 11 67 9 15 11 14 18 -12 4 -17 10 -34 14
-40 4 -5 9 -17 13 -26 4 -12 0 -15 -19 -11 l-25 5 3 -219 3 -219 -60 -6 -60
-5 59 -5 59 -4 0 -150 -1 -150 10 151 10 151 91 7 c49 3 114 6 143 6 l52 0 7
-72 c9 -106 13 -121 41 -151 39 -42 46 -32 13 21 -24 39 -30 63 -36 129 -6 80
-5 81 18 86 22 4 22 4 2 6 -23 1 -28 11 -38 79 -4 24 -19 57 -33 74 -34 40
-137 87 -210 96 l-57 7 -3 41 c-4 50 12 94 34 94 13 0 16 7 11 35 -3 20 -13
50 -21 67 -9 17 -16 39 -16 49 0 20 -13 32 -24 22z m98 -332 c3 -5 23 -12 43
-16 94 -17 152 -77 167 -171 l7 -42 -68 -5 c-37 -3 -103 -9 -146 -13 l-78 -7
4 38 c3 20 1 76 -3 124 -4 47 -5 89 -3 94 6 10 71 9 77 -2z"/>
<path d="M3278 2633 c6 -2 18 -2 25 0 6 3 1 5 -13 5 -14 0 -19 -2 -12 -5z"/>
<path d="M2680 2620 c0 -5 5 -10 10 -10 6 0 10 5 10 10 0 6 -4 10 -10 10 -5 0
-10 -4 -10 -10z"/>
<path d="M3247 2624 c-4 -4 -7 -14 -7 -23 0 -11 3 -12 11 -4 6 6 10 16 7 23
-2 6 -7 8 -11 4z"/>
<path d="M3357 2606 c-14 -49 14 -54 111 -19 23 9 42 19 42 24 0 4 10 10 23
12 22 4 22 4 -2 6 -13 0 -39 -9 -58 -20 -19 -12 -49 -25 -68 -29 -33 -7 -34
-6 -37 24 l-3 31 -8 -29z"/>
<path d="M4016 2614 c-3 -9 -6 -30 -6 -47 l1 -32 14 40 c8 22 15 43 15 48 0
13 -18 7 -24 -9z"/>
<path d="M4057 2623 c-4 -3 -7 -29 -7 -57 l0 -50 29 34 c30 36 33 35 44 -15 3
-11 5 -3 6 19 1 40 -2 41 -53 21 -16 -7 -17 -5 -11 23 7 32 4 38 -8 25z"/>
<path d="M4925 2604 c-4 -10 -11 -27 -16 -36 -5 -10 -9 -24 -9 -32 0 -19 39
-31 53 -17 15 15 27 14 27 -4 0 -8 3 -15 8 -15 4 0 8 21 9 48 l2 47 -24 -27
c-12 -15 -25 -33 -28 -40 -3 -9 -8 -10 -16 -3 -7 8 -8 21 0 49 11 38 5 65 -6
30z"/>
<path d="M1030 2584 c-16 -42 -13 -114 6 -121 9 -3 20 0 25 8 15 24 10 34 -6
13 -15 -17 -16 -13 -12 54 2 39 2 72 0 72 -2 0 -8 -12 -13 -26z"/>
<path d="M4560 2600 c0 -5 -9 -19 -19 -29 -11 -11 -24 -29 -31 -40 -16 -30
-24 -26 -42 22 l-17 42 0 -35 c-1 -39 17 -81 37 -88 6 -2 12 3 12 12 0 8 8 21
18 28 23 17 66 98 53 98 -6 0 -11 -4 -11 -10z"/>
<path d="M4593 2588 c-25 -12 -32 -34 -8 -24 8 3 22 9 30 12 12 5 14 0 9 -25
-6 -28 -4 -31 20 -31 17 0 26 5 26 16 0 10 -6 14 -15 10 -11 -4 -15 2 -15 24
0 32 -10 36 -47 18z"/>
<path d="M1490 2556 c0 -58 11 -96 29 -96 14 0 14 2 1 10 -10 6 -15 26 -15 65
0 30 -3 55 -7 55 -5 0 -8 -15 -8 -34z"/>
<path d="M1950 2538 c0 -28 2 -49 4 -47 8 9 13 99 5 99 -5 0 -9 -23 -9 -52z"/>
<path d="M5025 2560 c-10 -11 -16 -22 -14 -24 2 -2 12 7 22 20 22 29 17 32 -8
4z"/>
<path d="M5120 2541 c0 -23 2 -41 4 -41 8 0 12 71 4 76 -4 3 -8 -13 -8 -35z"/>
<path d="M6700 2548 c13 -42 30 -61 45 -48 8 7 18 3 33 -11 34 -31 26 -5 -9
33 -26 28 -30 29 -24 11 3 -13 2 -23 -3 -23 -5 0 -12 13 -15 29 -3 16 -13 31
-21 34 -12 5 -13 0 -6 -25z"/>
<path d="M7058 2564 c-5 -4 -8 -21 -7 -38 0 -30 0 -30 10 -7 11 27 8 57 -3 45z"/>
<path d="M7323 2530 c0 -25 2 -35 4 -22 2 12 2 32 0 45 -2 12 -4 2 -4 -23z"/>
<path d="M5065 2549 c-11 -16 -1 -19 13 -3 7 8 8 14 3 14 -5 0 -13 -5 -16 -11z"/>
<path d="M6935 2543 c4 -10 10 -28 12 -40 l5 -23 20 25 c11 14 17 31 15 38 -3
7 -6 5 -6 -5 -1 -25 -31 -23 -31 2 0 11 -5 20 -11 20 -7 0 -8 -7 -4 -17z"/>
<path d="M1101 2533 c-1 -14 5 -23 13 -23 10 0 13 -11 10 -42 -3 -37 -2 -39 5
-13 14 50 13 78 -3 72 -9 -4 -17 1 -19 11 -3 12 -5 11 -6 -5z"/>
<path d="M1429 2533 c6 -12 9 -30 6 -40 -3 -10 0 -8 6 5 10 19 10 26 -5 40
-17 16 -18 16 -7 -5z"/>
<path d="M2218 2544 c-5 -4 -8 -24 -8 -43 0 -27 6 -40 23 -50 19 -12 20 -12
10 0 -6 8 -13 34 -15 58 -2 23 -6 39 -10 35z"/>
<path d="M2440 2525 c5 -14 7 -33 4 -42 -5 -17 -5 -17 6 -1 11 18 4 68 -11 68
-5 0 -4 -11 1 -25z"/>
<path d="M7192 2538 c5 -15 28 -23 28 -10 0 5 -7 13 -16 16 -10 4 -14 1 -12
-6z"/>
<path d="M1650 2533 c0 -3 7 -14 15 -24 14 -15 14 -18 -2 -35 -17 -17 -18 -17
-21 14 -5 54 -21 35 -19 -23 1 -52 2 -54 14 -31 16 30 52 44 65 25 6 -9 7 -5
2 13 -4 19 -1 29 13 37 10 6 13 11 8 11 -6 0 -16 -5 -22 -11 -8 -8 -15 -6 -25
10 -12 20 -28 28 -28 14z"/>
<path d="M3415 2528 c-2 -7 0 -29 5 -48 8 -34 8 -34 7 12 -2 50 -5 57 -12 36z"/>
<path d="M1195 2520 c-4 -6 -16 -8 -28 -5 -17 5 -19 4 -7 -4 12 -8 12 -13 2
-23 -18 -18 -15 -33 4 -17 13 10 17 10 25 -2 8 -10 9 -8 4 9 -4 13 -1 29 5 37
7 8 10 15 7 15 -3 0 -9 -5 -12 -10z"/>
<path d="M1566 2515 c-8 -21 3 -45 22 -45 14 0 14 2 0 18 -9 9 -13 23 -11 30
7 17 -4 15 -11 -3z"/>
<path d="M3251 2517 c-6 -7 -9 -27 -8 -44 3 -40 12 -32 12 10 0 26 4 31 19 29
11 -2 15 1 11 7 -8 15 -20 14 -34 -2z"/>
<path d="M1316 2505 c4 -8 10 -15 15 -15 4 0 6 7 3 15 -4 8 -10 15 -15 15 -4
0 -6 -7 -3 -15z"/>
<path d="M1383 2495 c1 -21 8 -31 22 -33 13 -2 16 0 8 5 -7 5 -17 20 -22 33
-11 25 -11 25 -8 -5z"/>
<path d="M2074 2500 c3 -14 6 -31 6 -37 0 -7 5 -13 10 -13 15 0 11 33 -7 55
-15 20 -15 19 -9 -5z"/>
<path d="M2561 2500 c0 -14 4 -34 9 -45 8 -18 9 -18 9 5 0 14 -4 34 -9 45 -8
18 -9 18 -9 -5z"/>
<path d="M2644 2486 c-10 -53 -1 -64 26 -33 17 20 26 24 32 15 5 -9 8 -6 8 10
0 25 -18 30 -26 7 -10 -25 -25 -17 -18 10 4 15 2 25 -4 25 -6 0 -14 -16 -18
-34z"/>
<path d="M2992 2495 c0 -16 2 -22 5 -12 2 9 2 23 0 30 -3 6 -5 -1 -5 -18z"/>
<path d="M3177 2513 c-8 -14 12 -55 25 -51 19 7 16 52 -4 56 -9 2 -18 -1 -21
-5z m20 -35 c-3 -7 -5 -2 -5 12 0 14 2 19 5 13 2 -7 2 -19 0 -25z"/>
<path d="M3450 2485 c0 -19 2 -35 4 -35 2 0 6 16 8 35 2 19 0 35 -4 35 -4 0
-8 -16 -8 -35z"/>
<path d="M3491 2477 c0 -23 3 -35 6 -27 15 45 15 45 24 23 4 -13 13 -23 18
-23 18 0 -9 58 -30 63 -17 4 -19 0 -18 -36z"/>
<path d="M3567 2488 c9 -21 23 -40 30 -42 20 -8 15 6 -17 44 l-29 35 16 -37z"/>
<path d="M2164 2496 c-7 -20 2 -46 16 -46 13 0 13 47 0 55 -6 3 -13 -1 -16 -9z"/>
<path d="M2256 2485 c8 -34 27 -52 32 -30 4 18 14 19 31 3 11 -11 13 -10 7 5
-3 10 -6 20 -6 22 0 2 -10 1 -21 -2 -15 -4 -27 0 -36 13 -13 17 -14 17 -7 -11z"/>
<path d="M2363 2478 c1 -39 10 -41 29 -5 10 20 9 21 -5 9 -13 -11 -16 -10 -20
10 -3 13 -4 7 -4 -14z"/>
<path d="M2824 2495 c-3 -8 -4 -20 -2 -27 3 -7 7 -1 10 15 6 29 1 36 -8 12z"/>
<path d="M2909 2501 c8 -5 12 -18 8 -30 -3 -12 -1 -19 4 -15 17 10 10 54 -8
54 -14 0 -15 -2 -4 -9z"/>
<path d="M2942 2480 c0 -19 2 -27 5 -17 2 9 2 25 0 35 -3 9 -5 1 -5 -18z"/>
<path d="M3032 2485 c-14 -31 -15 -35 -3 -35 9 0 25 49 18 56 -2 2 -9 -7 -15
-21z"/>
<path d="M3092 2503 c-18 -4 -22 -10 -19 -31 3 -18 10 -27 21 -26 9 1 16 -2
16 -7 0 -5 5 -9 11 -9 8 0 8 5 -1 15 -7 8 -10 26 -8 40 3 14 5 24 4 24 0 -1
-11 -4 -24 -6z"/>
<path d="M3309 2486 c6 -14 8 -26 5 -26 -3 0 2 -7 11 -16 9 -9 18 -14 21 -12
7 8 -12 53 -30 67 -15 13 -16 11 -7 -13z"/>
<path d="M2122 2470 c0 -19 2 -27 5 -17 2 9 2 25 0 35 -3 9 -5 1 -5 -18z"/>
<path d="M2612 2470 c0 -19 2 -27 5 -17 2 9 2 25 0 35 -3 9 -5 1 -5 -18z"/>
<path d="M2752 2479 c2 -12 14 -29 28 -38 24 -15 25 -15 9 4 -9 11 -15 25 -12
31 2 6 -3 14 -12 18 -12 4 -16 1 -13 -15z"/>
<path d="M2875 2480 c-7 -23 1 -40 18 -40 8 0 8 3 -2 9 -8 5 -11 16 -6 30 3
11 4 21 1 21 -2 0 -7 -9 -11 -20z"/>
<path d="M3000 2435 c1 -26 2 -28 11 -12 8 14 8 22 0 30 -8 8 -11 3 -11 -18z"/>
<path d="M210 2428 c0 -13 7 -32 15 -42 8 -11 15 -31 16 -45 1 -18 5 -10 15
24 16 57 17 94 2 52 -10 -29 -28 -28 -28 3 0 10 -4 22 -10 25 -6 3 -10 -4 -10
-17z"/>
<path d="M2820 2435 c7 -8 17 -15 22 -15 5 0 3 7 -6 15 -8 8 -18 15 -22 15 -3
0 -1 -7 6 -15z"/>
<path d="M7170 2430 c13 -9 12 -12 -4 -25 -11 -8 -15 -15 -9 -15 16 0 36 28
28 40 -3 5 -12 10 -18 10 -7 0 -6 -4 3 -10z"/>
<path d="M718 2423 c7 -3 16 -2 19 1 4 3 -2 6 -13 5 -11 0 -14 -3 -6 -6z"/>
<path d="M3570 2409 c-7 -11 -9 -23 -6 -27 3 -3 6 0 6 6 0 6 7 18 16 26 8 9
11 16 5 16 -6 0 -15 -9 -21 -21z"/>
<path d="M3864 2409 c-15 -17 -19 -35 -18 -85 1 -47 -3 -64 -13 -64 -21 0 -15
-17 8 -23 20 -5 21 -11 17 -64 -3 -50 -9 -64 -37 -93 -18 -19 -27 -36 -21 -38
18 -6 62 29 73 59 16 42 30 35 22 -11 -6 -36 -5 -40 15 -40 31 0 80 40 80 66
0 29 -21 45 -64 47 -29 2 -36 6 -37 25 -1 12 -2 28 -3 35 -1 7 9 11 22 10 13
-2 21 1 17 7 -3 6 -13 10 -21 10 -22 0 -36 49 -29 100 11 76 40 90 93 45 32
-27 42 -31 42 -15 0 17 -63 50 -96 50 -19 0 -38 -8 -50 -21z m86 -288 c0 -11
-4 -23 -10 -26 -6 -4 -10 5 -10 19 0 14 5 26 10 26 6 0 10 -9 10 -19z"/>
<path d="M6756 2417 c5 -15 44 -41 44 -30 0 14 -14 29 -32 36 -11 4 -15 2 -12
-6z"/>
<path d="M6870 2418 c0 -9 5 -20 10 -23 13 -8 13 5 0 25 -8 13 -10 13 -10 -2z"/>
<path d="M6937 2409 c6 -23 23 -25 23 -4 0 24 14 17 33 -15 11 -18 16 -39 12
-53 -3 -12 5 0 19 26 31 57 33 72 7 37 l-19 -24 -12 26 c-9 20 -20 26 -40 26
-22 -1 -26 -5 -23 -19z"/>
<path d="M7327 2410 c-3 -13 1 -24 12 -30 15 -7 17 -5 13 21 -5 34 -17 38 -25
9z"/>
<path d="M616 2411 c-3 -5 1 -14 9 -21 26 -22 17 -39 -22 -43 -21 -2 -15 -3
14 -2 59 2 71 8 55 28 -7 8 -9 17 -5 21 8 8 -15 26 -34 26 -6 0 -14 -4 -17 -9z"/>
<path d="M1080 2408 c0 -4 6 -8 14 -8 8 0 17 4 20 8 2 4 -4 8 -15 8 -10 0 -19
-4 -19 -8z"/>
<path d="M1547 2399 c7 -7 15 -10 18 -7 3 3 -2 9 -12 12 -14 6 -15 5 -6 -5z"/>
<path d="M4445 2397 c-11 -8 -42 -22 -68 -32 -75 -28 -31 -43 56 -19 15 5 17
-2 17 -55 l0 -61 -84 0 c-82 0 -116 -5 -116 -19 0 -3 128 -6 284 -6 223 0 288
3 298 13 11 11 -4 12 -83 6 -53 -3 -134 -3 -181 0 l-83 7 0 86 c0 90 -6 103
-40 80z"/>
<path d="M702 2358 c3 -37 29 -45 60 -19 14 11 21 11 33 1 13 -11 15 -9 15 14
0 29 -20 35 -40 11 -17 -21 -30 -19 -30 5 0 14 -7 20 -21 20 -17 0 -20 -5 -17
-32z"/>
<path d="M5190 2372 c14 -12 21 -22 15 -23 -16 -3 -56 -5 -117 -7 -32 -1 -58
-6 -58 -10 0 -5 37 -7 81 -4 55 3 80 1 75 -6 -10 -17 18 -21 54 -6 l34 15 -25
24 c-13 13 -37 27 -54 31 l-30 7 25 -21z"/>
<path d="M830 2365 c0 -8 5 -15 10 -15 18 0 10 -29 -10 -35 -11 -3 -20 -11
-20 -16 0 -12 17 -12 25 1 8 13 45 13 45 0 0 -13 40 -33 48 -25 4 4 -4 16 -17
26 l-25 20 30 24 c16 13 26 26 23 29 -3 4 -18 -3 -33 -15 -23 -18 -30 -20 -37
-8 -5 8 -9 17 -9 22 0 14 -30 7 -30 -8z"/>
<path d="M7442 2325 c-6 -14 -8 -25 -3 -25 8 0 23 41 17 47 -1 2 -8 -8 -14
-22z"/>
<path d="M2087 2304 c-20 -21 -37 -43 -37 -51 0 -7 0 -16 -1 -20 -2 -17 19
-12 24 6 2 10 14 24 25 30 19 10 20 8 15 -29 -6 -42 5 -52 27 -25 14 17 37 20
42 4 2 -7 13 -6 33 2 17 6 44 11 60 10 38 -3 99 37 103 67 5 30 -4 28 -42 -13
-19 -19 -41 -35 -50 -35 -20 0 -20 7 -1 27 19 18 16 48 -5 48 -8 0 -19 -10
-26 -23 -16 -33 -22 -36 -17 -7 4 20 1 25 -15 25 -11 0 -27 -11 -36 -25 -22
-34 -34 -31 -38 7 -4 44 -18 44 -61 2z"/>
<path d="M5567 2296 c-53 -49 -56 -56 -27 -56 11 0 20 4 20 8 0 5 11 14 25 20
l25 12 0 -55 0 -55 -34 0 c-63 0 -156 -13 -156 -22 0 -15 342 10 358 26 23 24
-56 24 -130 0 -16 -5 -18 3 -18 80 0 47 -4 86 -8 86 -5 0 -30 -20 -55 -44z"/>
<path d="M5975 2321 c-56 -35 -96 -81 -121 -136 -28 -64 -30 -85 -10 -123 23
-43 60 -72 102 -78 l39 -6 -50 36 c-27 21 -53 45 -57 54 -10 26 -9 98 2 127
12 31 100 114 139 132 22 10 23 11 6 12 -11 1 -33 -8 -50 -18z"/>
<path d="M1574 2311 c-16 -12 -20 -25 -17 -43 4 -22 1 -27 -18 -30 -12 -2 -24
-9 -27 -17 -3 -9 2 -11 17 -6 24 7 26 -2 12 -52 -6 -22 -6 -35 1 -39 14 -9 25
11 32 58 l6 39 45 -7 c54 -8 62 11 9 21 -38 7 -37 3 -18 73 8 27 -12 29 -42 3z"/>
<path d="M2593 2322 c-38 -12 -93 -68 -93 -96 0 -35 23 -33 37 3 10 29 59 69
69 58 4 -3 -4 -22 -16 -42 -19 -31 -20 -39 -9 -46 10 -6 22 1 41 24 l28 32 -6
-32 c-8 -38 5 -42 70 -19 37 13 96 59 96 76 0 5 9 12 20 15 30 10 24 25 -10
25 -23 0 -33 -7 -47 -32 l-18 -33 -3 28 c-5 38 -27 34 -45 -10 l-15 -38 -1 32
c-1 25 -8 35 -33 47 -34 17 -32 17 -65 8z"/>
<path d="M6210 2321 c0 -6 6 -11 13 -11 6 0 21 -8 32 -16 19 -15 17 -16 -35
-11 -30 3 -68 12 -85 21 -36 19 -75 21 -75 3 0 -8 28 -17 80 -25 106 -17 114
-20 98 -40 -11 -14 -9 -15 22 -8 43 8 79 41 63 57 -6 6 -26 14 -44 19 -19 4
-42 11 -51 15 -11 4 -18 3 -18 -4z"/>
<path d="M6487 2304 c3 -8 16 -17 30 -20 42 -11 5 -24 -69 -24 -42 0 -68 -4
-68 -11 0 -10 28 -9 155 7 37 5 39 4 21 -11 -11 -8 -24 -15 -29 -15 -4 0 -5
-4 -2 -10 6 -10 78 21 89 38 3 5 -18 18 -47 29 -82 33 -87 34 -80 17z"/>
<path d="M232 2290 c0 -14 2 -19 5 -12 2 6 2 18 0 25 -3 6 -5 1 -5 -13z"/>
<path d="M1151 2300 c-8 -5 -1 -9 20 -13 42 -6 46 -3 16 10 -13 6 -30 8 -36 3z"/>
<path d="M2413 2265 c-28 -24 -60 -48 -70 -53 -10 -6 -14 -14 -10 -18 5 -5 30
4 56 19 l48 27 -8 -47 c-5 -25 -6 -49 -3 -52 8 -8 34 29 34 50 0 9 7 33 15 52
33 79 14 85 -62 22z"/>
<path d="M6867 2289 c-3 -12 -2 -31 3 -42 7 -18 9 -14 9 21 1 46 -4 54 -12 21z"/>
<path d="M7383 2297 c3 -9 2 -19 -4 -22 -5 -4 -7 -11 -3 -16 3 -5 10 -7 15 -4
13 9 11 42 -3 51 -8 5 -9 2 -5 -9z"/>
<path d="M1653 2293 c9 -2 25 -2 35 0 9 3 1 5 -18 5 -19 0 -27 -2 -17 -5z"/>
<path d="M7146 2287 c3 -9 1 -24 -5 -34 -7 -15 -5 -22 10 -31 24 -15 32 -15
22 0 -4 7 -7 26 -8 42 0 16 -6 31 -13 33 -7 3 -10 -1 -6 -10z"/>
<path d="M2851 2281 c-26 -7 -49 -36 -38 -47 4 -4 15 0 25 9 10 10 24 17 31
17 23 0 5 -24 -35 -46 -58 -33 -51 -48 24 -52 51 -2 62 0 62 13 0 9 -9 15 -23
15 -37 0 -39 11 -7 43 17 17 29 36 27 42 -4 12 -34 16 -66 6z"/>
<path d="M6750 2275 c5 -6 6 -16 2 -20 -4 -5 -1 -5 6 -1 8 5 22 0 33 -10 20
-18 21 -18 9 8 -7 14 -23 28 -36 31 -18 3 -22 1 -14 -8z"/>
<path d="M7205 2280 c-3 -6 1 -7 9 -4 18 7 21 14 7 14 -6 0 -13 -4 -16 -10z"/>
<path d="M5103 2273 c-12 -2 -27 -11 -34 -20 -11 -13 -9 -19 14 -39 16 -13 35
-24 43 -24 21 0 17 -18 -6 -30 -13 -7 -39 -8 -67 -4 -33 5 -44 4 -39 -5 4 -6
31 -11 61 -11 92 0 144 39 80 60 -43 14 -63 36 -47 52 9 9 15 7 25 -7 16 -20
33 -5 23 20 -5 15 -12 16 -53 8z"/>
<path d="M6670 2272 c0 -6 14 -21 30 -34 19 -13 34 -37 41 -62 14 -53 3 -123
-22 -136 -10 -6 -19 -16 -19 -22 0 -7 -10 -22 -22 -35 -15 -16 -17 -23 -7 -23
39 1 110 107 108 164 -1 47 -23 100 -47 112 -12 6 -31 19 -42 29 -11 10 -20
13 -20 7z"/>
<path d="M1019 2252 c-56 -37 -88 -92 -89 -149 0 -13 -5 -23 -11 -23 -6 0 -9
-9 -6 -19 4 -18 -27 -144 -48 -193 -4 -10 -3 -18 1 -18 15 1 55 97 63 148 l7
47 104 -1 c109 -2 101 3 -45 24 l-50 7 4 35 c4 43 44 113 79 139 33 25 26 27
-9 3z"/>
<path d="M6980 2248 c11 -12 18 -28 16 -35 -10 -24 2 -13 23 22 11 19 16 35
11 35 -5 0 -13 -7 -18 -16 -8 -14 -10 -14 -21 0 -8 9 -18 16 -23 16 -5 0 1
-10 12 -22z"/>
<path d="M7070 2245 c0 -17 2 -18 24 -9 18 7 12 24 -10 24 -8 0 -14 -7 -14
-15z"/>
<path d="M5264 2239 c-3 -6 0 -15 7 -20 20 -12 132 -12 124 1 -3 6 -26 10 -50
10 -24 0 -47 5 -50 10 -8 13 -22 13 -31 -1z"/>
<path d="M6013 2243 c-8 -2 -13 -22 -13 -44 0 -24 -5 -39 -12 -39 -9 0 -9 -3
0 -12 7 -7 12 -38 12 -70 0 -44 4 -58 14 -58 8 0 18 5 21 10 3 6 36 10 72 10
37 0 63 3 60 7 -4 3 -34 5 -67 4 l-60 -2 0 30 c0 17 0 34 0 39 0 4 21 7 45 7
60 0 62 19 3 25 -57 7 -62 11 -54 45 7 26 7 27 84 21 49 -3 66 -2 47 3 -16 5
-49 9 -72 10 -24 0 -43 6 -43 11 0 10 -16 12 -37 3z"/>
<path d="M4026 2232 c-3 -5 1 -13 10 -16 26 -10 154 -7 154 4 0 6 -22 10 -49
10 -27 0 -62 3 -79 6 -16 3 -32 2 -36 -4z"/>
<path d="M1795 2200 c3 -5 37 -10 76 -10 39 0 69 4 69 10 0 6 -32 10 -76 10
-47 0 -73 -4 -69 -10z"/>
<path d="M3211 2191 c-7 -5 -21 -33 -31 -62 -22 -63 -42 -73 -65 -30 -8 17
-22 31 -30 31 -20 0 -19 -19 1 -41 20 -22 12 -49 -15 -49 -25 0 -68 -67 -53
-82 18 -18 85 14 102 50 18 37 52 42 73 11 18 -25 86 -50 116 -42 32 8 25 23
-11 23 -20 1 -45 11 -63 26 l-30 25 27 20 c34 25 54 80 38 109 -11 21 -35 26
-59 11z m35 -47 c-3 -9 -6 -20 -6 -24 0 -5 -9 -14 -20 -20 -17 -9 -20 -8 -20
9 0 21 25 51 42 51 5 0 7 -7 4 -16z m-164 -146 c-7 -7 -12 -8 -12 -2 0 14 12
26 19 19 2 -3 -1 -11 -7 -17z"/>
<path d="M6379 2190 c-10 -7 -10 -11 0 -23 13 -16 12 -127 -2 -127 -7 0 -4
-24 10 -72 7 -27 33 -22 33 5 0 26 18 38 98 63 57 18 67 38 25 49 -24 6 -26 8
-10 16 9 6 28 21 42 33 l25 24 -22 6 c-32 8 -45 7 -30 -3 22 -13 -50 -61 -92
-61 -34 0 -36 2 -36 35 0 38 0 38 70 35 67 -2 37 17 -36 23 -34 3 -67 1 -75
-3z m146 -110 c18 0 18 -1 2 -17 -9 -9 -37 -22 -62 -28 l-45 -12 0 28 c0 29
23 41 65 33 11 -2 29 -4 40 -4z"/>
<path d="M1669 2162 c-46 -49 -48 -112 -3 -112 35 0 30 -28 -11 -66 -23 -21
-35 -41 -35 -58 0 -25 3 -27 32 -24 27 2 37 11 55 43 12 22 22 48 22 57 1 11
14 21 34 27 l32 9 -32 1 c-37 1 -39 7 -18 35 18 24 19 56 3 91 -15 33 -46 32
-79 -3z m45 -8 c17 -7 23 -74 7 -74 -26 0 -41 15 -41 39 0 38 7 45 34 35z
m-31 -206 c-3 -16 -12 -28 -19 -28 -20 0 -17 37 3 49 22 12 22 12 16 -21z"/>
<path d="M4046 2175 c-4 -12 6 -15 61 -15 57 0 64 2 53 15 -8 9 -30 15 -60 15
-33 0 -50 -5 -54 -15z"/>
<path d="M4576 2181 c-3 -4 3 -18 14 -31 31 -35 35 -78 11 -110 -27 -38 -36
-77 -21 -95 20 -25 27 -18 34 35 5 35 13 53 26 60 11 6 20 19 20 29 0 10 11
35 25 55 26 38 19 46 -19 20 -23 -14 -25 -14 -42 15 -18 30 -38 39 -48 22z"/>
<path d="M5233 2175 c10 -29 137 -30 137 -1 0 10 -18 13 -70 12 -41 -1 -69 -5
-67 -11z"/>
<path d="M6972 2170 c-8 -13 -8 -20 -2 -20 6 0 13 7 17 15 9 24 -1 27 -15 5z"/>
<path d="M6250 2166 c-16 -10 -32 -11 -48 -5 -33 13 -40 11 -18 -6 18 -13 18
-16 2 -39 -34 -52 -16 -60 33 -15 29 26 35 29 43 15 5 -9 16 -16 23 -16 18 0
20 26 4 36 -8 5 -8 9 1 14 7 4 9 13 6 19 -9 14 -15 13 -46 -3z"/>
<path d="M4293 2148 c34 -12 35 -38 1 -72 -15 -14 -22 -26 -17 -26 16 0 83 67
83 83 0 16 -30 27 -70 26 l-25 -1 28 -10z"/>
<path d="M4767 2154 c-4 -4 -7 -20 -7 -37 0 -23 -6 -31 -30 -40 -75 -28 -28
-102 56 -85 34 6 26 27 -12 30 -47 4 -54 21 -14 38 30 12 45 42 38 76 -3 19
-20 28 -31 18z"/>
<path d="M4840 2091 c-12 -40 -20 -88 -18 -113 3 -41 4 -43 38 -46 20 -2 56 6
83 18 54 24 56 47 2 24 -19 -8 -46 -14 -61 -14 l-27 0 7 68 c3 37 9 82 12 100
12 60 -14 34 -36 -37z"/>
<path d="M1800 2139 c0 -5 11 -9 25 -9 13 0 36 -5 50 -12 19 -9 28 -9 37 0 6
6 10 13 7 15 -10 9 -119 15 -119 6z"/>
<path d="M4223 2134 c-8 -20 13 -42 27 -28 12 12 3 44 -11 44 -5 0 -12 -7 -16
-16z"/>
<path d="M4450 2132 c-46 -3 -90 -19 -90 -34 0 -4 7 -8 15 -8 8 0 15 -8 15
-19 0 -10 -7 -38 -15 -61 -18 -51 -18 -50 -2 -50 16 0 57 82 57 115 0 20 5 25
24 25 l24 0 -18 -37 c-28 -56 -60 -128 -60 -136 0 -4 9 -7 20 -7 11 0 20 6 20
13 0 8 13 40 29 73 16 32 31 67 34 77 4 9 13 17 22 17 24 0 18 27 -7 31 -13 2
-43 3 -68 1z"/>
<path d="M1350 2096 c0 -9 -5 -16 -11 -16 -13 0 -8 -92 6 -97 6 -2 20 5 31 15
11 11 26 22 34 25 13 5 13 6 1 6 -8 1 -23 -6 -33 -16 -24 -21 -32 -12 -23 27
7 30 8 31 25 15 34 -31 36 -11 3 23 -23 23 -33 29 -33 18z"/>
<path d="M2080 2101 c0 -8 132 -11 428 -10 235 0 418 4 407 8 -32 13 -835 14
-835 2z"/>
<path d="M1895 2075 c-27 -7 -61 -17 -75 -23 l-25 -11 30 0 c40 -1 105 15 118
28 17 17 5 19 -48 6z"/>
<path d="M758 2068 c9 -9 15 -9 24 0 9 9 7 12 -12 12 -19 0 -21 -3 -12 -12z"/>
<path d="M801 2076 c2 -2 26 -6 53 -9 30 -3 43 -1 35 4 -13 8 -97 13 -88 5z"/>
<path d="M3690 2065 c0 -16 27 -32 37 -21 7 7 -16 36 -28 36 -5 0 -9 -7 -9
-15z"/>
<path d="M5514 2059 c-13 -14 -27 -19 -46 -17 -24 4 -27 2 -22 -17 3 -14 -3
-29 -19 -46 -29 -29 -41 -62 -32 -89 8 -26 39 -26 77 1 28 20 30 26 26 70 -7
65 12 82 35 34 18 -39 45 -45 72 -18 14 14 18 14 26 2 5 -8 9 -19 9 -25 0 -12
32 -44 43 -44 4 0 4 11 1 26 -11 43 54 75 74 37 11 -22 5 -44 -16 -60 -14 -12
-14 -13 2 -13 56 0 76 56 31 86 -19 12 -37 15 -69 11 -49 -7 -56 0 -56 54 0
32 -17 39 -27 12 -10 -28 -43 -73 -54 -73 -5 0 -9 20 -9 45 0 51 -15 58 -46
24z m-50 -116 c-9 -35 -13 -43 -25 -43 -12 0 -11 12 1 44 13 35 32 34 24 -1z"/>
<path d="M1443 2033 c9 -2 25 -2 35 0 9 3 1 5 -18 5 -19 0 -27 -2 -17 -5z"/>
<path d="M4274 2028 c33 -6 52 -6 60 2 7 7 -8 10 -49 9 l-60 -1 49 -10z"/>
<path d="M2437 2023 c-3 -5 -8 -29 -11 -55 -4 -26 -11 -50 -17 -53 -14 -9 -11
-45 5 -45 7 0 19 14 26 31 18 42 80 99 109 99 23 0 24 -1 6 -20 -10 -11 -13
-20 -7 -20 14 0 62 40 62 52 0 16 -70 8 -102 -12 -43 -26 -48 -25 -48 5 0 24
-14 34 -23 18z"/>
<path d="M2667 2014 c-20 -11 -27 -21 -24 -34 3 -11 -1 -21 -9 -24 -19 -7 -18
-32 2 -40 20 -8 138 -8 158 0 9 3 16 13 16 21 0 13 -9 15 -55 9 -60 -7 -72 5
-27 26 16 8 27 21 27 33 0 26 -49 31 -88 9z"/>
<path d="M1256 1968 c-9 -34 -6 -46 4 -20 5 12 14 22 20 22 6 0 15 -10 20 -22
5 -13 9 -16 9 -8 0 18 -23 50 -36 50 -6 0 -13 -10 -17 -22z"/>
<path d="M4158 1929 c-16 -11 -28 -29 -28 -40 0 -26 13 -24 25 3 6 12 16 23
23 26 19 6 14 -26 -8 -48 -19 -19 -19 -20 -2 -20 19 0 66 82 55 94 -12 11 -38
5 -65 -15z"/>
<path d="M7135 1940 c-7 -11 0 -13 27 -11 9 1 18 -5 20 -13 2 -11 6 -8 15 9
11 24 10 25 -22 25 -19 0 -37 -4 -40 -10z"/>
<path d="M4075 1890 c-4 -6 -11 -43 -16 -81 -9 -70 -9 -71 21 -96 17 -13 30
-28 30 -33 0 -4 -21 -17 -47 -29 -71 -31 -123 -62 -123 -72 0 -5 -7 -9 -16 -9
-8 0 -28 -12 -44 -27 -32 -32 -52 -46 -97 -70 -18 -9 -33 -23 -33 -30 0 -7 -6
-13 -14 -13 -8 0 -22 -7 -31 -17 -14 -14 -18 -14 -25 -2 -12 18 -84 16 -107
-2 -15 -13 -16 -10 -10 39 3 28 2 52 -2 52 -12 0 -21 -37 -21 -82 0 -20 -4
-40 -10 -43 -14 -9 -12 -25 3 -25 6 0 20 -17 30 -37 18 -35 18 -38 1 -50 -10
-7 -23 -13 -28 -14 -13 0 -180 -213 -184 -234 -2 -8 -11 -15 -20 -15 -13 0
-13 -3 4 -16 18 -15 18 -15 -3 -9 -17 5 -23 2 -23 -10 0 -30 -24 -10 -58 48
-18 31 -39 57 -47 57 -8 0 -20 8 -27 19 -22 31 -82 56 -125 52 -25 -2 -13 -19
35 -50 58 -37 86 -78 108 -156 27 -97 28 -121 7 -142 -22 -24 -57 -85 -55 -95
1 -5 -3 -8 -8 -8 -6 0 -18 -16 -27 -35 -9 -19 -20 -35 -25 -35 -4 0 -15 -15
-24 -32 -9 -18 -33 -53 -53 -78 -21 -25 -50 -71 -66 -103 -16 -31 -34 -62 -42
-68 -7 -7 -13 -16 -13 -21 0 -6 -13 -27 -28 -47 -16 -20 -39 -56 -51 -81 -12
-25 -42 -67 -67 -94 -25 -26 -49 -59 -54 -72 l-10 -24 460 0 460 0 11 28 c6
15 16 36 21 46 6 11 12 40 15 65 2 25 8 57 14 71 10 26 49 50 81 50 10 0 18 6
18 14 0 10 21 13 98 12 71 -1 96 -4 95 -13 -2 -7 8 -15 22 -19 14 -3 25 -11
25 -16 0 -6 6 -5 15 2 10 9 15 9 16 1 5 -39 16 -51 48 -51 20 0 30 6 34 20 3
11 14 20 24 20 26 0 41 51 32 110 -12 79 -33 150 -46 150 -15 0 -17 19 -5 38
7 10 28 10 103 2 101 -12 339 -4 339 11 0 10 1 10 -195 12 -139 2 -154 4 -197
26 -30 17 -53 38 -68 66 -21 38 -22 45 -10 81 29 86 85 142 165 161 47 11 51
11 68 -9 13 -15 30 -22 59 -22 56 -1 58 17 6 50 -49 31 -158 45 -205 25 -16
-6 -39 -13 -53 -16 -14 -3 -26 -9 -28 -15 -5 -15 -29 -12 -29 5 0 8 4 12 9 9
4 -3 8 0 8 5 0 6 9 11 21 11 11 0 18 4 15 8 -3 5 11 16 30 26 24 11 34 21 30
31 -4 10 1 15 15 15 11 0 26 6 34 13 30 29 76 62 85 62 5 0 15 8 23 19 13 17
14 17 30 -8 15 -22 25 -26 62 -26 42 0 45 2 45 28 0 15 9 42 20 60 16 25 25
32 40 27 11 -4 20 -2 20 4 0 6 5 11 11 11 6 0 8 -7 5 -17 -6 -16 -6 -16 12 0
26 24 52 22 52 -4 0 -28 -41 -98 -62 -105 -9 -3 -20 -13 -23 -23 -3 -10 -14
-26 -25 -36 -33 -30 -25 -51 24 -64 49 -12 268 -13 356 -2 54 7 54 8 27 19
-21 9 -69 10 -168 6 -165 -8 -170 -4 -89 78 59 61 84 109 76 146 -4 15 -3 22
1 16 4 -6 19 -10 33 -8 109 13 200 2 226 -27 9 -10 21 -19 26 -19 6 0 29 -20
54 -45 24 -25 47 -45 51 -45 10 0 63 -66 63 -78 0 -5 11 -19 24 -31 13 -12 26
-33 29 -46 4 -23 1 -24 -51 -27 -49 -3 -56 -6 -63 -28 -4 -14 -17 -58 -28 -97
-23 -79 -47 -101 -36 -33 7 42 0 80 -15 80 -5 0 -7 -13 -4 -30 7 -34 -23 -217
-37 -226 -12 -7 -12 -24 0 -24 5 0 17 25 26 55 10 30 26 65 36 76 10 12 26 44
35 72 9 29 26 73 37 100 18 42 24 47 51 47 32 -1 94 -29 66 -30 -17 -1 -77
-80 -61 -80 20 0 11 -36 -14 -60 -14 -13 -25 -29 -25 -37 0 -19 48 5 55 28 6
19 49 34 67 23 7 -4 8 -3 4 4 -4 7 -2 12 4 12 6 0 10 -9 8 -19 -2 -10 6 -28
16 -40 19 -21 19 -21 -2 -21 -22 0 -30 -14 -13 -24 4 -3 6 -37 3 -76 -4 -59
-2 -70 11 -70 8 0 17 6 20 13 2 6 8 8 13 4 5 -5 0 -16 -12 -26 -13 -10 -20
-27 -20 -44 1 -15 -1 -27 -5 -27 -4 0 -10 -17 -14 -37 -3 -21 -15 -67 -26
-102 -10 -35 -19 -86 -20 -115 -1 -28 -4 -62 -8 -76 -4 -14 -5 -37 -3 -52 l4
-28 166 0 165 0 36 38 c20 21 52 51 72 68 24 21 46 56 69 110 31 74 33 86 33
197 l0 118 30 21 c21 15 32 18 35 10 8 -24 21 -11 20 21 -1 17 2 51 7 75 6 34
5 42 -7 42 -18 0 -38 -41 -38 -78 -1 -27 -44 -70 -54 -54 -9 15 7 94 20 99 21
8 17 23 -6 23 -11 0 -20 5 -20 10 0 6 6 10 13 10 9 0 9 2 -1 9 -8 4 -15 21
-17 37 -3 34 -63 205 -76 219 -5 5 -9 17 -9 26 0 9 -11 50 -25 91 -14 40 -30
93 -36 118 -11 50 -61 141 -92 171 -21 19 -21 19 26 19 33 0 47 4 47 14 0 15
-42 26 -96 26 -18 0 -36 5 -39 10 -3 6 -16 10 -28 11 -42 1 13 17 93 27 l75 9
-92 2 c-50 0 -103 5 -117 11 -24 9 -26 15 -26 65 0 69 -16 72 -56 10 -27 -44
-47 -55 -59 -35 -3 5 -12 7 -20 4 -17 -7 -55 30 -55 55 0 29 -26 47 -46 30
-14 -12 -19 -10 -38 12 -11 14 -30 29 -41 33 -18 6 -16 9 13 23 41 20 41 35 0
33 -65 -4 -78 -1 -78 19 0 21 16 37 45 43 19 5 19 5 2 13 -11 4 -30 2 -45 -5
-15 -7 -40 -13 -57 -14 -30 -2 -30 -1 -26 42 4 48 -13 78 -29 52 -5 -8 -10
-27 -10 -42 0 -36 -10 -58 -26 -58 -10 0 -12 12 -7 49 5 44 3 50 -16 56 -22 7
-71 -17 -71 -35 0 -19 24 -22 36 -5 18 25 27 14 15 -17 -10 -28 -36 -42 -54
-31 -7 4 -45 6 -86 5 -63 -2 -78 1 -96 18 -15 14 -21 29 -17 45 3 20 0 25 -16
25 -44 0 -72 -30 -39 -43 10 -4 10 -6 0 -6 -16 -1 -17 -41 -1 -41 6 0 8 -3 5
-6 -4 -4 -13 -1 -22 6 -16 13 -95 6 -105 -9 -8 -14 -45 -17 -43 -4 4 17 -27
25 -33 8 -4 -8 -17 -15 -30 -15 -15 0 -24 -6 -24 -15 0 -8 5 -14 11 -12 6 1
13 -3 16 -10 2 -6 -4 -10 -14 -8 -10 1 -22 -1 -28 -5 -5 -4 -18 -10 -28 -13
-16 -6 -17 -2 -11 27 8 44 -19 61 -82 51 -40 -6 -44 -4 -44 15 0 11 6 29 12
40 9 14 10 22 1 31 -8 8 -13 8 -18 -1z m102 -117 c4 -10 -2 -23 -16 -35 -29
-23 -33 -23 -61 2 -23 20 -23 21 -4 35 26 20 73 19 81 -2z m-539 -381 c16 -11
8 -34 -19 -50 -16 -10 -24 -10 -35 -1 -21 17 -17 38 9 49 28 11 29 11 45 2z
m416 -527 c-4 -8 -11 -12 -16 -9 -6 4 -5 10 3 15 19 12 19 11 13 -6z m-51 -50
c-3 -9 -8 -14 -10 -11 -3 3 -2 9 2 15 9 16 15 13 8 -4z m1285 -23 c2 -7 -4
-15 -13 -18 -20 -8 -27 -1 -19 20 7 18 25 17 32 -2z"/>
<path d="M7327 1893 c-16 -15 -5 -33 19 -33 14 0 23 -4 19 -10 -3 -5 -24 -10
-46 -10 -31 0 -45 -6 -64 -27 -24 -27 -24 -27 -25 -5 0 12 -4 22 -10 22 -5 0
-10 -22 -10 -50 0 -58 14 -65 34 -16 14 33 55 71 65 60 3 -3 -3 -13 -14 -21
-20 -16 -20 -16 0 -8 11 4 31 11 45 16 14 5 31 19 38 30 12 18 11 21 -8 26
-13 3 -19 11 -16 19 5 14 -15 20 -27 7z"/>
<path d="M3780 1870 c-14 -10 -21 -22 -17 -26 4 -4 13 -2 19 4 7 7 20 12 29
12 23 0 13 -41 -13 -47 -26 -7 -22 -23 5 -23 28 0 64 57 54 84 -9 22 -46 20
-77 -4z"/>
<path d="M6956 1853 c-11 -63 -17 -73 -36 -73 -10 0 -26 10 -34 22 -12 17 -16
18 -16 6 0 -19 18 -35 45 -40 14 -2 22 -14 26 -38 l6 -35 2 38 c0 20 5 37 11
37 5 0 7 7 4 15 -4 8 1 33 10 55 19 49 19 50 2 50 -8 0 -16 -15 -20 -37z"/>
<path d="M7065 1860 c-11 -5 -15 -9 -9 -9 7 -1 8 -16 3 -48 -4 -27 -8 -55 -8
-63 -1 -31 16 14 23 63 7 46 8 47 43 47 20 0 34 2 32 4 -11 9 -66 13 -84 6z"/>
<path d="M825 1840 c-3 -6 1 -7 9 -4 18 7 21 14 7 14 -6 0 -13 -4 -16 -10z"/>
<path d="M7012 1833 c0 -10 -3 -40 -6 -68 -4 -34 -3 -45 4 -35 5 8 10 25 10
38 0 12 4 22 8 22 5 0 8 14 8 30 0 17 -5 30 -12 30 -7 0 -13 -8 -12 -17z"/>
<path d="M5545 1821 c-3 -12 -23 -25 -48 -33 -33 -10 -43 -18 -45 -39 -2 -14
4 -31 13 -39 13 -11 20 -9 45 15 l29 28 20 -46 c11 -26 25 -47 31 -47 16 0 12
19 -16 76 -20 42 -23 57 -15 73 13 24 14 31 2 31 -5 0 -12 -9 -16 -19z m-35
-50 c0 -17 -12 -41 -21 -41 -10 0 -12 33 -2 43 9 10 23 9 23 -2z"/>
<path d="M3660 1812 c-46 -23 -59 -64 -33 -101 25 -32 52 -37 92 -16 27 14 31
21 31 58 0 23 -4 47 -8 53 -14 21 -47 24 -82 6z m61 -26 c10 -20 8 -30 -10
-55 -18 -25 -26 -29 -44 -22 -33 12 -31 71 3 88 34 17 39 16 51 -11z"/>
<path d="M5388 1822 c-22 -4 -23 -22 -4 -67 16 -36 12 -47 -11 -38 -11 4 -14
1 -11 -8 2 -8 16 -15 30 -17 38 -5 46 29 18 75 -23 39 -19 54 10 35 28 -17 46
-16 31 2 -14 16 -39 24 -63 18z"/>
<path d="M5215 1811 c-71 -22 -90 -82 -36 -114 16 -9 34 -17 40 -17 19 0 12
27 -9 33 -45 12 -32 87 14 87 22 0 25 -5 28 -42 3 -38 6 -43 28 -45 29 -3 64
23 74 55 6 17 2 24 -16 31 -35 13 -101 19 -123 12z m93 -30 c21 -13 10 -46
-16 -49 -19 -3 -22 1 -22 27 0 31 13 39 38 22z"/>
<path d="M585 1801 c-53 -13 -76 -31 -73 -54 2 -18 10 -22 43 -23 24 -1 29 0
13 3 -47 7 -31 63 18 63 13 0 26 5 29 10 3 6 5 10 3 9 -2 -1 -16 -4 -33 -8z"/>
<path d="M1734 1794 c3 -8 1 -25 -6 -37 -10 -20 -9 -21 5 -9 13 11 16 10 22
-7 3 -12 13 -21 22 -21 14 0 14 2 0 18 -10 10 -17 28 -17 39 0 12 -7 24 -16
27 -12 5 -15 2 -10 -10z"/>
<path d="M3933 1803 c9 -2 23 -2 30 0 6 3 -1 5 -18 5 -16 0 -22 -2 -12 -5z"/>
<path d="M2092 1784 c-10 -18 -4 -64 9 -64 5 0 9 18 9 40 0 43 -4 49 -18 24z"/>
<path d="M2170 1785 c0 -8 -4 -15 -9 -15 -5 0 -11 -7 -15 -15 -8 -21 0 -19 24
7 22 24 26 38 10 38 -5 0 -10 -7 -10 -15z"/>
<path d="M3866 1784 c-4 -9 -5 -18 -4 -19 2 -1 28 1 58 5 l55 7 -48 2 c-29 0
-46 5 -42 11 3 6 2 10 -3 10 -6 0 -13 -7 -16 -16z"/>
<path d="M6486 1768 c-12 -78 -13 -118 -5 -118 5 0 9 17 10 38 l1 37 15 -37
c23 -56 39 -48 47 23 8 69 23 69 28 0 2 -26 9 -46 17 -49 11 -4 12 6 6 49 -7
51 -23 89 -36 89 -4 0 -12 -21 -19 -47 -19 -70 -27 -72 -40 -9 -6 31 -13 56
-15 56 -2 0 -6 -15 -9 -32z"/>
<path d="M1978 1784 c-7 -13 18 -79 25 -67 16 26 26 63 17 63 -6 0 -10 -8 -10
-17 -1 -14 -4 -13 -14 6 -7 13 -15 20 -18 15z"/>
<path d="M2358 1754 c5 -41 7 -40 15 4 5 22 3 32 -6 32 -9 0 -12 -11 -9 -36z"/>
<path d="M637 1762 c-30 -19 -32 -39 -4 -56 25 -16 51 4 55 43 4 36 -9 39 -51
13z m33 -32 c0 -5 -9 -10 -20 -10 -11 0 -20 5 -20 10 0 6 9 10 20 10 11 0 20
-4 20 -10z"/>
<path d="M825 1770 c-3 -5 -12 -7 -19 -4 -9 4 -13 -4 -12 -24 1 -24 5 -29 29
-29 28 0 37 12 15 20 -10 4 -10 7 0 18 6 7 12 17 12 21 0 11 -18 10 -25 -2z"/>
<path d="M1796 1751 c10 -19 26 -36 34 -38 13 -4 13 -3 1 5 -8 6 -11 17 -7 28
4 10 4 15 0 11 -4 -4 -16 1 -28 10 l-20 18 20 -34z"/>
<path d="M2243 1773 c-18 -7 -16 -23 2 -23 8 0 15 7 15 15 0 8 -1 15 -2 14 -2
0 -9 -3 -15 -6z"/>
<path d="M728 1763 c-10 -3 -18 -10 -18 -16 0 -7 -3 -23 -7 -36 -5 -21 -4 -22
16 -12 11 7 21 18 21 26 0 7 6 15 13 18 18 7 -4 24 -25 20z"/>
<path d="M2796 1749 c-3 -13 -7 -37 -10 -54 -15 -87 -20 -101 -40 -118 -18
-16 -18 -18 -3 -13 10 3 28 6 39 6 12 0 18 5 15 13 -3 7 -1 51 4 97 8 81 5
118 -5 69z"/>
<path d="M6660 1741 c-20 -5 -26 -14 -28 -44 -3 -32 0 -38 23 -47 68 -26 129
-2 103 39 -19 31 -56 27 -71 -8 -10 -24 -16 -27 -30 -20 -26 15 -21 54 8 67
14 6 33 9 42 6 15 -5 16 -4 3 5 -17 12 -15 12 -50 2z m90 -72 c0 -15 -4 -19
-16 -15 -9 3 -20 6 -25 6 -5 0 -9 7 -9 15 0 9 9 15 25 15 19 0 25 -5 25 -21z"/>
<path d="M1333 1683 c-29 -30 -43 -54 -40 -65 3 -10 0 -18 -7 -18 -7 0 -13 -7
-13 -14 0 -24 -44 -81 -77 -100 -28 -17 -29 -19 -11 -26 11 -4 -27 -5 -85 -2
-97 4 -107 2 -127 -17 -29 -27 -29 -37 -2 -52 36 -19 101 -6 134 27 26 25 30
27 33 11 2 -10 -4 -27 -14 -38 -18 -20 -18 -20 9 -14 30 8 34 -1 12 -28 -7
-11 -11 -26 -8 -34 5 -12 1 -14 -15 -9 -27 9 -50 -3 -31 -15 24 -15 -9 -24
-75 -21 -24 2 -27 5 -23 25 4 12 2 29 -3 36 -7 12 -12 12 -34 -3 -15 -9 -24
-21 -22 -25 3 -4 -6 -6 -19 -3 -17 3 -27 -1 -31 -12 -3 -9 -22 -20 -43 -26
-39 -10 -65 -48 -50 -72 7 -10 9 -10 9 0 0 14 9 15 30 2 12 -8 11 -14 -8 -40
-13 -17 -20 -35 -17 -40 3 -6 -2 -10 -13 -10 -27 0 -72 -71 -71 -112 l1 -33 8
30 c5 24 8 26 14 13 4 -9 3 -25 -3 -36 -7 -13 -7 -22 -1 -24 6 -2 2 -30 -10
-68 -22 -71 -25 -99 -7 -60 l11 25 4 -27 c2 -16 8 -28 15 -28 8 0 8 -3 -1 -12
-16 -16 -15 -28 3 -28 8 0 15 -6 15 -12 0 -10 2 -10 9 0 6 10 10 10 21 -3 8
-9 8 -15 2 -15 -7 0 -10 -18 -8 -45 2 -43 2 -44 -16 -28 -10 9 -21 13 -24 10
-10 -10 5 -39 16 -32 5 3 10 -1 10 -9 0 -9 -6 -16 -12 -16 -7 0 -5 -5 5 -11 9
-5 17 -16 17 -23 0 -17 81 -29 112 -16 13 5 19 9 14 9 -17 1 28 30 47 31 19 0
24 20 5 20 -8 0 -8 3 -2 9 11 12 76 14 124 5 31 -6 34 -5 22 9 -8 9 -22 19
-33 22 -34 11 -20 20 34 21 204 4 262 2 273 -9 4 -4 22 -7 39 -7 40 0 95 -27
95 -46 0 -8 -5 -14 -11 -14 -20 0 -104 21 -123 31 -32 18 -39 -2 -27 -78 16
-97 34 -163 43 -163 4 0 10 17 14 38 4 26 13 41 30 49 21 10 26 7 49 -22 14
-19 33 -36 43 -39 10 -4 54 5 98 20 88 29 212 43 382 44 62 0 112 4 112 9 0
27 -34 41 -103 42 -263 2 -267 3 -286 27 -9 13 -26 40 -37 60 -10 21 -23 40
-29 44 -6 5 -5 8 3 8 6 0 12 4 12 10 0 6 -10 5 -25 -2 -30 -13 -33 -11 -41 30
l-6 31 115 -2 c100 -2 117 0 136 17 28 26 18 36 -37 36 -76 1 -114 15 -164 61
-43 41 -47 48 -53 109 -5 52 -4 69 8 78 22 18 40 7 97 -61 29 -34 67 -72 86
-84 35 -24 64 -30 64 -13 0 6 12 10 27 10 24 0 25 2 12 18 -8 9 -24 34 -34 54
-16 31 -22 35 -37 27 -16 -8 -20 -5 -29 20 -6 16 -17 32 -25 35 -8 3 -14 12
-14 21 0 22 176 22 208 0 18 -14 21 -14 16 -1 -7 18 23 35 68 39 45 3 51 33 8
42 -16 4 -28 10 -25 15 3 5 -8 17 -25 26 -16 10 -30 26 -30 36 0 15 -7 16 -50
11 -50 -6 -50 -6 -51 23 -1 16 -1 49 1 72 2 46 -22 82 -55 82 -17 0 -20 16 -5
25 6 4 1 14 -12 25 -13 10 -19 22 -15 27 5 4 13 0 18 -10 6 -9 14 -17 19 -17
16 0 11 27 -6 34 -9 3 -12 11 -8 18 4 7 3 10 -1 5 -5 -4 -17 0 -27 10 -10 9
-21 13 -26 9 -4 -4 1 -13 11 -21 16 -12 16 -13 -3 -18 -11 -3 -23 -1 -26 5 -3
5 -25 8 -48 7 -69 -4 -86 0 -86 19 -1 34 -53 79 -106 91 -30 7 -62 23 -75 37
-12 13 -32 25 -43 25 -17 1 -18 2 -3 6 9 2 15 9 12 14 -4 5 -2 9 3 9 6 0 12 7
16 15 4 11 -2 15 -21 15 -19 0 -40 -14 -70 -47z m124 -187 c15 -9 46 -29 68
-46 22 -16 67 -48 100 -70 32 -23 62 -44 65 -49 3 -5 19 -15 36 -24 17 -9 34
-23 37 -31 3 -8 16 -16 29 -18 22 -3 49 -50 36 -63 -12 -12 -89 18 -84 32 7
17 1 16 -27 -2 -18 -12 -31 -12 -62 -4 -22 6 -44 17 -50 24 -5 7 -19 15 -30
17 -11 2 -21 12 -23 23 -2 11 -10 27 -18 36 -11 12 -11 18 -2 27 14 14 -12 39
-52 48 -14 3 -33 9 -42 15 -10 5 -25 9 -33 9 -8 0 -15 7 -15 16 0 9 -8 14 -17
13 -49 -4 -62 24 -19 41 13 5 27 13 30 19 8 12 35 7 73 -13z m-477 -186 c0 -5
-2 -10 -4 -10 -3 0 -8 5 -11 10 -3 6 -1 10 4 10 6 0 11 -4 11 -10z m440 -87
c21 -21 53 -49 73 -63 27 -18 37 -32 37 -52 0 -16 -4 -28 -10 -28 -6 0 -10
-30 -10 -69 l0 -69 -29 26 c-47 44 -62 54 -68 48 -8 -7 -39 10 -74 42 -40 35
-40 97 -1 158 15 24 31 43 36 44 6 0 26 -17 46 -37z m-550 3 c0 -3 -4 -8 -10
-11 -5 -3 -10 -1 -10 4 0 6 5 11 10 11 6 0 10 -2 10 -4z m360 -124 c0 -12 -38
-31 -63 -32 -21 0 -30 -6 -34 -21 -5 -19 -12 -20 -92 -18 -47 1 -90 4 -94 6
-5 3 9 14 29 25 20 11 42 25 49 31 11 12 205 20 205 9z m117 -166 c3 -3 3 -12
0 -21 -9 -21 -85 -21 -94 1 -3 9 0 20 8 25 13 9 76 5 86 -5z m83 -121 c0 -8
-7 -15 -15 -15 -8 0 -15 -4 -15 -10 0 -5 -7 -10 -15 -10 -16 0 -19 9 -9 34 8
21 54 21 54 1z m68 3 c7 -7 12 -34 12 -61 0 -43 -2 -47 -15 -33 -8 8 -15 20
-15 27 0 6 -7 17 -16 24 -11 8 -14 19 -10 33 8 24 26 28 44 10z m-618 -118 c0
-5 -5 -12 -11 -16 -8 -4 -7 -9 2 -15 7 -4 11 -10 9 -12 -3 -2 -18 4 -35 14
-29 19 -29 19 -8 25 13 4 20 10 17 15 -3 5 2 6 10 3 9 -3 16 -10 16 -14z m27
-116 c-3 -3 -12 -4 -19 -1 -8 3 -5 6 6 6 11 1 17 -2 13 -5z m753 -29 c3 -1 23
-7 45 -15 38 -13 39 -14 15 -21 -14 -4 -40 -7 -57 -8 -30 -1 -33 2 -33 30 0
22 3 28 13 22 6 -4 14 -8 17 -8z"/>
<path d="M5867 1714 c-15 -15 -6 -25 37 -44 75 -32 67 -41 -33 -33 -66 4 -91
3 -91 -6 0 -7 25 -11 73 -12 39 -1 86 -4 102 -8 l30 -7 -44 -32 c-30 -22 -38
-32 -25 -31 10 0 30 8 44 17 14 9 43 28 63 41 21 13 36 28 35 33 -3 7 -35 23
-174 84 -5 3 -13 1 -17 -2z"/>
<path d="M2611 1691 c-7 -13 -28 -37 -47 -53 -19 -17 -32 -34 -29 -38 3 -5 23
9 45 31 l39 39 17 -35 c9 -19 20 -35 25 -35 5 0 9 -7 9 -15 0 -8 5 -15 10 -15
11 0 -6 40 -22 51 -4 3 -14 25 -21 50 -13 43 -13 44 -26 20z"/>
<path d="M2890 1685 c-20 -37 3 -57 72 -61 l53 -3 -48 8 c-26 4 -54 14 -63 23
-15 15 -14 17 13 31 21 11 34 12 47 5 14 -8 17 -7 14 3 -3 8 -20 15 -39 17
-29 2 -37 -2 -49 -23z"/>
<path d="M7375 1701 c-6 -6 -39 -12 -75 -14 l-65 -3 78 -2 c63 -2 77 1 77 13
0 18 -3 18 -15 6z"/>
<path d="M7055 1670 l-60 -7 50 0 c28 0 82 3 120 7 l70 7 -60 0 c-33 0 -87 -3
-120 -7z"/>
<path d="M2207 1651 c6 -23 -14 -38 -30 -22 -14 14 -44 14 -52 1 -3 -6 1 -7 9
-4 20 8 20 3 -4 -81 -11 -38 -20 -79 -20 -90 1 -20 1 -20 15 -1 8 10 12 22 10
26 -8 14 17 83 39 107 20 21 24 22 36 9 15 -19 -2 -46 -28 -46 -12 0 -13 -3
-4 -12 18 -18 14 -46 -9 -69 l-21 -21 21 7 c12 4 21 2 21 -4 0 -6 4 -11 9 -11
5 0 7 10 5 23 -2 12 -2 16 2 10 3 -7 12 -13 20 -13 9 0 13 4 10 9 -3 4 3 16
14 26 25 23 25 30 1 32 -11 1 -21 -6 -24 -18 -7 -27 -27 -24 -27 6 0 14 8 29
20 35 25 13 26 45 3 59 -15 9 -16 12 -4 20 8 5 11 16 8 25 -9 23 -26 20 -20
-3z"/>
<path d="M1810 1628 c17 -17 33 -28 36 -25 7 7 -44 57 -58 57 -4 0 5 -14 22
-32z"/>
<path d="M1901 1647 c-9 -12 -8 -16 5 -21 22 -8 28 -1 17 19 -8 14 -11 14 -22
2z"/>
<path d="M1975 1634 c0 -28 -1 -28 19 -8 15 14 18 14 36 -8 14 -16 19 -32 16
-53 l-5 -30 16 31 c14 30 14 32 -12 60 -35 38 -70 42 -70 8z"/>
<path d="M2367 1640 c-6 -23 15 -43 40 -37 13 4 12 5 -6 6 -19 1 -23 5 -19 26
6 29 -7 34 -15 5z"/>
<path d="M6903 1653 c15 -2 39 -2 55 0 15 2 2 4 -28 4 -30 0 -43 -2 -27 -4z"/>
<path d="M2071 1634 c0 -11 3 -14 6 -6 3 7 2 16 -1 19 -3 4 -6 -2 -5 -13z"/>
<path d="M2250 1631 c0 -5 9 -7 20 -4 11 3 20 7 20 9 0 2 -9 4 -20 4 -11 0
-20 -4 -20 -9z"/>
<path d="M6962 1571 c-21 -37 -21 -40 -5 -43 28 -6 83 33 83 60 0 32 -16 27
-23 -8 -4 -18 -13 -30 -22 -30 -18 0 -19 14 -5 41 20 37 -7 18 -28 -20z"/>
<path d="M7085 1590 c-3 -5 1 -10 9 -10 9 0 16 5 16 10 0 6 -4 10 -9 10 -6 0
-13 -4 -16 -10z"/>
<path d="M7130 1575 c-7 -17 -8 -46 -3 -74 l8 -46 5 70 c7 80 5 89 -10 50z"/>
<path d="M7270 1590 c0 -5 4 -10 9 -10 6 0 13 5 16 10 3 6 -1 10 -9 10 -9 0
-16 -4 -16 -10z"/>
<path d="M6904 1566 c5 -20 1 -27 -21 -38 -21 -10 -28 -20 -28 -42 0 -16 5
-31 11 -33 15 -5 50 28 58 55 9 27 -2 82 -16 82 -6 0 -8 -10 -4 -24z m-4 -62
c0 -13 -21 -44 -30 -44 -11 0 -14 33 -3 43 8 8 33 9 33 1z"/>
<path d="M2320 1570 c-11 -7 4 -10 48 -10 40 0 61 4 57 10 -8 13 -85 13 -105
0z"/>
<path d="M2491 1573 c-1 -6 -4 -20 -7 -30 -5 -17 -5 -17 6 0 6 10 9 23 6 30
-3 9 -5 9 -5 0z"/>
<path d="M3648 1548 c-16 -5 -28 -13 -28 -18 0 -5 -3 -15 -6 -24 -10 -26 12
-18 24 9 6 14 16 25 22 25 17 0 11 -29 -10 -50 -27 -27 -17 -40 31 -40 24 0
38 4 34 10 -3 6 -15 10 -25 10 -17 0 -18 2 -4 28 29 55 17 71 -38 50z"/>
<path d="M1907 1534 c-12 -12 -8 -49 8 -70 14 -18 14 -18 14 6 -1 37 -13 73
-22 64z"/>
<path d="M2315 1530 c7 -11 45 -33 45 -26 0 2 -7 12 -16 20 -17 18 -39 22 -29
6z"/>
<path d="M2427 1520 c3 -13 0 -20 -8 -20 -10 0 -11 -3 -3 -8 7 -4 14 -16 17
-27 2 -11 5 -1 6 22 0 23 -3 44 -8 47 -5 4 -7 -3 -4 -14z"/>
<path d="M2150 1520 c0 -5 5 -10 10 -10 6 0 10 5 10 10 0 6 -4 10 -10 10 -5 0
-10 -4 -10 -10z"/>
<path d="M6095 1504 c-9 -15 -20 -44 -22 -65 l-5 -38 -47 6 c-36 4 -57 0 -89
-16 -23 -12 -42 -28 -42 -36 0 -25 70 -95 95 -95 30 0 69 33 85 71 l14 32 20
-25 c31 -38 98 -68 151 -68 33 0 45 4 45 15 0 11 -12 15 -49 15 -107 0 -156
50 -133 136 23 86 11 120 -23 68z m-60 -123 c3 -5 -9 -21 -27 -34 -27 -22 -30
-28 -19 -41 21 -25 -14 -21 -40 5 -29 29 -21 62 16 70 46 10 63 10 70 0z"/>
<path d="M2970 1500 l-35 -7 35 -2 c19 0 42 4 50 9 13 9 13 10 0 9 -8 -1 -31
-5 -50 -9z"/>
<path d="M2010 1484 c8 -10 19 -22 25 -26 5 -4 3 -14 -7 -25 -16 -18 -33 -63
-25 -63 8 0 54 83 61 110 6 21 5 22 -4 7 -11 -17 -13 -17 -38 -1 -26 17 -27
17 -12 -2z"/>
<path d="M2308 1493 c7 -3 16 -2 19 1 4 3 -2 6 -13 5 -11 0 -14 -3 -6 -6z"/>
<path d="M5732 1490 c-43 -10 -52 -20 -19 -20 25 0 26 -2 20 -32 -3 -18 -11
-36 -16 -40 -7 -4 -6 -12 2 -22 10 -11 12 -31 7 -66 -5 -41 -4 -50 8 -50 11 0
16 15 18 58 l3 57 53 3 c66 4 68 22 2 22 -48 0 -50 1 -50 29 0 46 19 54 100
44 39 -5 73 -6 76 -2 8 14 -158 29 -204 19z"/>
<path d="M2374 1474 c-18 -14 -18 -15 4 -4 12 6 22 13 22 15 0 8 -5 6 -26 -11z"/>
<path d="M3253 1483 c-7 -2 -13 -14 -13 -26 l0 -21 20 22 c22 24 35 27 44 13
10 -16 -5 -39 -30 -45 -26 -7 -33 -26 -10 -26 8 0 20 -2 28 -5 8 -3 17 8 26
35 6 22 12 44 12 50 0 10 -55 13 -77 3z"/>
<path d="M6243 1464 c-38 -22 -43 -29 -43 -63 0 -71 63 -102 125 -61 39 26 41
25 57 -7 14 -29 58 -46 95 -36 13 3 36 21 50 40 l26 34 24 -26 c24 -26 43 -26
43 0 0 8 -9 19 -20 25 -28 15 -44 58 -29 76 13 16 1 18 -20 5 -10 -6 -25 -4
-42 5 -35 18 -67 18 -101 0 -26 -14 -28 -13 -28 4 0 38 -77 41 -137 4z m107
-3 c0 -10 -7 -24 -15 -31 -8 -7 -15 -19 -15 -26 0 -20 27 -17 39 4 9 15 10 15
11 1 0 -9 -23 -31 -52 -48 -49 -31 -53 -32 -65 -15 -19 26 -16 88 5 106 37 33
92 38 92 9z m158 -59 c6 -76 -44 -117 -90 -75 -26 23 -22 62 9 95 19 20 36 28
53 26 22 -3 25 -8 28 -46z"/>
<path d="M6770 1455 c0 -14 -5 -25 -11 -25 -6 0 -8 -8 -5 -18 4 -13 -5 -31
-29 -56 -49 -52 -70 -32 -44 42 7 22 18 32 37 35 24 4 23 4 -6 6 -55 2 -72
-13 -72 -64 0 -24 3 -50 6 -59 12 -31 82 -11 109 31 20 30 43 29 51 -2 3 -14
19 -34 35 -46 30 -21 41 -11 13 12 -28 23 -56 90 -49 116 6 24 -8 53 -26 53
-5 0 -9 -11 -9 -25z"/>
<path d="M2604 1412 c-17 -15 -46 -40 -64 -56 l-34 -30 54 -18 c30 -10 59 -23
64 -28 15 -15 56 -12 56 4 0 8 -7 22 -16 31 -9 9 -20 40 -23 70 l-6 54 -31
-27z m42 -119 c-1 -1 -23 6 -49 15 -56 20 -61 41 -15 71 l33 20 17 -52 c9 -28
16 -53 14 -54z"/>
<path d="M2743 1433 c20 -5 20 -4 0 -135 -3 -22 -1 -38 4 -38 6 0 13 29 15 63
3 36 13 76 23 90 l17 27 -38 -1 c-22 -1 -31 -3 -21 -6z"/>
<path d="M3119 1409 c-33 -35 -36 -55 -13 -87 17 -24 55 -29 98 -12 53 20 23
130 -35 130 -12 0 -34 -14 -50 -31z m75 -5 c8 -21 -3 -82 -16 -90 -5 -3 -20
-3 -34 0 -19 5 -24 13 -24 36 0 17 6 39 12 50 15 24 53 26 62 4z"/>
<path d="M3400 1410 c0 -5 11 -10 25 -10 14 0 25 5 25 10 0 6 -11 10 -25 10
-14 0 -25 -4 -25 -10z"/>
<path d="M3345 1400 c-3 -5 -2 -10 4 -10 5 0 13 5 16 10 3 6 2 10 -4 10 -5 0
-13 -4 -16 -10z"/>
<path d="M2860 1370 c-12 -8 -12 -10 -1 -10 11 0 12 -12 7 -52 -6 -53 -6 -53
9 -20 10 24 20 32 40 32 15 0 25 6 25 14 0 8 7 17 16 20 8 3 12 10 9 16 -8 13
-85 13 -105 0z m80 -4 c0 -2 -11 -11 -25 -20 -24 -16 -25 -16 -25 4 0 15 7 20
25 20 14 0 25 -2 25 -4z"/>
<path d="M3358 1373 c17 -2 47 -2 65 0 17 2 3 4 -33 4 -36 0 -50 -2 -32 -4z"/>
<path d="M1009 1353 c-13 -16 -12 -17 4 -4 9 7 17 15 17 17 0 8 -8 3 -21 -13z"/>
<path d="M1030 1330 c-8 -5 -12 -11 -9 -14 2 -3 11 -1 19 4 8 5 12 11 9 14 -2
3 -11 1 -19 -4z"/>
<path d="M2948 1291 c-7 -10 -22 -21 -33 -24 -16 -4 -15 -5 6 -6 23 -1 59 25
59 42 0 14 -19 7 -32 -12z"/>
<path d="M6533 1303 c9 -2 23 -2 30 0 6 3 -1 5 -18 5 -16 0 -22 -2 -12 -5z"/>
<path d="M1010 1290 c-8 -5 -10 -10 -5 -10 6 0 17 5 25 10 8 5 11 10 5 10 -5
0 -17 -5 -25 -10z"/>
<path d="M6987 1254 c-13 -13 13 -42 33 -37 25 7 26 19 1 33 -23 12 -26 12
-34 4z"/>
<path d="M6890 1230 c0 -5 5 -10 10 -10 6 0 10 5 10 10 0 6 -4 10 -10 10 -5 0
-10 -4 -10 -10z"/>
<path d="M7085 1193 c-7 -33 -8 -33 -74 -34 -36 0 -75 -2 -86 -5 -24 -5 -95
25 -95 39 0 6 -2 8 -5 5 -3 -3 0 -18 6 -34 7 -16 15 -45 19 -64 7 -33 8 -34 9
-6 l1 29 25 -34 c14 -19 41 -58 60 -86 20 -29 38 -53 41 -53 4 0 -2 12 -11 27
-10 14 -26 41 -37 60 -11 18 -24 33 -29 33 -8 0 -39 51 -39 65 0 3 37 5 83 5
45 0 91 1 102 2 16 2 21 -4 26 -32 l5 -35 8 46 c4 25 6 58 3 75 l-4 29 -8 -32z"/>
<path d="M7241 1160 l1 -35 12 27 12 27 13 -30 c16 -37 19 -34 14 12 -4 31 -8
37 -29 35 -21 -1 -24 -6 -23 -36z"/>
<path d="M4520 1169 c0 -5 5 -7 10 -4 6 3 10 8 10 11 0 2 -4 4 -10 4 -5 0 -10
-5 -10 -11z"/>
<path d="M7220 1116 c0 -2 8 -10 18 -17 15 -13 16 -12 3 4 -13 16 -21 21 -21
13z"/>
<path d="M7278 1063 c17 -7 15 -30 -4 -37 -10 -4 -15 -16 -14 -33 1 -16 2 -56
1 -90 l-1 -63 -69 0 c-66 0 -131 14 -131 29 0 4 -11 13 -25 19 -14 6 -25 18
-25 26 0 8 -4 18 -10 21 -21 13 5 -31 37 -63 18 -18 33 -36 33 -41 0 -7 188
-6 195 1 2 2 7 44 11 93 7 101 10 111 29 95 11 -9 12 -6 8 12 -6 24 -21 38
-38 37 -5 0 -4 -3 3 -6z"/>
<path d="M6712 1038 c-15 -15 -16 -88 -2 -88 6 0 8 11 4 25 -5 19 -2 25 9 25
20 0 20 -55 0 -71 -17 -15 -17 -29 1 -29 8 0 19 13 24 30 8 20 16 28 26 24 11
-4 13 0 9 15 -6 24 -18 27 -27 9 -3 -7 -3 -3 0 10 3 12 2 22 -3 21 -4 -1 -16
-1 -27 0 -15 1 -16 4 -6 16 16 19 8 29 -8 13z"/>
<path d="M6842 1017 c-11 -90 -13 -147 -3 -147 6 0 11 19 12 43 0 23 1 57 2
75 2 32 -8 56 -11 29z"/>
<path d="M7377 1000 c3 -11 7 -20 9 -20 2 0 4 9 4 20 0 11 -4 20 -9 20 -5 0
-7 -9 -4 -20z"/>
<path d="M7419 1011 c-12 -5 -13 -10 -3 -29 8 -17 13 -20 17 -10 4 9 6 10 6 1
2 -23 27 -14 39 13 7 14 8 23 2 19 -5 -3 -18 -2 -27 3 -10 5 -25 7 -34 3z"/>
<path d="M2020 995 c0 -8 7 -15 16 -15 14 0 14 3 4 15 -7 8 -14 15 -16 15 -2
0 -4 -7 -4 -15z"/>
<path d="M6872 990 c0 -14 2 -19 5 -12 2 6 2 18 0 25 -3 6 -5 1 -5 -13z"/>
<path d="M7351 1000 c0 -8 4 -24 9 -35 5 -13 9 -14 9 -5 0 8 -4 24 -9 35 -5
13 -9 14 -9 5z"/>
<path d="M7321 990 c0 -22 27 -78 28 -59 1 9 -6 30 -14 45 -8 16 -15 22 -14
14z"/>
<path d="M2199 889 c-15 -9 -1 -35 24 -46 24 -10 557 -5 557 5 0 4 -5 14 -10
22 -8 13 -55 16 -286 20 -152 3 -280 2 -285 -1z"/>
<path d="M7200 890 c0 -5 7 -10 16 -10 8 0 12 5 9 10 -3 6 -10 10 -16 10 -5 0
-9 -4 -9 -10z"/>
<path d="M6867 843 c7 -53 24 -116 28 -111 3 2 0 20 -5 39 -6 18 -10 51 -10
71 0 21 -4 38 -9 38 -6 0 -7 -17 -4 -37z"/>
<path d="M4576 857 c-10 -8 -21 -31 -25 -53 -5 -33 -10 -39 -33 -42 -39 -5
-46 -32 -8 -32 17 0 30 -4 30 -10 0 -5 -4 -10 -9 -10 -5 0 -14 -13 -21 -30 -7
-16 -14 -30 -17 -30 -16 0 -43 23 -43 37 0 12 -3 14 -11 6 -8 -8 -8 -17 0 -32
15 -28 62 -28 87 0 l18 20 8 -20 c8 -22 52 -30 63 -11 11 18 -19 51 -43 47
-17 -3 -22 0 -20 12 2 9 14 18 28 19 l24 4 -23 17 c-19 15 -21 22 -14 51 12
45 39 62 59 36 10 -15 14 -16 14 -5 0 18 -19 39 -35 39 -6 0 -19 -6 -29 -13z
m16 -199 c-12 -12 -35 -1 -27 12 3 5 13 6 21 3 10 -4 12 -9 6 -15z"/>
<path d="M4876 834 c-28 -25 -30 -48 -1 -24 13 11 15 7 15 -25 0 -52 24 -40
28 15 4 56 -6 64 -42 34z"/>
<path d="M7339 848 c-7 -28 -8 -58 -1 -54 14 8 22 45 11 52 -5 3 -9 4 -10 2z"/>
<path d="M7150 778 c0 -7 11 -13 25 -13 14 0 25 6 25 13 0 6 -11 12 -25 12
-14 0 -25 -6 -25 -12z"/>
<path d="M7233 762 c0 -15 2 -21 4 -14 3 6 8 10 12 8 4 -3 8 1 8 9 0 8 -6 16
-12 19 -8 3 -12 -5 -12 -22z"/>
<path d="M6274 711 c5 -48 4 -71 -3 -71 -6 0 -11 -4 -11 -10 0 -5 16 -9 35 -8
33 1 52 18 20 18 -15 0 -17 10 -19 104 -1 16 -7 31 -15 34 -11 4 -13 -8 -7
-67z"/>
<path d="M6516 763 c-4 -12 -15 -24 -24 -26 -16 -4 -16 -5 1 -6 13 -1 17 -10
17 -46 0 -40 2 -45 23 -44 16 1 18 2 5 6 -25 6 -23 58 2 83 24 24 25 30 6 30
-8 0 -16 6 -19 13 -2 7 -7 3 -11 -10z"/>
<path d="M7120 770 c0 -5 5 -10 11 -10 5 0 7 5 4 10 -3 6 -8 10 -11 10 -2 0
-4 -4 -4 -10z"/>
<path d="M7073 735 c0 -22 2 -30 4 -17 2 12 2 30 0 40 -3 9 -5 -1 -4 -23z"/>
<path d="M4673 753 c-43 -8 -23 -23 32 -23 42 0 55 3 55 15 0 15 -35 18 -87 8z"/>
<path d="M711 714 c0 -11 3 -14 6 -6 3 7 2 16 -1 19 -3 4 -6 -2 -5 -13z"/>
<path d="M4820 724 c37 -8 140 -9 140 -2 0 4 -35 7 -77 7 -43 -1 -71 -3 -63
-5z"/>
<path d="M2163 713 c-21 -8 -15 -29 12 -41 16 -7 48 -9 86 -5 34 3 140 0 235
-7 96 -7 177 -11 180 -7 3 3 -7 12 -24 21 -49 25 -445 57 -489 39z"/>
<path d="M6155 710 c-3 -5 -11 -7 -18 -4 -8 3 -13 -12 -14 -48 -2 -51 -2 -52
10 -23 9 23 17 29 35 27 14 -2 22 -10 22 -23 0 -10 5 -19 10 -19 6 0 8 11 4
25 -4 18 -1 32 11 45 16 18 17 20 2 20 -10 0 -17 -7 -17 -15 0 -18 -24 -30
-40 -20 -8 5 -6 13 6 26 9 10 12 19 6 19 -6 0 -13 -4 -17 -10z"/>
<path d="M6900 717 c0 -2 14 -16 32 -33 l32 -29 -25 32 c-20 27 -39 41 -39 30z"/>
<path d="M4663 703 c15 -2 37 -2 50 0 12 2 0 4 -28 4 -27 0 -38 -2 -22 -4z"/>
<path d="M741 684 c0 -11 3 -14 6 -6 3 7 2 16 -1 19 -3 4 -6 -2 -5 -13z"/>
<path d="M6390 690 c-10 -6 -11 -10 -2 -10 7 0 12 -14 12 -34 0 -19 5 -38 10
-41 6 -4 10 13 10 44 0 52 -4 58 -30 41z"/>
<path d="M6827 682 c-9 -10 -17 -28 -17 -39 0 -12 -12 -31 -27 -42 l-28 -21
32 11 c56 19 104 94 67 106 -6 2 -18 -5 -27 -15z m27 -17 c-6 -16 -24 -21 -24
-7 0 11 11 22 21 22 5 0 6 -7 3 -15z"/>
<path d="M4847 673 c3 -8 2 -18 -4 -22 -14 -10 -53 -68 -53 -80 0 -6 7 -11 16
-11 8 0 12 5 9 10 -4 6 7 26 24 46 34 38 39 59 17 67 -10 4 -13 1 -9 -10z"/>
<path d="M4800 665 c-7 -8 -9 -15 -6 -15 4 0 14 7 22 15 9 8 11 15 6 15 -5 0
-15 -7 -22 -15z"/>
<path d="M6585 670 c3 -5 12 -7 21 -3 12 4 14 0 8 -21 -4 -19 -2 -26 8 -26 10
0 15 11 16 30 1 27 -2 30 -29 30 -17 0 -28 -4 -24 -10z"/>
<path d="M4893 596 c-3 -82 14 -80 24 2 8 69 21 66 26 -5 l3 -58 2 58 c2 49 5
57 21 57 11 0 22 4 25 8 3 5 -18 8 -47 8 l-52 -1 -2 -69z"/>
<path d="M6092 638 c-14 -14 -16 -38 -3 -38 8 0 23 41 17 47 -1 1 -8 -3 -14
-9z"/>
<path d="M5244 629 c-4 -8 -29 -10 -70 -6 -82 6 -84 -8 -3 -17 70 -7 109 0
109 20 0 17 -26 19 -36 3z"/>
<path d="M7020 630 c0 -5 7 -10 16 -10 8 0 12 5 9 10 -3 6 -10 10 -16 10 -5 0
-9 -4 -9 -10z"/>
<path d="M7065 631 c-3 -5 -1 -12 5 -16 5 -3 10 1 10 9 0 18 -6 21 -15 7z"/>
<path d="M5936 612 c-3 -5 21 -9 52 -9 40 -1 51 1 37 7 -26 11 -82 12 -89 2z"/>
<path d="M5152 588 c-7 -7 -12 -22 -12 -35 0 -13 -7 -26 -15 -29 -8 -4 -15
-10 -15 -16 0 -5 4 -7 9 -3 6 3 25 -4 43 -15 18 -11 42 -20 53 -19 14 0 11 3
-9 9 -41 13 -47 29 -24 61 31 41 5 82 -30 47z m23 -27 c-3 -6 -11 -11 -17 -11
-6 0 -6 6 2 15 14 17 26 13 15 -4z"/>
<path d="M6230 537 c-14 -7 -26 -21 -28 -32 -3 -18 -2 -18 13 3 16 22 35 29
35 13 0 -4 -11 -20 -25 -35 -28 -30 -33 -56 -10 -56 8 0 15 9 15 19 0 11 4 22
9 26 14 8 40 63 33 69 -8 8 -14 7 -42 -7z"/>
<path d="M6533 528 c-13 -13 -23 -29 -23 -35 0 -5 -7 -24 -15 -40 -20 -40 -23
-116 -5 -137 7 -10 24 -16 39 -14 20 2 27 9 29 31 3 25 1 27 -31 27 l-34 0 8
48 c18 92 29 104 48 50 16 -45 20 -32 13 35 l-7 59 -22 -24z m7 -199 c0 -15
-4 -19 -16 -15 -9 3 -18 6 -20 6 -2 0 -4 7 -4 15 0 8 9 15 20 15 14 0 20 -7
20 -21z"/>
<path d="M6345 530 c-22 -4 -32 -8 -23 -9 14 -1 16 -9 11 -58 -8 -71 11 -65
21 7 9 68 26 64 19 -5 -4 -38 -2 -55 6 -55 7 0 11 20 11 53 0 46 3 56 23 65
l22 11 -25 -1 c-14 -1 -43 -4 -65 -8z"/>
<path d="M815 480 c-8 -13 35 -13 55 0 11 7 7 10 -17 10 -17 0 -35 -4 -38 -10z"/>
<path d="M6437 468 c-5 -16 3 -48 12 -48 4 0 6 14 3 30 -5 33 -8 37 -15 18z"/>
<path d="M820 435 c0 -8 7 -15 15 -15 9 0 12 -6 9 -15 -4 -8 -1 -15 5 -15 6 0
11 5 11 10 0 6 7 10 15 10 21 0 19 17 -4 30 -28 15 -51 12 -51 -5z"/>
<path d="M6255 440 c-18 -8 -17 -9 8 -9 15 -1 27 4 27 9 0 12 -8 12 -35 0z"/>
<path d="M7032 408 c-18 -18 -15 -53 7 -72 25 -22 76 -24 99 -3 10 10 23 17
29 17 6 0 14 7 17 16 5 12 -6 9 -40 -11 -39 -23 -50 -25 -70 -16 -30 13 -36
75 -7 69 10 -2 23 -14 30 -28 10 -21 13 -22 19 -7 14 37 -54 65 -84 35z"/>
<path d="M6024 385 c-35 -35 -31 -89 6 -93 22 -2 23 -1 8 8 -27 16 -22 54 7
70 29 16 47 4 60 -38 5 -17 1 -24 -17 -31 -20 -9 -18 -10 17 -10 22 0 47 4 55
9 12 8 11 10 -6 10 -16 0 -23 8 -27 30 -7 33 -39 70 -62 70 -9 0 -27 -11 -41
-25z"/>
<path d="M842 367 c-11 -13 12 -49 38 -60 8 -3 10 -6 3 -6 -8 -1 -9 -10 -3
-32 5 -18 7 -35 5 -39 -8 -13 27 -22 39 -10 7 7 6 10 -2 10 -7 0 -10 17 -8 47
1 26 -3 59 -10 72 -15 28 -47 37 -62 18z"/>
<path d="M6320 283 c8 -2 25 -9 37 -15 13 -6 26 -8 30 -4 11 11 -19 26 -52 25
-16 0 -23 -3 -15 -6z"/>
<path d="M6563 283 c-93 -3 -113 -6 -113 -19 0 -10 6 -13 18 -10 9 3 77 7 150
8 73 1 135 5 138 10 3 4 -5 8 -18 8 -13 0 -32 2 -43 3 -11 2 -71 2 -132 0z"/>
<path d="M6833 283 c15 -2 39 -2 55 0 15 2 2 4 -28 4 -30 0 -43 -2 -27 -4z"/>
<path d="M7023 283 c-43 -2 -73 -8 -73 -15 0 -11 94 -6 185 10 l50 9 -45 0
c-25 -1 -78 -3 -117 -4z"/>
<path d="M5904 248 c-6 -9 270 -9 304 0 13 4 -49 7 -138 8 -89 0 -163 -3 -166
-8z"/>
<path d="M6301 246 c11 -9 69 -14 69 -6 0 6 -16 10 -37 10 -20 0 -34 -2 -32
-4z"/>
<path d="M6838 243 c12 -2 32 -2 45 0 12 2 2 4 -23 4 -25 0 -35 -2 -22 -4z"/>
<path d="M7223 224 c-18 -8 -33 -19 -33 -24 0 -12 2 -12 36 0 27 10 27 10 21
-27 -4 -22 -16 -46 -30 -58 -22 -19 -67 -85 -67 -99 0 -3 11 -6 25 -6 34 0 72
39 80 83 6 32 10 35 51 40 28 3 50 12 59 23 19 26 13 28 -23 7 -38 -22 -48
-14 -33 28 17 48 -4 52 -22 4 -3 -5 -8 -6 -13 -2 -4 4 -3 17 4 27 10 17 10 20
-5 19 -10 0 -33 -7 -50 -15z m17 -130 c0 -15 -23 -45 -41 -55 -12 -6 -20 -7
-17 -2 26 53 33 63 45 63 7 0 13 -3 13 -6z"/>
<path d="M6645 220 c-9 -15 -14 -150 -5 -150 4 0 10 9 13 19 2 11 15 21 28 24
20 4 21 4 4 6 -18 1 -20 6 -17 39 2 20 8 42 13 48 6 8 4 14 -7 18 -21 8 -22 8
-29 -4z"/>
<path d="M6706 206 c3 -13 1 -27 -6 -31 -8 -5 -4 -12 10 -22 17 -12 19 -17 9
-24 -11 -7 -10 -9 4 -9 21 0 32 23 21 42 -5 7 -7 21 -5 32 1 10 -3 23 -11 27
-22 14 -29 10 -22 -15z"/>
<path d="M6990 202 c0 -10 5 -23 11 -29 19 -19 2 -41 -33 -46 l-33 -4 36 -1
c19 -1 40 3 47 10 8 8 15 8 27 -2 13 -11 15 -8 15 22 0 37 -24 68 -53 68 -10
0 -17 -8 -17 -18z m52 -24 c-9 -9 -15 -9 -24 0 -9 9 -7 12 12 12 19 0 21 -3
12 -12z"/>
<path d="M860 188 c0 -15 5 -30 10 -33 13 -8 13 25 0 45 -8 12 -10 9 -10 -12z"/>
<path d="M5975 190 c-3 -5 -1 -10 4 -10 6 0 11 5 11 10 0 6 -2 10 -4 10 -3 0
-8 -4 -11 -10z"/>
<path d="M6174 175 c-4 -8 -12 -15 -20 -15 -13 0 -44 -37 -44 -52 0 -5 17 -8
38 -8 37 0 37 0 40 45 2 45 -4 58 -14 30z m-24 -55 c0 -5 -4 -10 -10 -10 -5 0
-10 5 -10 10 0 6 5 10 10 10 6 0 10 -4 10 -10z"/>
<path d="M6427 184 c-9 -9 36 -84 51 -84 19 0 14 21 -10 47 -24 26 -20 38 11
28 15 -5 21 -15 21 -37 0 -24 3 -29 17 -24 9 4 20 1 24 -6 6 -9 11 -9 23 1 14
12 16 10 16 -9 0 -37 25 -17 28 23 3 31 0 37 -17 37 -10 0 -22 -6 -24 -12 -3
-8 -6 -5 -6 5 -1 13 -6 17 -20 12 -10 -3 -24 1 -31 10 -12 15 -71 21 -83 9z"/>
<path d="M5906 171 c-3 -4 4 -17 15 -27 11 -10 17 -24 15 -31 -6 -16 70 -18
94 -3 9 6 17 5 22 -3 10 -16 22 -1 14 18 -4 13 -10 14 -26 5 -17 -9 -20 -8
-20 10 0 23 -28 27 -36 5 -4 -8 -12 -15 -19 -15 -16 0 -26 38 -11 44 6 2 -1 5
-16 5 -15 1 -29 -3 -32 -8z"/>
<path d="M7080 140 c0 -45 15 -52 32 -15 14 31 28 33 21 3 -4 -23 -4 -23 11
-3 20 24 15 40 -13 39 -11 0 -21 3 -21 8 0 4 -7 8 -15 8 -11 0 -15 -11 -15
-40z"/>
<path d="M900 150 c0 -5 5 -10 10 -10 6 0 10 5 10 10 0 6 -4 10 -10 10 -5 0
-10 -4 -10 -10z"/>
<path d="M6430 100 c0 -5 5 -10 11 -10 5 0 7 5 4 10 -3 6 -8 10 -11 10 -2 0
-4 -4 -4 -10z"/>
<path d="M907 93 c-9 -2 -15 -8 -12 -13 6 -10 45 -1 45 11 0 9 -4 10 -33 2z"/>
</g>
</svg>
