<?xml version="1.0" standalone="no"?>
<!DOCTYPE svg PUBLIC "-//W3C//DTD SVG 20010904//EN"
 "http://www.w3.org/TR/2001/REC-SVG-20010904/DTD/svg10.dtd">
<svg version="1.0" xmlns="http://www.w3.org/2000/svg"
 width="1300.000000pt" height="1286.000000pt" viewBox="0 0 1300.000000 1286.000000"
 preserveAspectRatio="xMidYMid meet">

<g transform="translate(0.000000,1286.000000) scale(0.100000,-0.100000)"
fill="#000000" stroke="none">
<path d="M2723 12844 c-67 -33 -67 -37 -73 -372 l-5 -304 -33 -29 c-49 -44
-106 -41 -164 8 -122 103 -264 107 -373 11 -61 -54 -95 -124 -95 -199 0 -154
101 -266 251 -277 86 -6 139 13 211 73 61 53 95 62 142 40 64 -30 66 -45 66
-398 0 -437 -17 -417 355 -417 170 0 244 3 253 12 9 9 3 20 -23 49 -19 21 -47
62 -62 91 -25 48 -28 62 -28 158 0 101 1 108 34 168 38 71 99 129 169 164 40
20 63 23 152 23 96 0 110 -3 158 -28 112 -59 173 -139 198 -258 23 -110 -5
-222 -75 -301 -17 -20 -31 -45 -31 -57 0 -21 2 -21 273 -21 299 0 317 3 361
63 20 27 21 44 26 389 l5 360 33 29 c48 43 106 41 163 -7 73 -61 116 -78 194
-78 85 0 154 31 208 95 152 177 29 450 -202 449 -78 0 -134 -23 -204 -82 -65
-54 -112 -57 -159 -10 l-33 32 -5 280 -5 280 -38 37 -37 38 -262 3 c-173 2
-265 -1 -272 -8 -7 -7 1 -21 26 -48 146 -151 125 -415 -43 -538 -52 -38 -149
-74 -200 -74 l-29 0 0 -100 c0 -92 -2 -100 -19 -100 -11 0 -21 6 -24 13 -4 10
-7 10 -18 0 -29 -28 -68 -1 -68 47 0 30 14 50 52 74 27 19 36 49 16 61 -6 4
-13 -2 -16 -14 -4 -14 -13 -21 -30 -21 -23 0 -25 3 -19 33 6 30 4 34 -26 45
-52 18 -131 94 -161 154 -71 140 -55 284 44 409 56 71 62 69 -248 69 -233 0
-283 -3 -310 -16z"/>
<path d="M8655 12573 c-82 -33 -143 -90 -183 -173 l-27 -55 0 -2005 0 -2005
22 -47 c29 -63 96 -134 158 -166 46 -25 61 -27 196 -30 l146 -4 105 89 c58 48
246 207 419 353 172 146 386 326 474 400 88 74 215 181 280 237 134 113 980
827 1148 968 l107 90 -2 1060 -3 1060 -22 48 c-33 72 -74 118 -139 157 l-58
35 -1291 2 c-1164 2 -1294 1 -1330 -14z m565 -223 c0 -20 7 -20 904 -20 991 0
947 3 1026 -60 21 -17 50 -54 64 -82 l26 -52 0 -496 0 -496 -26 -52 c-14 -28
-43 -65 -64 -82 -80 -63 -21 -61 -1195 -58 -1014 3 -1072 4 -1107 21 -49 25
-100 76 -124 123 -18 37 -19 69 -22 533 l-3 493 24 52 c28 60 70 105 124 132
30 15 65 20 166 22 117 3 127 5 127 23 0 16 7 19 40 19 33 0 40 -3 40 -20z
m1793 -1431 c34 -18 37 -28 37 -131 0 -78 -3 -98 -14 -98 -8 0 -21 7 -29 15
-13 13 -16 13 -21 0 -14 -36 -66 -2 -66 43 1 31 14 50 53 75 29 19 37 57 12
57 -8 0 -15 -7 -15 -15 0 -9 -9 -15 -25 -15 -32 0 -34 31 -3 60 25 23 40 25
71 9z m-1645 -381 c16 -16 15 -33 -4 -52 -13 -14 -54 -16 -294 -16 -240 0
-281 2 -294 16 -9 8 -16 21 -16 28 0 33 22 36 310 36 209 0 289 -3 298 -12z
m901 -6 c7 -14 6 -25 -5 -40 -15 -22 -20 -22 -298 -22 -290 0 -306 2 -306 40
0 38 16 40 312 40 269 0 288 -1 297 -18z m889 6 c18 -18 14 -46 -7 -58 -12 -6
-124 -10 -295 -10 -236 0 -277 2 -290 16 -19 18 -19 20 -6 45 10 18 24 19 298
19 211 0 291 -3 300 -12z m-1805 -472 c41 -17 72 -51 92 -99 12 -30 16 -72 15
-185 -1 -189 -2 -180 9 -163 10 15 43 8 66 -15 11 -12 15 -40 15 -115 0 -92
-1 -99 -20 -99 -11 0 -20 5 -20 10 0 6 -7 10 -15 10 -8 0 -15 -4 -15 -10 0
-16 -32 -11 -46 8 -29 37 -16 83 32 113 35 21 47 59 19 59 -8 0 -15 -7 -15
-16 0 -11 -6 -15 -20 -11 -11 3 -32 -5 -52 -19 -18 -13 -48 -29 -68 -34 -46
-13 -465 -13 -509 0 -39 11 -86 51 -107 92 -10 20 -14 70 -14 195 0 155 2 171
23 208 14 26 37 48 67 63 42 21 55 22 287 22 184 0 252 -3 276 -14z m884 3
c38 -14 83 -57 99 -96 10 -23 14 -77 14 -183 0 -196 -17 -241 -105 -281 -35
-16 -68 -19 -271 -19 -247 0 -279 5 -328 49 -49 45 -56 75 -56 249 0 147 2
162 23 202 16 30 37 51 67 67 42 22 52 23 286 23 147 0 254 -4 271 -11z m757
-11 c8 -13 8 -23 0 -35 -10 -16 -34 -19 -197 -23 -245 -7 -231 6 -235 -205 -4
-163 -10 -183 -51 -170 -30 9 -33 35 -29 199 3 144 3 144 34 183 55 69 74 74
283 71 162 -3 185 -5 195 -20z m-1622 -960 c21 -12 49 -38 61 -58 20 -33 22
-47 22 -211 0 -173 0 -176 -27 -216 -46 -70 -61 -73 -356 -73 -252 0 -260 1
-292 23 -70 47 -75 61 -78 240 -4 189 0 216 35 258 47 55 64 58 342 59 243 0
255 -1 293 -22z m576 10 c16 -16 15 -33 -4 -52 -12 -13 -38 -16 -118 -16 -142
0 -153 -11 -158 -159 -2 -58 -7 -76 -20 -85 -13 -8 -23 -8 -35 0 -15 10 -18
27 -18 115 0 94 2 107 24 137 44 62 72 72 202 72 76 0 119 -4 127 -12z"/>
<path d="M9100 12231 c5 -11 10 -81 10 -155 l0 -136 -34 0 c-26 0 -35 5 -39
21 l-6 20 -20 -20 c-34 -34 -72 -21 -90 30 -19 54 1 101 59 144 36 26 50 43
50 61 0 17 -6 24 -20 24 -13 0 -20 -7 -20 -20 0 -17 -7 -20 -40 -20 -32 0 -40
4 -40 18 0 10 5 23 12 30 9 9 6 12 -13 12 -37 0 -106 -63 -119 -108 -8 -25
-10 -194 -8 -514 l3 -476 30 -38 c17 -20 46 -45 65 -55 33 -18 81 -19 1088
-19 872 0 1058 2 1085 14 39 16 82 61 96 99 7 19 11 190 11 498 0 377 -3 476
-14 502 -16 39 -61 82 -99 96 -19 7 -204 11 -543 11 l-514 0 0 -167 c0 -104
-4 -179 -12 -199 -14 -39 -47 -54 -119 -54 l-49 0 0 34 c0 34 1 35 47 38 42 3
47 6 54 32 11 39 2 49 -21 26 -24 -24 -56 -26 -78 -3 -14 13 -17 42 -20 155
-3 94 -8 138 -16 138 -8 0 -10 -44 -8 -155 l4 -155 -41 0 -41 0 0 140 c0 133
-1 140 -20 140 -18 0 -20 -8 -22 -137 l-3 -138 -37 -3 -38 -3 0 140 c0 119 -2
141 -15 141 -13 0 -15 -22 -15 -140 l0 -140 -40 0 -40 0 0 155 0 155 -25 0
c-22 0 -24 -3 -15 -19 5 -11 10 -81 10 -155 l0 -136 -34 0 c-26 0 -35 5 -39
21 l-6 20 -20 -20 c-43 -43 -96 -10 -96 59 0 51 19 82 71 120 31 22 44 38 44
56 0 17 -5 24 -20 24 -13 0 -20 -7 -20 -20 0 -17 -7 -20 -39 -20 l-40 0 6 36
c4 27 3 36 -6 33 -10 -4 -13 -43 -12 -157 l2 -152 -41 0 -40 0 0 155 0 155
-25 0 c-22 0 -24 -3 -15 -19z m1299 -195 c60 -42 96 -119 88 -192 -10 -96 -62
-155 -158 -180 -145 -38 -284 99 -249 245 14 59 61 118 114 143 61 28 151 21
205 -16z m515 8 c9 -8 16 -21 16 -27 0 -18 -723 -737 -740 -737 -20 0 -40 20
-40 39 0 18 719 741 737 741 6 0 19 -7 27 -16z m-71 -375 c46 -13 109 -67 131
-113 37 -78 9 -199 -57 -249 -71 -53 -146 -60 -224 -22 -69 35 -106 88 -111
165 -5 75 9 117 57 164 60 59 127 77 204 55z"/>
<path d="M10209 11967 c-69 -46 -73 -147 -8 -201 24 -20 41 -26 80 -26 42 0
55 5 85 33 115 105 -27 282 -157 194z"/>
<path d="M10734 11586 c-99 -43 -101 -181 -4 -231 82 -43 180 19 180 112 0 54
-29 99 -76 119 -41 17 -60 17 -100 0z"/>
<path d="M9870 12130 c0 -113 1 -120 20 -120 19 0 20 7 20 120 0 113 -1 120
-20 120 -19 0 -20 -7 -20 -120z"/>
<path d="M9006 12085 c-23 -35 -21 -75 4 -75 17 0 20 7 20 50 0 28 -2 50 -4
50 -2 0 -11 -11 -20 -25z"/>
<path d="M9326 12085 c-23 -35 -21 -75 4 -75 17 0 20 7 20 50 0 28 -2 50 -4
50 -2 0 -11 -11 -20 -25z"/>
<path d="M10976 10784 c-10 -27 -7 -56 7 -52 14 5 23 68 9 68 -6 0 -13 -7 -16
-16z"/>
<path d="M8824 9988 c-37 -17 -44 -51 -44 -208 0 -143 1 -150 24 -177 l24 -28
224 -3 c146 -2 236 1 261 8 56 16 67 50 67 205 0 135 -12 185 -48 204 -27 14
-479 14 -508 -1z"/>
<path d="M9483 9489 c-16 -16 -17 -45 -3 -54 13 -8 23 17 18 45 -2 17 -5 19
-15 9z"/>
<path d="M9714 9988 c-37 -17 -44 -51 -44 -208 0 -143 1 -150 24 -177 l24 -28
233 -3 c164 -2 241 0 261 9 50 20 58 52 58 214 l0 147 -29 29 -29 29 -239 -1
c-142 0 -247 -5 -259 -11z"/>
<path d="M8805 9015 c-24 -24 -25 -27 -25 -185 0 -158 1 -161 25 -185 l24 -25
245 0 c244 0 245 0 273 24 l28 24 0 162 0 162 -28 24 c-28 24 -29 24 -273 24
l-245 0 -24 -25z"/>
<path d="M3474 12086 c-8 -20 -1 -47 11 -49 6 -1 11 13 13 31 3 32 -14 45 -24
18z"/>
<path d="M12665 11104 c-88 -75 -225 -190 -304 -257 -80 -67 -206 -174 -281
-237 -75 -63 -278 -234 -451 -380 -172 -146 -388 -327 -479 -404 -91 -76 -217
-183 -280 -237 -136 -115 -754 -637 -1094 -923 -132 -111 -303 -255 -380 -321
-78 -66 -176 -149 -219 -184 -42 -35 -77 -65 -77 -67 0 -2 191 -4 425 -4 l424
0 3 73 c3 67 5 72 26 75 40 6 52 -14 52 -84 l0 -64 210 0 210 0 -12 21 c-10
16 -10 23 -2 26 7 2 10 13 7 23 -5 20 26 56 81 93 28 19 36 61 12 70 -18 7
-26 -1 -26 -25 0 -14 -8 -18 -41 -18 -33 0 -40 3 -35 16 3 9 6 21 6 28 0 27
39 58 79 63 84 11 111 -36 111 -199 0 -87 2 -98 18 -98 16 0 17 16 17 187 l0
188 35 0 35 0 3 -187 c1 -111 6 -188 12 -188 5 0 7 14 3 32 -4 21 -3 29 5 25
6 -4 8 0 5 11 -5 20 26 58 75 91 34 24 44 64 18 74 -18 7 -26 -1 -26 -25 0
-14 -8 -18 -40 -18 -43 0 -46 4 -30 45 15 40 36 56 80 62 84 12 114 -44 108
-203 -3 -88 -2 -94 17 -94 19 0 20 7 20 147 l0 148 30 3 c18 2 33 -2 41 -12
10 -14 13 -15 24 -1 18 21 56 19 73 -5 14 -20 14 -20 38 0 13 12 34 20 49 18
38 -4 52 -59 48 -191 -3 -90 -1 -107 12 -107 13 0 15 23 15 147 l0 148 35 0
35 0 5 -140 c4 -116 8 -140 20 -140 13 0 15 24 18 143 l3 143 37 -3 37 -3 0
-148 0 -147 118 0 117 0 0 64 c0 70 12 90 52 84 21 -3 23 -8 26 -75 l3 -73
259 0 259 0 3 66 c3 74 21 99 56 78 13 -8 18 -27 20 -78 l3 -66 229 0 c216 0
230 1 240 19 7 13 10 517 10 1560 0 1386 -2 1541 -16 1555 -31 31 -58 17 -219
-120z m-228 -872 c10 -6 13 -83 15 -306 l3 -299 34 -2 c52 -4 61 -25 61 -137
0 -90 -2 -98 -19 -98 -11 0 -21 6 -24 13 -3 9 -7 9 -20 -2 -10 -7 -17 -10 -17
-5 0 5 -5 2 -10 -6 -6 -9 -10 -172 -10 -411 0 -294 -3 -398 -12 -407 -9 -9
-239 -12 -974 -12 -1031 0 -991 -2 -982 48 2 10 82 85 178 166 96 81 242 205
325 274 154 131 184 157 446 377 184 154 843 711 914 772 50 42 69 50 92 35z"/>
<path d="M12461 9558 c-5 -13 -7 -26 -4 -31 8 -13 43 13 43 33 0 27 -29 25
-39 -2z"/>
<path d="M12482 9488 c-17 -17 -15 -58 3 -58 10 0 15 11 15 35 0 39 -1 40 -18
23z"/>
<path d="M11450 9337 c-33 -30 -775 -657 -809 -684 -13 -10 76 -12 422 -13
l437 0 0 365 c0 201 -3 365 -7 365 -5 0 -24 -15 -43 -33z m-221 -321 c8 -9 11
-60 9 -157 l-3 -144 -29 -3 c-16 -2 -32 2 -37 10 -14 21 -11 282 3 296 16 16
43 15 57 -2z"/>
<path d="M743 10870 c-62 -37 -63 -46 -63 -393 0 -300 -1 -315 -20 -340 -27
-34 -79 -51 -114 -37 -15 5 -50 34 -79 63 -115 118 -289 113 -398 -11 -120
-137 -78 -342 87 -423 58 -29 70 -31 136 -27 84 6 115 19 185 82 60 54 97 65
141 42 59 -30 62 -48 62 -328 0 -236 1 -255 20 -286 39 -64 5 -62 917 -62 769
0 830 1 862 18 19 9 44 30 55 45 20 27 21 44 24 289 2 166 -1 265 -7 271 -7 7
-24 -2 -52 -28 -23 -20 -67 -49 -98 -64 -48 -22 -69 -26 -151 -26 -82 1 -102
4 -150 28 -71 34 -143 106 -178 177 -24 48 -27 67 -27 150 0 88 3 101 33 162
57 116 166 191 297 205 92 10 231 -42 290 -107 43 -47 45 -36 45 246 0 387 10
374 -302 374 l-208 0 0 -100 c0 -92 -1 -100 -20 -100 -10 0 -23 7 -28 16 -8
15 -10 15 -15 0 -9 -22 -44 -20 -57 3 -13 25 -13 74 0 66 6 -3 7 1 4 9 -4 11
6 22 30 37 21 12 36 29 36 39 0 27 -20 36 -27 11 -4 -14 -13 -21 -30 -21 -20
0 -24 4 -20 20 5 19 0 20 -64 20 -44 0 -69 -4 -69 -11 0 -6 14 -27 30 -46 96
-109 121 -283 59 -406 -35 -67 -113 -141 -182 -173 -82 -37 -193 -39 -279 -5
-76 30 -159 106 -195 179 -25 51 -28 67 -28 162 0 95 3 110 27 157 16 29 41
68 58 86 16 19 30 40 30 46 0 8 -77 11 -267 11 -248 0 -270 -2 -300 -20z"/>
<path d="M1976 10784 c-10 -27 -7 -56 7 -52 14 5 23 68 9 68 -6 0 -13 -7 -16
-16z"/>
<path d="M5024 10374 c-103 -37 -175 -141 -180 -257 -2 -59 -6 -73 -29 -97
-15 -15 -37 -30 -50 -32 -55 -11 -96 18 -274 195 -97 96 -186 180 -198 186
-30 15 -77 14 -116 -3 -41 -18 -371 -350 -365 -368 3 -8 30 -15 75 -19 253
-23 405 -297 291 -523 -30 -59 -104 -133 -162 -161 -140 -68 -301 -45 -415 60
-30 28 -51 39 -67 37 -13 -2 -24 1 -24 7 0 6 -7 11 -15 11 -8 0 -15 -4 -15
-10 0 -16 -32 -11 -46 8 -22 28 -17 70 12 97 15 14 31 25 35 25 5 0 9 11 9 25
0 14 -4 25 -10 25 -5 0 -10 -7 -10 -15 0 -9 -10 -15 -26 -15 -22 0 -25 4 -22
28 2 19 13 32 36 43 28 15 30 18 16 30 -13 11 -41 -13 -205 -177 -104 -104
-196 -203 -204 -220 -18 -38 -19 -87 -4 -117 6 -12 103 -115 215 -228 199
-201 204 -207 204 -247 0 -34 -6 -48 -34 -75 -29 -29 -43 -35 -97 -41 -88 -10
-152 -40 -199 -93 -119 -136 -79 -347 82 -427 59 -30 156 -35 220 -12 95 34
166 131 175 239 2 34 9 75 15 90 18 48 91 72 141 46 12 -6 123 -111 247 -234
168 -166 234 -226 263 -235 69 -22 93 -6 312 211 210 208 235 226 286 198 27
-14 81 -20 73 -7 -14 23 63 -2 78 -26 4 -6 8 -53 8 -104 0 -74 -3 -94 -15 -99
-9 -3 -22 2 -30 13 -21 28 -20 -5 2 -36 59 -89 134 -130 233 -129 76 1 112 12
173 55 65 46 102 126 101 219 -1 152 -110 261 -273 273 -75 5 -115 29 -127 77
-13 52 7 79 195 270 205 206 221 231 202 302 -9 31 -57 84 -251 278 -133 132
-248 253 -257 269 -21 41 -10 88 31 124 27 23 45 30 99 35 110 10 188 62 233
152 64 131 8 301 -120 367 -53 27 -165 34 -222 12z"/>
<path d="M3482 9490 c-15 -34 -9 -71 9 -53 6 6 9 27 7 47 l-3 37 -13 -31z"/>
<path d="M11060 8205 c0 -103 2 -115 18 -115 15 0 17 11 14 115 -3 92 -6 115
-18 115 -11 0 -14 -22 -14 -115z"/>
<path d="M11170 8281 c0 -34 3 -41 20 -41 16 0 20 7 20 30 0 17 1 33 3 38 1 4
-8 8 -20 10 -21 3 -23 -1 -23 -37z"/>
<path d="M4968 8255 c5 -30 26 -28 30 3 3 16 -2 22 -16 22 -15 0 -18 -5 -14
-25z"/>
<path d="M4982 8192 c-7 -12 -10 -32 -7 -43 10 -32 27 -8 23 32 -3 33 -3 34
-16 11z"/>
<path d="M10846 8188 c-24 -33 -21 -78 4 -78 17 0 20 7 20 50 0 28 -2 50 -4
50 -3 0 -12 -10 -20 -22z"/>
<path d="M10520 8181 c-15 -29 -12 -68 5 -75 12 -4 15 4 15 44 0 54 -4 60 -20
31z"/>
<path d="M3220 5774 c-293 -81 -593 -184 -624 -214 -13 -13 -17 -26 -12 -44
12 -48 42 -49 162 -4 141 52 359 121 504 159 132 35 160 50 160 84 0 28 -24
55 -48 54 -9 0 -73 -16 -142 -35z"/>
<path d="M10708 5554 c-615 -84 -1145 -434 -1474 -974 -5 -8 -11 -109 -14
-225 l-5 -210 -37 -3 -38 -3 0 128 c-1 121 -2 126 -15 94 -10 -21 -15 -67 -15
-127 l0 -94 -34 0 c-34 0 -34 0 -54 -77 -51 -191 -57 -245 -57 -518 0 -246 2
-267 28 -390 146 -682 598 -1228 1225 -1479 236 -95 429 -135 692 -143 269 -8
468 20 705 99 422 141 792 424 1040 793 118 176 207 365 264 565 101 354 105
724 11 1076 -212 796 -881 1382 -1698 1488 -184 24 -182 24 -182 -24 0 -43
-17 -53 -41 -24 -11 14 -13 14 -21 0 -5 -9 -15 -16 -22 -16 -19 0 -46 34 -46
58 0 20 -5 22 -57 21 -32 -1 -101 -7 -155 -15z m557 -289 c352 -62 657 -216
915 -462 93 -88 224 -248 272 -333 15 -26 32 -42 51 -46 34 -7 47 -31 47 -83
0 -22 14 -75 31 -118 131 -328 166 -638 109 -968 -66 -378 -234 -695 -511
-960 -136 -130 -263 -220 -424 -300 -159 -78 -269 -117 -434 -152 -113 -24
-147 -27 -336 -27 -158 0 -233 4 -302 17 -366 69 -676 230 -928 482 -171 171
-291 348 -381 561 -102 245 -140 455 -131 732 7 212 32 349 104 560 3 11 0 9
-11 -5 -33 -45 -87 -21 -100 43 -10 47 15 96 65 130 31 21 45 38 47 57 3 22
-1 27 -17 27 -14 0 -21 -6 -21 -20 0 -17 -7 -20 -41 -20 -40 0 -41 1 -34 28
16 66 53 90 119 78 47 -9 69 -37 70 -91 1 -45 1 -45 18 -22 19 24 21 34 18 85
-1 29 1 32 27 32 23 1 35 11 70 63 262 386 734 667 1223 727 105 12 378 4 485
-15z"/>
<path d="M10830 5204 c-212 -25 -425 -86 -586 -167 -213 -107 -444 -296 -581
-474 -50 -66 -55 -76 -40 -84 9 -6 17 -18 17 -27 0 -13 3 -12 15 5 21 30 70
39 92 17 15 -15 19 -41 22 -176 l3 -158 -41 0 -40 0 -3 143 c-3 118 -5 142
-18 142 -13 0 -15 -24 -18 -142 l-3 -143 -39 0 -40 0 0 143 c-1 127 -2 140
-15 123 -11 -15 -15 -50 -15 -143 l0 -123 -39 0 c-39 0 -40 1 -43 38 -3 35 -5
32 -35 -51 -80 -214 -107 -390 -101 -632 10 -325 95 -594 273 -860 281 -422
692 -673 1205 -736 125 -15 366 -5 494 20 364 74 706 273 943 550 393 459 506
1106 291 1664 -22 57 -33 76 -41 68 -42 -42 -90 44 -53 94 12 17 11 26 -16 75
-166 298 -457 562 -776 700 -204 88 -388 128 -617 134 -88 2 -176 2 -195 0z
m-211 -658 c158 -81 249 -242 239 -420 -6 -99 -31 -158 -94 -226 -63 -67 -132
-94 -231 -88 -136 9 -254 96 -322 237 -35 73 -36 80 -36 186 0 93 3 118 23
161 30 65 105 139 168 164 71 29 180 23 253 -14z m1000 -2 c207 -112 225 -431
34 -622 -172 -172 -423 -143 -523 61 -104 213 15 497 243 579 77 27 177 20
246 -18z m-1747 -196 c3 -119 5 -143 18 -143 13 0 15 24 18 143 l3 142 40 0
40 0 -3 -205 c-3 -196 -4 -205 -25 -227 -18 -17 -37 -23 -88 -26 l-65 -4 0 35
c0 36 0 36 48 39 l47 3 2 45 c2 40 1 42 -9 22 -13 -26 -54 -39 -77 -25 -23 15
-28 51 -30 206 l-1 137 40 0 39 0 3 -142z m183 -493 c107 -51 188 -175 188
-289 0 -214 -234 -292 -420 -140 -86 70 -136 201 -113 293 37 151 188 210 345
136z m2095 -3 c67 -40 103 -115 97 -200 -12 -164 -161 -305 -321 -305 -161 1
-258 152 -201 314 64 181 280 279 425 191z m-1015 -178 c230 -56 416 -240 476
-472 57 -224 -7 -460 -170 -623 -84 -84 -154 -128 -262 -164 -142 -48 -297
-43 -450 16 -64 25 -80 35 -85 56 -4 16 -1 30 9 41 15 14 22 13 79 -10 99 -41
128 -48 208 -54 268 -20 526 167 595 432 18 68 20 191 4 266 -41 196 -218 381
-415 432 -77 20 -221 20 -294 1 -193 -51 -355 -213 -411 -410 -23 -82 -18
-237 10 -324 27 -81 22 -106 -20 -106 -30 0 -52 43 -73 148 -58 281 67 558
319 708 131 77 318 102 480 63z m-122 -555 c34 -18 37 -28 37 -126 0 -93 -8
-115 -35 -93 -12 10 -18 10 -30 0 -21 -17 -54 -3 -61 27 -9 33 19 87 52 102
26 12 33 51 9 51 -8 0 -15 -7 -15 -15 0 -9 -9 -15 -25 -15 -49 0 -17 77 33 79
7 1 23 -4 35 -10z"/>
<path d="M10384 4482 c-51 -24 -99 -82 -120 -145 -24 -73 -15 -186 20 -257 34
-66 97 -134 150 -162 56 -29 145 -35 200 -14 170 65 196 337 48 498 -80 87
-209 121 -298 80z"/>
<path d="M11373 4476 c-70 -33 -129 -95 -166 -174 -27 -57 -32 -78 -32 -147 0
-92 21 -150 74 -203 92 -92 243 -80 350 27 122 122 143 332 43 443 -71 79
-171 99 -269 54z"/>
<path d="M9876 3800 c-64 -20 -105 -95 -91 -163 25 -117 129 -207 240 -207
102 0 157 73 134 179 -26 123 -177 224 -283 191z"/>
<path d="M11980 3801 c-117 -36 -196 -141 -187 -250 3 -47 9 -59 40 -88 33
-29 43 -33 95 -33 95 0 172 52 219 147 46 95 20 183 -64 219 -35 15 -64 16
-103 5z"/>
<path d="M10983 2995 c-18 -20 -16 -55 2 -55 10 0 15 11 15 35 0 39 0 40 -17
20z"/>
<path d="M9328 4290 c-22 -30 -23 -76 -3 -84 20 -7 27 11 23 65 l-3 44 -17
-25z"/>
<path d="M12471 4244 c0 -11 3 -14 6 -6 3 7 2 16 -1 19 -3 4 -6 -2 -5 -13z"/>
<path d="M10972 5553 c5 -25 28 -28 28 -4 0 12 -6 21 -16 21 -9 0 -14 -7 -12
-17z"/>
<path d="M2972 5485 c-41 -18 -83 -42 -95 -54 -20 -20 -21 -23 -7 -49 9 -15
25 -28 36 -30 11 -2 58 13 105 33 110 47 131 73 89 115 -26 26 -41 25 -128
-15z"/>
<path d="M2134 5366 c-316 -153 -703 -398 -994 -630 -139 -111 -280 -234 -280
-246 0 -4 11 -6 23 -5 21 3 24 -2 25 -33 1 -21 -5 -44 -16 -56 -10 -12 -2 -9
21 8 28 21 37 36 37 57 0 25 4 29 30 29 22 0 54 20 132 85 303 254 656 486
1020 671 120 60 149 79 154 100 7 28 -18 64 -46 64 -9 0 -57 -20 -106 -44z"/>
<path d="M4160 5268 c-18 -51 -39 -100 -47 -108 -10 -11 -37 -14 -125 -11
l-113 3 80 -62 c115 -88 112 -79 70 -195 -19 -54 -33 -100 -31 -103 3 -2 41
21 84 52 44 31 90 56 101 56 12 0 58 -29 103 -65 45 -35 83 -63 85 -62 1 2
-12 49 -28 105 -17 57 -29 109 -26 116 3 7 44 39 92 72 l87 59 -108 8 c-61 5
-114 13 -120 20 -6 7 -21 50 -34 97 -13 47 -26 91 -30 98 -4 8 -20 -24 -40
-80z"/>
<path d="M2505 5234 c-101 -66 -158 -108 -267 -197 -82 -66 -98 -84 -98 -108
0 -32 33 -61 59 -51 9 3 63 44 121 90 58 46 152 115 210 154 58 39 108 76 112
82 21 31 -6 76 -45 76 -12 0 -53 -21 -92 -46z"/>
<path d="M1898 4701 c-40 -15 -226 -259 -346 -456 -69 -113 -199 -376 -208
-421 -8 -41 25 -72 64 -58 21 7 35 28 66 99 90 206 256 478 394 647 100 122
107 134 94 162 -11 25 -38 36 -64 27z"/>
<path d="M828 4469 c-20 -11 -25 -73 -8 -84 6 -4 10 9 10 32 0 22 5 44 12 51
15 15 9 15 -14 1z"/>
<path d="M740 4053 c0 -64 -4 -105 -12 -116 -7 -9 -58 -30 -112 -47 -55 -17
-101 -32 -103 -34 -3 -2 40 -18 94 -36 54 -18 103 -37 110 -42 8 -7 13 -50 15
-126 l3 -116 69 92 c39 53 75 92 85 92 10 0 57 -14 106 -30 49 -17 93 -29 97
-28 5 2 -19 41 -52 87 -33 46 -60 92 -60 102 0 10 27 55 61 99 33 45 59 84 56
86 -3 3 -49 -9 -103 -26 -53 -17 -103 -29 -110 -26 -7 3 -38 39 -68 80 -31 41
-60 78 -66 81 -6 4 -10 -29 -10 -92z"/>
<path d="M4977 4054 c-72 -22 -160 -111 -181 -183 -35 -118 -11 -209 74 -293
89 -87 192 -110 305 -67 117 44 191 161 182 289 -13 191 -194 311 -380 254z"/>
<path d="M2865 3991 c-186 -35 -293 -69 -449 -147 -240 -119 -448 -304 -607
-539 -39 -58 -151 -276 -145 -282 2 -2 39 0 83 6 43 6 99 13 126 17 37 4 47 9
47 24 0 19 44 60 65 60 21 0 64 -40 67 -63 3 -20 11 -23 83 -30 157 -15 371
-65 685 -159 74 -23 209 -59 300 -82 159 -40 165 -43 168 -68 7 -60 -54 -53
-388 44 -449 130 -618 170 -772 184 l-78 7 0 -37 c0 -37 -8 -43 -40 -26 -13 7
-21 7 -25 0 -18 -29 -64 5 -65 48 0 25 -1 25 -179 0 -117 -16 -114 -13 -138
-119 -13 -52 -28 -123 -34 -159 -15 -86 -15 -334 0 -435 12 -78 47 -235 55
-242 13 -13 494 -65 771 -83 274 -18 899 -24 1190 -11 289 12 666 42 848 66
195 26 172 13 196 113 33 138 42 217 43 367 1 402 -132 748 -408 1060 l-51 58
-74 -45 c-321 -192 -701 -251 -1084 -167 -105 22 -124 36 -106 75 13 29 1 30
171 -6 150 -32 392 -32 540 -1 165 35 294 83 426 160 l67 39 -78 61 c-184 147
-403 248 -652 301 -143 31 -421 37 -558 11z m1359 -1143 c18 -29 -3 -49 -92
-94 -144 -72 -364 -124 -524 -124 -77 0 -89 2 -98 20 -7 13 -7 26 -1 39 9 15
27 19 133 24 169 8 402 70 494 130 44 29 72 31 88 5z"/>
<path d="M1966 3065 c-4 -10 1 -15 14 -15 11 0 20 7 20 15 0 8 -6 15 -14 15
-8 0 -16 -7 -20 -15z"/>
<path d="M1972 2954 c4 -21 22 -23 26 -1 2 10 -3 17 -13 17 -10 0 -15 -6 -13
-16z"/>
<path d="M1315 2763 c-268 -62 -427 -113 -547 -175 -224 -116 -269 -258 -123
-386 46 -40 170 -111 178 -102 3 3 8 28 11 55 l7 50 -42 20 c-66 31 -131 95
-131 128 0 87 209 195 528 271 82 20 166 41 186 46 44 12 57 40 34 75 -16 25
-48 30 -101 18z"/>
<path d="M4817 2755 c-21 -20 -22 -49 -3 -68 8 -8 59 -24 113 -36 227 -51 416
-113 513 -168 69 -39 120 -92 120 -125 0 -107 -286 -230 -735 -317 l-139 -27
-18 -49 c-23 -65 -23 -65 15 -59 674 119 986 261 987 452 1 142 -229 279 -636
377 -154 37 -196 41 -217 20z"/>
<path d="M9045 2531 c-27 -21 -178 -132 -335 -246 -157 -115 -314 -230 -350
-256 -36 -26 -164 -120 -285 -209 -146 -107 -227 -172 -241 -196 -61 -101 -23
-266 87 -376 65 -65 136 -98 214 -98 72 0 97 12 216 101 48 35 145 107 215
158 71 52 179 131 239 176 61 45 232 170 380 279 149 109 274 202 279 206 5 5
-20 40 -54 78 -89 99 -169 210 -237 324 -32 54 -62 98 -68 97 -5 0 -32 -17
-60 -38z"/>
<path d="M1005 2274 c-72 -37 -105 -89 -105 -165 0 -101 76 -179 175 -179 147
1 234 160 152 281 -47 70 -152 100 -222 63z"/>
<path d="M1302 2005 c-16 -34 -19 -47 -10 -50 22 -8 282 -54 286 -51 1 2 -5
28 -15 57 l-18 54 -90 17 c-130 24 -128 25 -153 -27z"/>
<path d="M1665 1878 c15 -53 109 -229 165 -309 193 -277 463 -483 779 -593 91
-32 257 -69 351 -79 19 -2 -639 -5 -1462 -5 l-1498 -2 0 -445 0 -445 6500 0
6500 0 0 445 0 445 -4882 2 c-2686 0 -4867 3 -4848 5 319 34 656 183 881 390
72 66 210 215 205 221 -2 1 -38 -11 -80 -28 -178 -70 -481 -146 -558 -138 -26
2 -34 8 -36 26 -5 30 14 52 45 52 52 0 277 51 395 90 67 22 168 62 224 89 88
42 106 55 130 93 34 53 98 198 90 205 -3 3 -40 0 -83 -6 -165 -23 -477 -51
-698 -62 -253 -12 -264 -14 -247 -31 8 -8 12 -49 12 -110 0 -90 -2 -98 -19
-98 -11 0 -21 6 -24 13 -4 10 -7 10 -18 0 -29 -28 -68 -1 -68 47 0 30 14 50
52 74 27 19 36 49 16 61 -6 4 -13 -2 -16 -14 -7 -27 -53 -30 -53 -3 0 10 5 23
12 30 9 9 -59 12 -308 12 -470 0 -926 25 -1287 70 -193 24 -180 25 -172 -2z
m1051 -469 c74 -18 132 -22 344 -26 151 -3 260 -9 268 -15 16 -14 15 -43 -2
-58 -19 -15 -401 -16 -506 -1 -198 29 -255 54 -230 101 13 25 16 25 126 -1z
m-1936 -909 l0 -200 -35 0 -35 0 0 200 0 200 35 0 35 0 0 -200z m-115 105 c24
-23 25 -30 25 -149 0 -68 3 -131 6 -140 5 -13 -1 -16 -30 -16 -27 0 -36 4 -36
17 0 15 -2 14 -20 -2 -22 -20 -63 -23 -85 -5 -8 6 -17 28 -21 47 -9 50 15 94
70 129 38 23 46 34 44 54 -4 31 -32 33 -36 3 -3 -19 -10 -23 -38 -23 -31 0
-34 2 -34 30 0 46 39 80 90 80 30 0 47 -6 65 -25z m273 19 c41 -11 52 -51 52
-194 l0 -130 -29 0 c-16 0 -31 6 -34 13 -4 10 -7 10 -18 0 -18 -18 -74 -16
-93 3 -21 20 -21 93 -1 122 9 12 36 36 61 53 34 23 44 36 42 52 -4 29 -30 28
-43 0 -7 -17 -18 -23 -44 -23 -32 0 -33 1 -27 33 11 59 66 89 134 71z m234
-13 c12 -19 12 -19 36 0 30 23 55 24 76 3 13 -13 16 -42 16 -165 l0 -149 -30
0 -30 0 0 113 c0 123 -6 157 -25 157 -21 0 -25 -25 -25 -151 l0 -119 -35 0
-34 0 -3 133 c-3 109 -6 132 -18 132 -12 0 -15 -23 -18 -132 l-3 -133 -34 0
-35 0 0 160 0 160 35 0 c21 0 35 -5 35 -12 0 -8 6 -6 17 5 23 23 60 22 75 -2z
m220 -121 c3 -121 4 -125 26 -128 22 -3 22 -3 22 127 0 80 4 131 10 132 59 7
55 20 58 -166 2 -94 0 -184 -3 -201 -7 -39 -38 -54 -110 -54 -54 0 -55 0 -55
30 0 27 3 30 34 30 49 0 66 9 66 35 0 23 -1 23 -30 9 -36 -18 -66 -6 -80 32
-6 14 -10 83 -10 154 l0 129 28 3 c15 2 30 1 34 -2 4 -3 9 -62 10 -130z m9843
90 c0 -27 -4 -50 -10 -50 -5 0 -10 23 -10 50 0 28 5 50 10 50 6 0 10 -22 10
-50z m470 0 c0 -27 -4 -50 -10 -50 -5 0 -10 23 -10 50 0 28 5 50 10 50 6 0 10
-22 10 -50z m93 38 c7 -7 12 -24 12 -38 0 -34 -17 -50 -52 -50 -27 0 -28 2
-28 50 0 48 1 50 28 50 15 0 33 -5 40 -12z m160 -14 c2 -11 -4 -27 -13 -34
-21 -17 -19 -28 8 -33 16 -3 13 -5 -10 -6 -38 -1 -41 8 -13 34 27 25 27 59 0
52 -11 -3 -17 -1 -14 4 10 17 39 5 42 -17z m97 -24 c0 -43 -1 -45 -32 -48
l-33 -3 0 51 0 51 33 -3 c31 -3 32 -5 32 -48z m41 13 l10 -38 10 33 c12 43 26
44 38 2 l10 -35 10 38 c5 20 13 37 17 37 10 0 -15 -91 -26 -93 -5 -1 -13 13
-17 31 -5 17 -11 32 -13 32 -2 0 -8 -15 -13 -32 -4 -18 -12 -32 -17 -31 -11 2
-36 93 -26 93 4 0 12 -17 17 -37z m174 -12 c7 -23 16 -41 20 -41 3 0 13 18 21
41 8 22 18 41 23 42 5 1 17 -19 27 -45 10 -27 14 -48 9 -48 -6 0 -10 7 -10 15
0 21 -40 19 -56 -2 -13 -17 -15 -17 -28 0 -7 9 -21 17 -31 17 -10 0 -24 -8
-31 -17 -12 -16 -13 -15 -4 10 33 91 38 93 60 28z m158 -3 c-1 -51 -2 -51 -5
-10 -2 23 -9 42 -14 42 -6 0 -7 5 -4 10 15 24 25 6 23 -42z m62 10 c0 -60 -10
-88 -29 -87 -10 0 -11 2 -3 6 8 3 12 26 12 64 0 33 4 59 10 59 6 0 10 -19 10
-42z m-1123 -23 l1 -40 -6 35 c-4 22 -13 35 -22 35 -9 0 -17 -13 -21 -35 l-6
-35 -2 38 c-1 45 -27 52 -37 10 -10 -48 -12 -49 -13 -6 l-1 43 53 -3 52 -2 2
-40z m77 29 c3 -9 6 -26 6 -38 0 -19 -5 -23 -27 -22 -37 1 -39 37 -3 47 l25 6
-25 11 c-23 10 -23 11 -4 11 12 1 25 -6 28 -15z m84 -44 c-3 -50 -5 -55 -28
-57 -25 -3 -25 -3 -2 7 12 5 22 14 22 19 0 5 -10 11 -22 13 -15 2 -24 11 -26
26 -5 37 5 52 33 50 25 -2 26 -5 23 -58z m90 38 c3 -13 -3 -18 -22 -18 -32 0
-34 -17 -3 -30 22 -10 22 -10 -3 -7 -26 2 -38 32 -26 63 8 21 50 14 54 -8z
m232 12 c0 -5 -4 -10 -10 -10 -5 0 -10 5 -10 10 0 6 5 10 10 10 6 0 10 -4 10
-10z m0 -60 c0 -5 -4 -10 -10 -10 -5 0 -10 5 -10 10 0 6 5 10 10 10 6 0 10 -4
10 -10z m-90 -190 c0 -47 -3 -60 -15 -60 -12 0 -15 13 -15 60 0 47 3 60 15 60
12 0 15 -13 15 -60z m-580 10 c0 -11 5 -20 10 -20 6 0 10 9 10 21 0 29 32 21
41 -11 l6 -25 8 28 c7 28 25 38 25 13 0 -27 -22 -76 -35 -76 -7 0 -16 15 -20
33 l-8 32 -6 -30 c-9 -44 -33 -37 -47 13 -11 35 -11 42 2 42 8 0 14 -9 14 -20z
m140 0 c0 -11 5 -20 10 -20 6 0 10 9 10 21 0 29 32 21 41 -11 l6 -25 8 28 c11
42 28 33 20 -10 -8 -46 -12 -53 -29 -53 -8 0 -17 15 -21 33 l-8 32 -6 -30 c-9
-44 -33 -37 -47 13 -11 35 -11 42 2 42 8 0 14 -9 14 -20z m140 0 c0 -11 5 -20
10 -20 6 0 10 9 10 21 0 29 32 21 41 -11 l6 -25 8 28 c7 28 25 38 25 13 0 -27
-22 -76 -35 -76 -7 0 -16 15 -20 33 l-7 32 -10 -33 c-12 -43 -29 -36 -45 16
-10 35 -9 42 3 42 8 0 14 -9 14 -20z m235 8 c2 -7 6 -27 8 -44 5 -30 4 -31
-32 -30 -31 1 -36 4 -36 26 0 17 7 26 25 31 24 7 24 7 3 8 -13 1 -23 6 -23 11
0 15 50 12 55 -2z m153 -5 c5 -10 9 -29 7 -43 -1 -20 -7 -24 -36 -25 -30 0
-34 3 -34 25 0 17 7 26 25 31 24 7 24 7 3 8 -31 1 -29 21 2 21 13 0 28 -8 33
-17z m162 -4 c12 -22 7 -62 -8 -67 -8 -2 -12 9 -12 32 0 25 -4 36 -15 36 -10
0 -15 -11 -15 -35 0 -44 -18 -46 -22 -3 -4 46 -28 49 -28 4 0 -25 -4 -36 -15
-36 -11 0 -15 12 -15 44 l0 43 60 0 c48 0 63 -4 70 -18z m55 -6 l8 -28 10 28
c13 33 42 38 31 5 -19 -61 -45 -108 -59 -108 -18 0 -20 17 -3 22 10 4 9 16 -4
56 -13 41 -13 52 -3 52 7 0 16 -12 20 -27z m175 18 c0 -5 -9 -11 -20 -14 -11
-3 -20 -13 -20 -22 0 -9 9 -19 20 -22 23 -6 27 -23 6 -23 -31 0 -46 13 -46 39
0 15 5 32 12 39 14 14 48 16 48 3z m90 -5 c28 -35 -11 -93 -47 -70 -36 22 -23
84 17 84 10 0 23 -7 30 -14z m162 -21 c9 -33 4 -55 -12 -55 -5 0 -10 16 -10
35 0 24 -5 35 -15 35 -10 0 -15 -11 -15 -35 0 -44 -18 -46 -22 -3 -4 46 -28
49 -28 4 0 -25 -4 -36 -15 -36 -11 0 -15 12 -15 44 l0 44 62 -2 c60 -1 62 -2
70 -31z m-891 -48 c-13 -13 -26 -3 -16 12 3 6 11 8 17 5 6 -4 6 -10 -1 -17z
m550 0 c-13 -13 -26 -3 -16 12 3 6 11 8 17 5 6 -4 6 -10 -1 -17z"/>
<path d="M592 427 c-26 -27 -28 -55 -7 -63 24 -9 42 12 43 51 2 41 -6 44 -36
12z"/>
<path d="M893 438 c-30 -32 -31 -78 -3 -78 25 0 32 17 28 65 l-3 37 -22 -24z"/>
<path d="M11750 580 c0 -33 3 -41 16 -38 26 5 41 35 28 56 -6 9 -19 18 -28 20
-13 3 -16 -5 -16 -38z"/>
<path d="M12010 605 c0 -10 7 -15 18 -13 21 4 19 22 -2 26 -10 2 -16 -3 -16
-13z"/>
<path d="M12010 560 c0 -15 5 -20 18 -18 9 2 17 10 17 18 0 8 -8 16 -17 18
-13 2 -18 -3 -18 -18z"/>
<path d="M12237 595 c-8 -20 -4 -29 11 -24 5 2 6 13 2 23 -6 19 -7 19 -13 1z"/>
<path d="M12326 595 c-9 -23 -8 -25 9 -25 17 0 19 9 6 28 -7 11 -10 10 -15 -3z"/>
<path d="M11407 563 c-12 -11 -8 -23 8 -23 8 0 15 7 15 15 0 16 -12 20 -23 8z"/>
<path d="M11484 586 c-8 -22 3 -49 19 -43 6 2 12 14 12 27 0 27 -22 39 -31 16z"/>
<path d="M11575 590 c-3 -5 3 -10 15 -10 12 0 18 5 15 10 -3 6 -10 10 -15 10
-5 0 -12 -4 -15 -10z"/>
<path d="M11657 333 c-12 -11 -8 -23 8 -23 8 0 15 7 15 15 0 16 -12 20 -23 8z"/>
<path d="M11807 333 c-12 -11 -8 -23 8 -23 8 0 15 7 15 15 0 16 -12 20 -23 8z"/>
<path d="M12283 344 c-8 -21 13 -42 28 -27 13 13 5 43 -11 43 -6 0 -13 -7 -17
-16z"/>
<path d="M3474 1686 c-8 -20 -1 -47 11 -49 6 -1 11 13 13 31 3 32 -14 45 -24
18z"/>
<path d="M1129 1547 c-66 -35 -102 -93 -107 -171 -7 -110 56 -192 170 -220 43
-10 121 12 162 45 91 76 103 216 25 301 -65 69 -168 88 -250 45z"/>
</g>
</svg>
