<?xml version="1.0" standalone="no"?>
<!DOCTYPE svg PUBLIC "-//W3C//DTD SVG 20010904//EN"
 "http://www.w3.org/TR/2001/REC-SVG-20010904/DTD/svg10.dtd">
<svg version="1.0" xmlns="http://www.w3.org/2000/svg"
 width="800.000000pt" height="400.000000pt" viewBox="0 0 800.000000 400.000000"
 preserveAspectRatio="xMidYMid meet">

<g transform="translate(0.000000,400.000000) scale(0.100000,-0.100000)"
fill="#000000" stroke="none">
<path d="M0 3211 l0 -788 43 -11 c23 -6 78 -10 122 -9 l80 2 -1 -39 c-1 -21
-8 -42 -15 -47 -21 -13 -85 -11 -122 4 -18 8 -49 17 -70 21 l-37 7 0 -1176 0
-1175 1464 0 1464 0 31 128 c17 71 31 138 31 150 0 54 44 32 54 -28 8 -52 26
-90 42 -90 16 0 49 46 86 122 43 90 53 75 51 -78 -2 -105 0 -125 10 -109 25
42 95 105 116 105 27 0 27 -16 -1 -31 -76 -41 -143 -169 -88 -169 12 0 20 7
20 18 1 26 27 55 45 49 22 -9 19 -33 -7 -52 -22 -15 -21 -16 32 -13 52 3 55 5
58 30 4 33 -36 78 -68 78 -11 0 -20 7 -20 15 0 21 39 19 77 -5 35 -21 49 -55
39 -95 l-6 -25 224 0 c219 0 224 0 219 20 -6 22 14 53 28 44 5 -3 9 -18 9 -35
0 -24 4 -29 23 -29 19 0 26 9 38 48 10 35 19 48 36 50 32 5 49 -32 29 -63 -9
-14 -16 -27 -16 -30 0 -3 32 -5 70 -5 l70 0 0 45 0 45 -40 0 c-22 0 -40 4 -40
10 0 13 34 30 59 30 12 0 21 5 21 11 0 7 9 9 22 6 12 -3 30 -1 40 4 11 6 22 8
25 6 9 -9 -17 -46 -37 -52 -16 -5 -20 -15 -20 -56 l0 -49 654 0 c636 0 654 1
649 19 -3 13 -11 17 -24 14 -25 -7 -24 5 1 25 13 10 27 43 36 81 16 72 48 131
70 131 22 0 9 -61 -31 -145 -23 -48 -31 -79 -28 -98 6 -33 25 -35 47 -4 l17
22 -6 -22 -6 -23 514 0 c445 0 516 2 527 15 16 19 44 19 60 0 11 -13 60 -15
364 -13 l351 3 5 40 c3 22 9 45 13 52 9 15 37 6 37 -12 0 -7 7 -16 16 -19 18
-7 16 -51 -3 -51 -6 0 -15 -3 -19 -7 -4 -5 122 -8 279 -8 l287 0 0 1754 0
1754 -24 6 c-18 4 -34 24 -57 71 -24 50 -38 67 -58 71 -73 16 -90 42 -83 125
3 44 11 64 33 90 21 25 29 29 29 17 0 -12 8 -18 25 -18 28 0 31 5 13 25 -7 7
-22 25 -32 39 -10 14 -25 26 -32 26 -7 0 -16 9 -19 20 -5 17 -15 20 -71 20
-60 0 -64 -1 -64 -23 0 -25 -28 -57 -49 -57 -7 0 -11 11 -9 28 2 20 -1 26 -13
24 -9 -1 -22 5 -29 13 -11 13 -64 15 -375 15 -358 0 -363 0 -358 -20 3 -11 0
-20 -6 -20 -7 0 -29 9 -51 20 -29 15 -59 20 -112 20 l-73 0 48 -30 c51 -33 65
-67 23 -56 -24 6 -25 4 -32 -60 -3 -37 -8 -87 -9 -113 -4 -70 -4 -73 -13 -67
-5 3 -7 65 -4 138 l4 134 -26 12 c-15 6 -29 19 -32 27 -5 13 -33 15 -170 15
l-164 0 2 -92 c0 -51 -5 -118 -11 -148 -15 -66 -60 -162 -80 -168 -17 -6 -14
7 25 98 24 56 28 82 32 188 l4 122 -82 0 c-74 0 -81 -2 -75 -17 4 -10 10 -39
12 -64 7 -64 -17 -89 -87 -89 l-50 0 0 85 0 85 -51 0 c-41 0 -49 -3 -41 -13 6
-7 15 -25 21 -40 17 -44 -14 -34 -41 13 -24 42 -60 53 -87 28 -11 -10 -14 -10
-18 0 -3 7 -24 12 -58 12 -44 0 -53 -3 -58 -20 -7 -26 -50 -26 -102 0 -27 14
-59 20 -101 20 -56 0 -62 -2 -57 -19 3 -10 14 -23 25 -28 18 -8 18 -10 5 -22
-13 -10 -19 -6 -39 28 l-23 41 -97 0 -98 0 0 -31 c0 -43 -17 -69 -44 -69 -29
0 -52 25 -61 68 l-7 32 -119 0 c-119 0 -119 0 -119 -24 0 -56 -51 -57 -78 -3
l-13 27 -1572 -1 -1572 -1 95 -20 c99 -20 140 -39 140 -62 0 -24 -25 -25 -162
-7 -131 18 -192 17 -214 0 -6 -5 -17 -31 -24 -57 -6 -26 -18 -59 -26 -74 -41
-77 13 -137 135 -151 55 -7 110 -42 93 -59 -5 -5 -54 -13 -108 -17 -54 -4
-110 -13 -124 -21 -49 -25 -70 -52 -70 -89 0 -23 -3 -31 -9 -23 -4 7 -6 23 -4
35 3 13 -9 48 -26 80 -30 57 -30 60 -15 95 8 20 23 46 33 57 22 23 36 179 25
264 l-7 51 -613 0 -614 0 0 -789z m7100 762 c0 -10 -4 -24 -9 -31 -7 -11 -10
-10 -15 3 -10 28 -7 45 9 45 8 0 15 -8 15 -17z m18 -151 c4 -28 -21 -39 -54
-23 -21 9 -23 14 -14 32 16 28 64 23 68 -9z m317 1 c11 -10 31 -16 57 -15 48
2 68 -11 68 -44 0 -34 -16 -39 -112 -39 l-88 0 0 26 c0 74 38 110 75 72z
m-3716 -39 c46 -18 72 -51 50 -64 -7 -5 -17 -6 -23 -4 -32 12 -143 21 -158 13
-31 -17 -52 -141 -27 -166 6 -6 28 -9 48 -6 45 6 81 -10 81 -36 0 -14 -13 -21
-60 -31 -88 -19 -92 -23 -101 -126 -4 -49 -8 -97 -8 -107 -1 -13 -7 -17 -23
-15 -22 3 -23 8 -28 115 -5 105 -7 113 -32 140 -37 38 -36 59 2 67 50 10 67
99 33 170 -18 39 -9 61 30 70 41 9 175 -3 216 -20z m3174 -6 c6 -17 1 -148 -6
-155 -12 -11 -37 7 -37 27 0 11 -4 20 -10 20 -16 0 -12 33 10 78 21 43 34 52
43 30z m230 -23 c-7 -19 -19 -19 -26 -1 -3 8 -1 17 6 19 18 6 27 -2 20 -18z
m258 -99 c12 -27 5 -91 -12 -102 -17 -10 -39 17 -39 50 0 73 29 101 51 52z
m195 -16 c13 0 24 5 24 11 0 18 73 3 87 -18 7 -9 13 -38 13 -64 0 -71 -32 -86
-53 -26 -4 10 -12 15 -18 12 -6 -4 -17 3 -26 14 -9 14 -23 21 -36 19 -19 -3
-22 2 -24 37 -1 22 0 34 3 28 3 -7 17 -13 30 -13z m-4492 -5 c41 -20 68 -67
68 -117 -1 -52 -13 -65 -49 -52 -24 8 -28 15 -28 48 0 43 -25 70 -46 49 -9 -9
-9 -19 -1 -40 10 -24 16 -88 13 -132 -1 -11 -13 -13 -53 -9 -29 3 -59 3 -65 1
-21 -8 -15 -38 17 -78 30 -38 38 -69 21 -80 -5 -3 -31 -1 -58 5 -47 11 -49 10
-75 -20 -19 -20 -28 -41 -28 -65 0 -63 30 -170 76 -266 39 -83 44 -101 38
-138 -4 -23 -18 -59 -32 -79 -14 -20 -28 -50 -31 -67 -6 -28 -13 -32 -86 -53
-51 -14 -100 -22 -135 -20 -48 3 -55 6 -58 25 -4 26 47 63 88 63 37 1 100 33
143 73 46 44 49 84 12 157 -53 104 -78 199 -78 295 0 95 5 111 58 184 14 19
25 48 25 65 0 45 21 78 55 89 47 15 63 35 76 95 6 31 19 62 28 69 22 17 67 16
105 -2z m3833 -37 c-3 -8 -6 -5 -6 6 -1 11 2 17 5 13 3 -3 4 -12 1 -19z m283
-4 c0 -8 -5 -12 -10 -9 -6 4 -8 11 -5 16 9 14 15 11 15 -7z m-276 -63 c-7 -35
-27 -37 -32 -2 -4 25 17 56 30 43 4 -4 5 -23 2 -41z m-2063 -9 c59 -6 116 -15
128 -21 26 -14 28 -59 5 -103 l-16 -30 -25 23 c-20 20 -37 24 -101 27 -42 2
-104 -1 -137 -5 l-60 -8 4 -141 c2 -77 6 -176 10 -220 l6 -79 97 3 c123 5 138
0 138 -42 0 -44 -27 -68 -67 -60 -20 4 -39 1 -54 -9 -13 -8 -43 -21 -66 -28
-25 -7 -45 -20 -48 -30 -6 -19 13 -418 21 -430 9 -15 135 -21 211 -11 89 12
123 8 123 -17 0 -23 -54 -56 -135 -83 -56 -18 -92 -23 -181 -23 -128 0 -150 9
-139 59 27 132 29 188 15 596 -22 620 -21 643 22 659 12 4 48 2 82 -5 34 -7
109 -17 167 -22z m2229 23 c0 -8 -7 -15 -15 -15 -16 0 -20 12 -8 23 11 12 23
8 23 -8z m-583 -84 c39 -58 58 -137 58 -241 0 -76 -4 -102 -18 -124 -22 -33
-17 -41 31 -41 33 0 37 -3 40 -28 2 -16 -2 -35 -8 -43 -19 -21 -84 -37 -124
-30 -47 9 -47 25 1 130 33 71 37 91 38 161 0 67 -4 87 -25 125 -19 34 -31 45
-50 45 -23 0 -26 -6 -40 -73 -8 -40 -19 -71 -25 -69 -5 2 -11 38 -13 79 -3 74
-2 76 32 113 43 45 71 44 103 -4z m634 23 c10 -13 10 -17 -2 -25 -23 -14 -39
-10 -39 9 0 34 20 42 41 16z m-4941 -24 c19 -6 89 -17 154 -24 110 -14 135
-22 136 -49 1 -34 -232 -25 -317 13 -53 23 -60 62 -13 69 3 1 21 -4 40 -9z
m1568 -68 c2 -28 6 -52 9 -52 4 0 17 10 30 22 20 18 26 20 48 10 15 -7 33 -28
41 -47 17 -42 19 -181 2 -191 -15 -10 -39 26 -32 48 8 26 -6 108 -19 108 -6 0
-30 -18 -52 -40 -68 -66 -92 -38 -82 94 6 85 14 108 36 104 12 -2 17 -17 19
-56z m-2529 -72 c1 -55 -14 -69 -29 -26 -9 30 -9 44 1 68 11 27 14 29 20 12 4
-10 8 -35 8 -54z m6681 45 c0 -7 8 -18 18 -24 14 -8 15 -13 4 -28 -7 -10 -15
-26 -18 -35 -8 -24 -24 -23 -24 2 0 11 -7 23 -15 26 -20 8 -29 42 -15 59 16
19 50 19 50 0z m-572 -42 c5 -10 6 -27 1 -38 -10 -27 -11 -47 0 -41 4 3 18 -5
31 -19 l22 -24 -25 -25 c-15 -14 -31 -26 -37 -26 -5 0 -10 -7 -10 -15 0 -8 -4
-15 -9 -15 -15 0 -22 51 -23 179 0 37 35 54 50 24z m-5513 -35 c14 -6 25 -17
25 -24 0 -15 -130 -203 -175 -252 -42 -47 -56 -53 -98 -41 -51 14 -55 30 -44
204 1 17 -1 44 -5 60 -8 37 3 58 25 49 11 -4 17 -18 17 -39 0 -41 18 -56 74
-62 43 -5 44 -4 77 43 32 48 57 73 71 74 4 0 19 -5 33 -12z m5669 -25 c4 -4
15 -8 24 -8 13 0 17 -9 18 -35 1 -20 6 -45 13 -57 12 -24 0 -40 -21 -27 -7 5
-24 7 -39 6 -18 -2 -29 5 -39 23 -7 14 -19 25 -27 25 -7 0 -13 5 -13 11 0 5 5
7 10 4 6 -3 10 -2 10 4 0 10 42 61 51 61 3 0 9 -3 13 -7z m-5179 -63 c11 -12
15 -24 9 -29 -5 -5 -52 -13 -104 -19 -107 -11 -165 1 -158 35 4 22 29 28 142
31 82 3 93 1 111 -18z m-1777 -16 c6 -40 -109 -115 -128 -84 -12 19 7 72 32
93 31 26 92 20 96 -9z m3455 -154 c3 -39 7 -47 36 -59 23 -11 31 -21 29 -35
-4 -25 7 -26 -363 14 -238 25 -311 38 -337 59 -30 25 -18 55 20 47 26 -5 198
-37 308 -56 28 -4 100 -10 160 -11 l109 -3 3 30 c8 86 28 94 35 14z m1322 45
c75 -19 170 -76 170 -102 0 -26 -36 -27 -143 -3 -50 11 -113 20 -140 20 -77 0
-117 44 -76 84 20 21 110 21 189 1z m338 -78 c10 -45 23 -122 30 -172 9 -64
15 -84 20 -69 4 12 21 40 37 63 59 81 109 38 131 -114 6 -41 14 -75 18 -75 3
0 22 28 40 63 37 67 68 107 85 107 12 0 33 -71 48 -165 11 -70 3 -222 -14
-242 -24 -29 -33 7 -33 135 0 80 -4 134 -12 147 -11 18 -15 13 -42 -50 -65
-148 -95 -200 -116 -200 -18 0 -20 6 -17 70 2 79 -14 250 -27 272 -14 25 -50
-51 -61 -127 -18 -130 -41 -264 -46 -272 -12 -19 -33 -6 -39 25 -18 110 -43
687 -29 687 5 0 17 -37 27 -83z m1172 63 c8 -13 -14 -52 -26 -45 -15 10 -11
55 5 55 8 0 18 -4 21 -10z m205 -104 c0 -8 -4 -18 -10 -21 -5 -3 -10 3 -10 14
0 12 5 21 10 21 6 0 10 -6 10 -14z m201 -79 c8 -32 8 -47 -4 -76 -23 -53 -31
-90 -31 -146 -1 -55 -20 -70 -50 -39 -19 18 -16 86 6 172 6 23 8 63 4 89 -5
36 -2 50 11 65 17 19 18 19 35 -2 10 -12 23 -40 29 -63z m-441 -2 c0 -18 -5
-25 -19 -25 -24 0 -33 13 -25 34 10 27 44 20 44 -9z m-430 -4 c15 -30 12 -87
-6 -106 -22 -21 -38 -14 -42 18 -5 38 -17 34 -35 -10 -32 -82 -47 -150 -47
-219 0 -66 3 -75 29 -103 31 -33 50 -38 84 -19 28 14 45 35 58 71 12 30 29 36
29 9 0 -70 -84 -192 -133 -192 -33 0 -74 35 -93 78 -41 93 -9 344 57 447 23
37 34 45 58 45 20 0 34 -7 41 -19z m-6070 -40 c294 -36 333 -40 445 -47 131
-7 290 -25 475 -54 74 -11 207 -25 294 -30 88 -6 162 -12 164 -15 2 -2 2 -12
-2 -21 -5 -12 -14 -15 -34 -11 -15 4 -85 11 -157 17 -323 25 -381 31 -560 50
-104 11 -221 24 -260 29 -38 6 -106 13 -150 17 -154 12 -430 43 -447 49 -14 6
-16 11 -7 27 8 16 18 19 42 14 18 -3 106 -14 197 -25z m6760 -12 c0 -5 -11 -9
-25 -9 -24 0 -32 10 -19 22 8 8 44 -3 44 -13z m-1634 -16 c11 -42 -6 -55 -102
-80 -162 -42 -217 -43 -227 -1 -11 41 10 52 178 88 120 27 143 26 151 -7z
m-1753 -81 c28 -25 45 -63 52 -118 9 -64 -9 -108 -69 -172 l-46 -49 63 -53
c138 -118 520 -498 681 -678 65 -72 123 -132 128 -132 5 0 12 -10 17 -23 7
-18 61 -85 119 -146 8 -9 45 -15 103 -19 l89 -5 0 81 0 82 -40 25 c-55 35 -71
65 -77 139 -7 82 11 139 78 251 48 80 88 115 131 115 62 0 125 -111 115 -205
-13 -120 -74 -247 -136 -283 -27 -15 -29 -21 -34 -96 -3 -45 -4 -82 -3 -84 2
-1 62 -3 134 -5 72 -1 134 -6 138 -10 5 -4 3 -16 -2 -25 -9 -14 -27 -17 -90
-18 -101 -1 -283 -13 -308 -21 -19 -5 -19 -6 -2 -18 9 -7 16 -15 15 -17 -2 -1
8 -18 21 -35 26 -35 44 -42 53 -19 11 29 52 47 80 37 52 -20 81 -139 42 -167
-26 -19 -35 -9 -28 31 7 45 -19 88 -50 83 -14 -2 -23 -11 -25 -26 -3 -18 31
-57 165 -190 165 -165 258 -242 378 -315 82 -49 115 -61 115 -42 0 28 21 26
31 -4 15 -43 49 -43 49 0 0 17 4 28 10 24 6 -3 10 -22 10 -41 0 -29 3 -34 24
-34 19 0 25 7 33 43 l11 42 1 -47 1 -48 80 0 80 0 15 33 c8 17 24 65 35 105
12 39 25 72 31 72 6 0 10 -31 9 -78 -2 -103 -2 -102 14 -102 40 0 280 149 294
182 2 5 9 8 15 8 36 0 -159 -151 -255 -198 -48 -23 -67 -38 -72 -56 -3 -13 -3
-77 1 -143 9 -161 9 -220 0 -229 -18 -18 -27 27 -27 141 -1 123 -7 226 -15
233 -10 10 -25 -13 -51 -78 -15 -39 -33 -70 -41 -70 -19 0 -16 18 12 79 14 30
22 58 18 61 -4 4 -42 4 -83 0 -54 -5 -69 -9 -52 -15 41 -14 20 -36 -45 -48
-25 -5 -33 -3 -33 8 0 7 9 17 20 20 26 8 26 42 -1 50 -26 8 -39 -8 -39 -48 0
-41 -22 -29 -38 21 -14 43 -32 56 -32 25 0 -32 -21 -94 -29 -88 -5 3 -5 22 0
42 18 79 16 84 -73 133 -141 78 -273 187 -472 389 -55 55 -102 99 -104 97 -5
-6 16 -83 43 -151 26 -69 39 -158 30 -208 -15 -79 -127 -75 -189 6 -30 39 -32
50 -11 67 12 10 21 4 53 -29 32 -33 46 -41 75 -41 37 0 37 0 37 43 0 23 -18
93 -40 156 -26 73 -40 132 -40 163 0 42 -6 56 -37 95 -21 25 -49 49 -61 54
-13 5 -26 18 -29 29 -3 11 -11 20 -18 20 -7 0 -18 14 -24 31 -6 16 -26 47 -45
67 -18 20 -46 50 -60 66 -25 28 -28 29 -65 18 -52 -16 -103 -15 -127 2 -27 21
-9 35 55 43 28 3 54 10 57 15 5 8 -37 61 -170 208 -27 30 -130 135 -228 233
-124 123 -185 177 -201 177 -13 0 -74 39 -141 90 -65 50 -127 90 -137 90 -12
0 -21 -9 -24 -27 -18 -88 -26 -104 -48 -101 -21 3 -22 7 -18 94 2 56 -1 100
-8 113 -7 11 -37 34 -69 51 -67 34 -66 37 4 10 71 -26 80 -17 87 87 4 71 9 88
37 128 50 73 123 93 173 47z m3162 -12 c0 -41 -28 -50 -33 -11 -3 19 -6 21
-13 10 -6 -10 -9 -6 -9 14 0 25 3 28 28 25 24 -3 27 -7 27 -38z m194 -14 c7
-8 20 -12 30 -9 24 6 38 -31 21 -52 -7 -8 -10 -24 -7 -35 3 -11 1 -20 -4 -20
-5 0 -9 9 -9 20 0 24 -30 57 -57 62 -26 5 -31 48 -5 48 11 0 25 -6 31 -14z
m-259 -28 c0 -15 -32 -21 -40 -7 -13 20 9 43 26 28 8 -6 14 -16 14 -21z m263
-101 c6 -15 -29 -41 -43 -32 -14 9 -12 32 3 38 22 9 35 7 40 -6z m-3788 -57
c13 -6 15 -9 5 -9 -8 0 -22 4 -30 9 -18 12 -2 12 25 0z m-2704 -67 c17 -3 33
-12 36 -20 7 -19 -16 -43 -42 -43 -29 0 -48 -24 -51 -63 -4 -52 -13 -76 -33
-87 -39 -20 -51 -3 -51 71 l0 69 -40 20 c-43 22 -51 42 -22 60 17 11 136 7
203 -7z m-261 -2 c0 -10 -30 -24 -37 -17 -3 3 -2 9 2 15 8 13 35 15 35 2z
m680 -11 c0 -5 -7 -10 -15 -10 -8 0 -15 5 -15 10 0 6 7 10 15 10 8 0 15 -4 15
-10z m5808 -32 c3 -16 -42 -48 -66 -48 -20 0 -21 31 -1 51 23 23 62 22 67 -3z
m-5378 4 c0 -14 -23 -32 -41 -32 -21 0 -33 16 -24 30 7 12 65 14 65 2z m5603
-52 c0 -35 -37 -80 -52 -65 -21 22 -21 60 0 94 19 31 22 32 36 18 9 -9 16 -30
16 -47z m-2987 5 c10 -24 -4 -65 -20 -59 -16 6 -27 40 -19 60 7 19 32 18 39
-1z m-3074 -1 c14 -13 -6 -44 -27 -44 -26 0 -39 22 -22 39 12 12 40 15 49 5z
m5786 -62 c2 -19 11 -36 23 -42 27 -15 24 -35 -11 -60 -39 -28 -41 -73 -3
-112 22 -23 24 -30 13 -43 -16 -19 -44 -19 -59 -1 -12 14 -9 138 5 254 6 50
27 53 32 4z m-5373 -32 c0 -32 -27 -47 -62 -34 -35 12 -37 44 -4 60 32 17 66
3 66 -26z m5539 -5 c3 -8 4 -21 2 -27 -3 -7 -7 -25 -10 -40 -5 -22 -12 -28
-33 -28 -25 0 -26 1 -19 46 3 25 8 50 12 55 9 14 41 10 48 -6z m111 5 c3 -5
14 -10 23 -10 9 -1 31 -18 47 -40 20 -26 36 -37 47 -34 13 4 19 -3 26 -28 11
-40 8 -50 -19 -66 -16 -10 -27 -10 -57 0 -20 7 -42 16 -49 21 -6 4 -14 3 -18
-3 -11 -18 -24 -11 -41 22 -20 38 -21 112 -4 133 14 17 36 20 45 5z m-5890
-56 c15 -6 45 -54 45 -73 0 -19 -32 -41 -59 -41 -17 0 -36 10 -49 25 -15 17
-32 25 -54 25 -37 0 -118 34 -118 49 0 5 6 12 13 14 18 8 203 8 222 1z m128
-56 c-8 -14 -41 -8 -47 8 -10 27 4 35 29 17 12 -10 21 -21 18 -25z m126 7 c2
-2 1 -11 -2 -20 -7 -17 -44 -20 -66 -6 -25 16 6 44 38 36 14 -4 28 -8 30 -10z
m219 -7 c-4 -26 -32 -35 -90 -30 -23 3 -37 9 -35 16 4 14 63 35 100 35 24 1
28 -3 25 -21z m2949 -40 c-3 -8 -6 -5 -6 6 -1 11 2 17 5 13 3 -3 4 -12 1 -19z
m1383 -35 c0 -13 5 -23 10 -23 6 0 10 9 10 20 0 31 17 23 24 -11 9 -45 7 -79
-3 -79 -5 0 -13 9 -16 20 -3 11 -15 20 -26 20 -10 0 -19 4 -19 9 0 4 -11 6
-25 3 -25 -4 -25 -6 -25 -103 0 -59 -4 -99 -10 -99 -6 0 -10 40 -10 100 0 82
-3 100 -15 100 -22 0 -18 27 5 33 12 3 34 2 50 -3 29 -8 30 -8 30 28 0 28 3
33 10 22 5 -8 10 -25 10 -37z m-1073 5 c-3 -7 -5 -2 -5 12 0 14 2 19 5 13 2
-7 2 -19 0 -25z m90 0 c-3 -7 -5 -2 -5 12 0 14 2 19 5 13 2 -7 2 -19 0 -25z
m399 -88 c10 -30 21 -59 25 -64 4 -4 13 20 21 55 8 34 19 64 25 66 13 5 23
-69 22 -166 -1 -87 -17 -72 -18 17 -1 28 -5 52 -11 52 -5 0 -10 -10 -10 -23 0
-13 -6 -32 -14 -42 -14 -19 -15 -19 -25 8 -36 90 -32 88 -47 27 -7 -30 -13
-65 -14 -77 0 -13 -4 -23 -10 -23 -13 0 -12 17 5 130 8 52 15 99 15 105 0 20
18 -12 36 -65z m2085 30 c26 -48 25 -97 -1 -105 -13 -4 -31 0 -45 9 -21 14
-25 24 -25 70 0 29 3 56 7 60 16 15 47 -1 64 -34z m-1638 -57 c19 -11 4 -25
-24 -21 l-30 5 6 -74 c8 -80 2 -88 -37 -48 -41 41 -45 96 -10 138 12 13 24 16
51 11 20 -4 39 -9 44 -11z m-273 -87 c0 -7 -9 -22 -21 -35 -25 -27 -18 -55 11
-46 11 3 20 2 20 -4 0 -31 -65 -23 -75 9 -15 48 23 122 51 99 8 -6 14 -17 14
-23z m110 14 c0 -5 -3 -10 -7 -10 -5 0 -18 -3 -30 -6 -17 -5 -23 -2 -23 10 0
11 9 16 30 16 17 0 30 -4 30 -10z m0 -47 c0 -17 -15 -24 -34 -17 -25 10 -19
32 9 30 14 0 25 -6 25 -13z m1420 -55 c-2 -23 -32 -82 -51 -99 l-24 -21 -3 25
c-4 33 35 97 59 97 10 0 19 -1 19 -2z m-5582 -47 c11 -7 12 -12 1 -29 -11 -17
-49 -42 -65 -42 -11 0 -21 46 -12 63 9 18 53 23 76 8z m4762 -41 c0 -6 -7 -13
-15 -16 -10 -4 -15 -21 -16 -53 -1 -25 -5 -59 -10 -76 -6 -21 -7 -6 -5 51 1
44 6 86 10 92 9 15 36 16 36 2z m64 -39 c8 -13 -11 -61 -24 -61 -11 0 -13 30
-4 54 7 18 20 21 28 7z m-1999 -61 c28 -11 33 -41 10 -60 -13 -10 -19 -10 -33
2 -24 21 -82 30 -141 22 l-51 -7 6 -86 c7 -100 -6 -181 -40 -257 -22 -47 -29
-54 -54 -54 -71 0 -105 83 -119 288 -6 95 6 113 89 140 35 12 72 23 83 26 30
8 222 -3 250 -14z m1804 -22 c-3 -33 0 -42 15 -48 18 -6 18 -7 -4 -23 -24 -17
-45 -13 -37 7 17 46 18 56 3 56 -19 0 -21 21 -4 38 22 22 30 13 27 -30z m814
14 c-10 -28 -24 -42 -43 -42 -25 0 -14 45 13 58 27 12 38 6 30 -16z m-1188 8
c4 -6 1 -34 -5 -62 -14 -56 -7 -68 36 -60 13 2 24 0 24 -6 0 -16 -69 -27 -82
-14 -8 8 -8 27 2 67 7 30 10 58 7 61 -3 4 -9 -5 -13 -20 -3 -14 -11 -26 -16
-26 -13 0 0 52 15 62 16 11 25 10 32 -2z m521 -36 c-4 -9 -9 -15 -11 -12 -3 3
-3 13 1 22 4 9 9 15 11 12 3 -3 3 -13 -1 -22z m1571 -31 c22 -28 0 -50 -44
-45 -48 6 -58 21 -31 49 23 25 53 23 75 -4z m-2287 -8 c0 -11 -7 -14 -24 -9
-28 7 -34 -15 -34 -117 0 -77 4 -85 38 -91 l25 -4 -30 -12 c-16 -7 -38 -17
-47 -22 -10 -6 -27 -10 -39 -10 -28 0 -21 34 9 38 13 2 24 12 27 25 8 40 0
182 -10 180 -5 0 -19 -3 -29 -5 -30 -5 -30 19 1 30 45 17 113 15 113 -3z m510
-33 c0 -48 -21 -146 -36 -169 -36 -57 -91 -5 -81 77 10 87 25 92 23 9 -1 -70
0 -74 22 -77 31 -5 52 48 52 128 0 33 4 60 10 60 6 0 10 -13 10 -28z m1546 2
c39 -30 46 -60 12 -51 -11 3 -37 -1 -56 -9 -29 -12 -37 -12 -44 -2 -13 21 -9
50 9 70 22 24 38 23 79 -8z m-1152 7 c9 -14 -4 -41 -19 -41 -18 0 -28 17 -21
35 6 17 32 20 40 6z m-124 -30 c0 -10 -42 -23 -49 -15 -7 6 20 24 37 24 6 0
12 -4 12 -9z m-5536 -46 c3 -9 19 -21 35 -26 55 -19 48 -69 -13 -89 -37 -12
-86 3 -86 26 0 12 -40 49 -62 56 -6 2 -8 13 -4 26 7 19 14 22 66 22 43 0 59
-4 64 -15z m5106 -25 c8 -5 11 -12 8 -15 -9 -10 -88 5 -88 16 0 12 61 11 80
-1z m-1390 -24 c0 -26 -29 -38 -97 -39 -55 -2 -68 1 -71 14 -4 23 38 37 111
38 42 1 57 -3 57 -13z m-4164 -43 c10 -35 10 -47 -4 -75 -18 -35 -58 -55 -87
-44 -14 5 -16 13 -10 43 8 43 62 126 78 120 6 -2 17 -22 23 -44z m6012 30 c-5
-25 -28 -28 -28 -4 0 12 6 21 16 21 9 0 14 -7 12 -17z m-155 -118 l-7 -50 -6
41 c-3 22 -4 60 -1 85 l4 44 8 -35 c5 -19 5 -57 2 -85z m424 98 c13 -37 24
-44 46 -28 30 21 67 19 67 -3 0 -10 -5 -23 -11 -29 -6 -6 -17 -22 -23 -35 -12
-23 -56 -38 -56 -19 0 6 -14 18 -30 26 -27 14 -30 20 -26 53 3 20 5 40 5 45 2
14 22 7 28 -10z m-737 -13 c0 -4 -7 -10 -15 -14 -8 -3 -15 -17 -15 -31 0 -22
-4 -26 -22 -23 -20 3 -22 8 -20 38 2 19 6 38 8 41 5 8 64 -2 64 -11z m412 1
c9 -14 16 -17 29 -11 23 13 61 -26 39 -40 -8 -5 -23 -7 -33 -4 -30 9 -49 -15
-42 -53 4 -25 2 -35 -10 -39 -8 -3 -15 -14 -16 -23 0 -9 -6 -3 -14 14 -22 51
-5 175 25 175 6 0 15 -9 22 -19z m-695 -24 c6 2 14 -1 18 -7 5 -8 11 -8 20 0
20 17 35 3 35 -31 0 -29 -15 -40 -23 -16 -3 9 -8 8 -22 -3 -14 -12 -19 -12
-23 -2 -3 10 -7 10 -18 1 -23 -19 -33 1 -27 50 5 38 7 41 17 24 6 -11 16 -18
23 -16z m500 -1 c33 -8 46 -26 37 -51 -4 -10 -15 -12 -33 -9 -21 4 -30 1 -34
-11 -11 -28 -27 -6 -27 39 0 43 9 64 19 47 3 -4 20 -12 38 -15z m816 9 c27
-19 18 -49 -16 -53 -24 -3 -27 0 -27 26 0 44 12 51 43 27z m102 -25 c4 -6 -6
-10 -22 -10 -22 0 -25 2 -13 10 19 12 27 12 35 0z m174 -27 c6 -20 9 -38 7
-40 -2 -2 -18 8 -35 23 -30 25 -30 27 -14 40 27 20 31 18 42 -23z m-4489 -8
c0 -8 -7 -15 -16 -15 -14 0 -14 3 -4 15 7 8 14 15 16 15 2 0 4 -7 4 -15z
m2813 8 c-7 -2 -21 -2 -30 0 -10 3 -4 5 12 5 17 0 24 -2 18 -5z m-2023 -18 c7
-8 11 -15 9 -16 -34 -5 -382 -2 -385 3 -3 5 16 9 43 9 26 1 93 5 148 9 163 11
172 11 185 -5z m1373 8 c-13 -2 -33 -2 -45 0 -13 2 -3 4 22 4 25 0 35 -2 23
-4z m64 1 c-3 -3 -12 -4 -19 -1 -8 3 -5 6 6 6 11 1 17 -2 13 -5z m90 0 c-3 -3
-12 -4 -19 -1 -8 3 -5 6 6 6 11 1 17 -2 13 -5z m-374 -11 c-7 -2 -19 -2 -25 0
-7 3 -2 5 12 5 14 0 19 -2 13 -5z m-3549 -12 c3 -5 -9 -16 -28 -25 -59 -28
-90 -15 -43 17 24 18 63 22 71 8z m4753 -67 c-3 -3 -12 -4 -19 -1 -8 3 -5 6 6
6 11 1 17 -2 13 -5z m-4539 -16 c-7 -19 -38 -22 -38 -4 0 10 9 16 21 16 12 0
19 -5 17 -12z m1492 -7 c0 -12 -29 -35 -36 -28 -11 10 5 37 21 37 8 0 15 -4
15 -9z m3400 -63 c0 -12 -28 -10 -35 2 -4 6 -4 19 0 28 6 16 8 15 21 -2 8 -11
14 -23 14 -28z m-2964 -30 c-3 -35 -2 -69 3 -77 15 -23 51 -2 82 50 37 59 53
63 43 12 -4 -21 -7 -53 -7 -70 1 -36 -10 -43 -25 -16 -9 16 -11 16 -36 0 -14
-9 -36 -17 -50 -17 -35 0 -56 -26 -56 -69 0 -57 -18 -101 -42 -101 -16 0 -19
5 -15 23 3 12 10 49 16 82 6 33 16 79 21 103 6 23 10 55 10 71 0 20 9 36 26
50 15 12 29 21 32 21 2 0 1 -28 -2 -62z m-1525 2 c10 -27 15 -30 54 -30 46 0
81 -24 56 -40 -7 -4 -22 -5 -32 -3 -11 3 -33 -5 -53 -21 -68 -52 -108 -24 -85
60 19 69 43 83 60 34z m1054 -40 c-7 -22 -50 -48 -61 -37 -13 12 7 58 29 66
28 11 41 -1 32 -29z m4053 18 c12 -16 50 -142 54 -183 2 -22 8 -30 23 -30 31
0 31 -33 0 -47 -25 -11 -29 -10 -47 15 -14 20 -28 27 -53 27 -48 0 -57 17 -49
92 5 35 7 69 5 77 -1 7 0 24 3 37 7 27 46 33 64 12z m-148 -77 c0 -75 -48
-171 -52 -104 -5 84 11 153 37 153 11 0 15 -12 15 -49z m-5766 30 c3 -4 2 -28
-2 -52 -6 -35 -12 -45 -29 -47 -18 -3 -23 3 -28 32 -10 49 1 76 30 76 13 0 26
-4 29 -9z m2645 -7 c9 -8 -7 -15 -45 -21 -45 -6 -64 -26 -64 -64 0 -31 -19
-51 -21 -22 -2 27 3 107 7 114 3 6 116 -1 123 -7z m-549 -31 c0 -13 -64 -73
-77 -73 -16 0 -17 34 -3 61 8 13 21 19 45 19 19 0 35 -3 35 -7z m1617 -45 c-3
-7 -5 -2 -5 12 0 14 2 19 5 13 2 -7 2 -19 0 -25z m-41 -22 c-7 -43 -6 -44 19
-41 19 2 25 -1 21 -12 -3 -8 -6 -21 -6 -29 0 -26 -39 -54 -75 -54 -43 0 -46
18 -5 27 39 7 46 19 20 33 -12 6 -20 17 -17 23 2 7 8 23 12 37 6 20 5 23 -6
13 -17 -17 -29 -16 -29 2 0 13 43 44 64 45 4 0 5 -20 2 -44z m-234 10 c8 -19
7 -34 -6 -66 -22 -55 -21 -60 15 -60 42 0 33 -22 -14 -34 -57 -14 -66 1 -39
67 12 29 22 60 22 70 0 30 -27 18 -45 -19 -12 -25 -20 -33 -25 -24 -10 17 -2
44 21 69 26 28 57 27 71 -3z m1468 -20 c0 -3 -4 -8 -10 -11 -5 -3 -10 -1 -10
4 0 6 5 11 10 11 6 0 10 -2 10 -4z m-4180 -46 c0 -13 -9 -22 -25 -26 -35 -9
-42 1 -20 26 23 26 45 26 45 0z m2280 -84 c0 -3 -12 -42 -26 -86 -14 -45 -24
-84 -21 -86 5 -5 68 16 83 28 6 4 14 27 17 49 3 23 11 47 17 53 10 8 11 -2 6
-46 -5 -51 -4 -57 14 -63 27 -9 27 -45 0 -45 -26 0 -29 -9 -32 -100 -2 -42 -7
-74 -13 -72 -5 1 -8 38 -6 86 1 50 -2 86 -8 90 -5 4 -27 0 -47 -9 -61 -25 -73
-21 -64 21 5 20 13 48 18 62 5 15 17 48 27 75 9 26 21 47 26 47 5 0 9 -2 9 -4z
m335 -47 c0 -10 -19 -15 -70 -19 l-70 -5 -3 -50 c-3 -47 -2 -49 12 -30 14 18
15 13 16 -67 0 -88 -11 -112 -30 -65 -5 12 -9 16 -9 10 -1 -7 -6 -13 -12 -13
-8 0 -9 29 -4 101 7 97 6 100 -14 106 -11 3 -21 9 -21 13 0 19 32 29 105 32
99 5 100 4 100 -13z m3189 -8 c8 -12 -22 -111 -33 -111 -12 0 -21 26 -21 60 0
16 3 35 6 44 7 17 39 22 48 7z m-3034 -33 c0 -29 1 -30 18 -15 10 9 33 20 50
23 28 6 32 4 32 -14 0 -26 -19 -39 -31 -21 -7 11 -14 9 -34 -11 -18 -18 -29
-44 -36 -88 -6 -34 -15 -62 -20 -62 -10 0 -12 141 -3 189 8 40 24 40 24 -1z
m1350 23 c0 -13 -68 -34 -87 -27 -30 12 7 30 70 35 9 0 17 -3 17 -8z m1737
-77 c7 -19 -20 -49 -36 -40 -12 8 -15 39 -4 49 12 12 33 7 40 -9z m-789 -6
c-8 -22 -53 -49 -71 -42 -24 9 -21 33 6 44 33 13 69 12 65 -2z m-275 -15 c10
-9 -25 -32 -50 -33 -24 0 -32 25 -10 33 18 8 53 8 60 0z m-1388 -43 c8 -13
-18 -60 -49 -89 -31 -30 -34 -20 -5 20 l21 30 -29 -7 c-15 -4 -36 -11 -45 -15
-22 -12 -28 -11 -28 2 0 5 17 17 38 26 20 9 31 18 24 20 -6 3 -10 9 -6 14 7
12 71 12 79 -1z m1205 -58 c0 -11 -9 -27 -20 -37 -15 -13 -20 -31 -20 -65 0
-57 20 -81 51 -62 17 11 19 9 19 -13 0 -17 -9 -29 -30 -40 -28 -14 -31 -14
-50 5 -11 11 -20 29 -20 40 0 26 -14 25 -33 -2 -8 -13 -25 -34 -36 -48 -20
-22 -22 -31 -15 -97 5 -61 4 -73 -9 -73 -8 0 -17 6 -20 14 -10 25 -31 332 -24
349 11 30 56 20 93 -19 31 -32 54 -38 54 -13 0 5 7 25 14 44 16 37 46 48 46
17z m194 3 c4 -11 -3 -19 -20 -25 -33 -13 -39 -13 -53 4 -10 11 -8 17 6 25 26
15 60 13 67 -4z m-5325 -42 c0 -10 -13 -38 -28 -63 -20 -33 -34 -45 -51 -45
-39 0 -34 21 16 75 50 53 64 61 63 33z m4194 -77 c-6 -83 6 -105 32 -56 23 44
35 37 35 -20 0 -27 -4 -50 -10 -50 -5 0 -10 12 -10 27 l0 27 -16 -22 c-18 -26
-39 -28 -49 -4 -12 32 -35 -16 -35 -74 0 -37 -6 -58 -20 -75 -20 -24 -20 -24
-35 -5 -20 27 -19 56 5 86 13 17 20 41 20 73 0 30 4 46 10 42 6 -3 10 -16 10
-28 1 -43 27 24 33 85 6 62 13 81 27 73 5 -3 6 -38 3 -79z m1837 65 c0 -33
-11 -51 -31 -51 -24 0 -25 27 -2 52 21 23 33 23 33 -1z m-2175 -41 c18 -20 18
-22 1 -57 -14 -29 -15 -38 -4 -44 7 -5 16 -9 20 -9 4 0 15 -11 24 -25 13 -21
15 -31 6 -50 -13 -27 -89 -82 -99 -71 -8 8 -5 163 4 214 4 28 2 32 -16 32 -21
0 -27 10 -14 23 14 14 61 6 78 -13z m-415 -6 c0 -3 -5 -14 -11 -25 -8 -16 -13
-18 -25 -8 -16 13 -97 1 -186 -30 -29 -10 -96 -26 -148 -35 -125 -23 -221 -46
-243 -58 -17 -9 -17 -11 7 -33 20 -19 23 -28 17 -51 -5 -19 -15 -30 -29 -32
-12 -2 -22 1 -22 6 0 6 9 8 21 5 18 -5 20 -2 17 28 -2 25 -8 34 -20 33 -11 -1
-18 5 -18 16 0 14 -9 17 -50 16 -43 -1 -50 -4 -50 -21 -1 -18 -1 -19 -11 -2
-12 20 -4 37 16 37 8 0 61 13 117 29 57 17 144 37 193 45 50 9 151 32 225 51
126 32 200 43 200 29z m2229 -8 c8 -10 6 -24 -9 -59 -31 -69 -70 -75 -70 -11
0 24 8 43 25 59 28 28 38 31 54 11z m-1039 -11 c0 -10 -10 -15 -28 -15 -15 0
-57 -6 -94 -14 -67 -14 -148 -11 -148 5 0 5 28 9 63 9 34 0 85 7 112 14 68 19
95 19 95 1z m-570 -25 c0 -15 -36 -30 -72 -29 l-33 0 40 19 c46 21 65 24 65
10z m-1405 -19 c10 -18 -33 -31 -101 -31 -77 0 -77 14 1 28 68 13 93 14 100 3z
m-2667 -20 c9 -5 25 -12 36 -15 17 -6 17 -8 -6 -38 -13 -17 -40 -40 -58 -50
-38 -20 -90 -24 -90 -7 0 23 33 80 58 99 28 23 35 24 60 11z m4042 -41 c0 -12
-45 -24 -65 -16 -29 11 -15 26 25 26 22 0 40 -4 40 -10z m-1413 -33 c-5 -15
-129 -38 -141 -26 -13 12 -10 13 64 30 67 16 84 15 77 -4z m312 -9 c11 -31 -2
-63 -25 -63 -23 0 -30 35 -14 64 14 27 29 27 39 -1z m348 6 c3 -10 1 -31 -6
-48 -25 -62 -25 -63 8 -58 40 6 40 -13 1 -33 -38 -20 -80 -20 -80 0 0 9 12 33
26 55 32 48 27 76 -11 58 -27 -12 -41 -6 -30 12 18 29 83 38 92 14z m-3177
-34 c0 -5 -4 -10 -10 -10 -5 0 -10 5 -10 10 0 6 5 10 10 10 6 0 10 -4 10 -10z
m-612 -19 c17 -10 -12 -66 -48 -92 -29 -21 -111 -30 -117 -13 -6 19 48 76 92
95 45 21 54 22 73 10z m81 -87 c-13 -16 -49 -19 -49 -4 0 13 31 29 47 23 10
-4 11 -9 2 -19z"/>
<path d="M3587 2679 c-28 -16 -45 -66 -53 -152 -8 -91 4 -104 61 -66 70 48 98
143 58 196 -23 32 -40 37 -66 22z"/>
<path d="M4845 1949 c-61 -54 -92 -199 -60 -281 4 -10 3 -18 -3 -18 -6 0 -19
26 -30 58 l-20 57 -1 -68 c-1 -72 15 -119 48 -136 26 -14 31 -5 31 58 0 31 4
62 9 70 17 26 31 -1 31 -60 0 -42 4 -59 13 -59 17 0 71 74 97 132 36 79 22
209 -27 254 -34 31 -45 30 -88 -7z"/>
<path d="M5675 1922 c-6 -31 7 -76 25 -87 19 -12 20 -1 8 58 -13 63 -23 72
-33 29z"/>
<path d="M5456 1865 c-3 -8 -1 -15 3 -15 5 0 11 7 15 15 3 8 1 15 -3 15 -5 0
-11 -7 -15 -15z"/>
<path d="M3928 1535 c-31 -17 -41 -43 -32 -79 5 -20 9 -24 19 -16 7 6 20 8 29
4 23 -9 23 -129 0 -142 -11 -6 -14 -16 -9 -31 7 -24 23 -28 31 -6 4 8 16 15
29 15 34 0 38 48 19 218 -5 48 -7 52 -32 52 -15 -1 -39 -7 -54 -15z"/>
<path d="M3915 1419 c-12 -19 5 -99 21 -99 10 0 14 14 14 55 0 41 -4 55 -14
55 -8 0 -18 -5 -21 -11z"/>
<path d="M6037 413 c-2 -5 -2 -32 1 -60 3 -37 8 -53 18 -53 20 0 38 44 30 74
-6 25 -41 53 -49 39z"/>
<path d="M5181 167 c-16 -20 -6 -56 10 -40 6 6 9 21 7 33 -3 21 -4 22 -17 7z"/>
<path d="M4912 340 c0 -14 2 -19 5 -12 2 6 2 18 0 25 -3 6 -5 1 -5 -13z"/>
<path d="M4900 200 c0 -27 4 -50 9 -50 11 0 61 58 61 70 0 12 -34 30 -54 30
-12 0 -16 -11 -16 -50z"/>
<path d="M5000 3987 c0 -23 32 -59 42 -49 17 17 0 62 -22 62 -11 0 -20 -6 -20
-13z"/>
<path d="M5930 3971 c0 -62 11 -91 36 -91 27 0 44 24 36 54 -16 64 -72 93 -72
37z"/>
<path d="M3156 191 c-14 -21 -32 -55 -40 -75 -21 -51 -43 -46 -68 14 -11 28
-25 50 -29 50 -5 0 -9 -1 -9 -2 -1 -2 -7 -39 -15 -83 -8 -44 -15 -83 -15 -87
0 -5 47 -8 105 -8 l105 0 0 115 c0 63 -2 115 -5 115 -3 0 -16 -17 -29 -39z"/>
<path d="M5553 218 c-13 -17 -34 -80 -29 -85 6 -6 26 33 36 68 9 32 8 36 -7
17z"/>
<path d="M4001 44 c0 -11 3 -14 6 -6 3 7 2 16 -1 19 -3 4 -6 -2 -5 -13z"/>
</g>
</svg>
