<?xml version="1.0" standalone="no"?>
<!DOCTYPE svg PUBLIC "-//W3C//DTD SVG 20010904//EN"
 "http://www.w3.org/TR/2001/REC-SVG-20010904/DTD/svg10.dtd">
<svg version="1.0" xmlns="http://www.w3.org/2000/svg"
 width="591.000000pt" height="591.000000pt" viewBox="0 0 591.000000 591.000000"
 preserveAspectRatio="xMidYMid meet">

<g transform="translate(0.000000,591.000000) scale(0.100000,-0.100000)"
fill="#000000" stroke="none">
<path d="M3269 5441 c-8 -10 -39 -50 -70 -87 -66 -82 -185 -258 -171 -253 6 2
53 60 105 129 52 69 107 136 121 149 l26 25 -6 -35 c-4 -19 -12 -62 -19 -97
-7 -36 -9 -65 -4 -68 5 -3 29 4 52 15 45 22 137 52 137 45 0 -3 -33 -55 -74
-117 -77 -118 -110 -176 -104 -183 3 -2 31 36 64 84 33 48 84 122 114 164 29
43 50 81 46 85 -6 6 -98 -15 -185 -43 -20 -6 -23 -4 -18 10 13 35 27 147 21
171 -7 30 -17 32 -35 6z"/>
<path d="M3500 5092 c0 -11 50 -57 78 -72 36 -18 41 -1 7 26 -38 32 -85 57
-85 46z"/>
<path d="M3900 5061 c-86 -28 -139 -59 -195 -115 -83 -83 -114 -191 -80 -274
17 -40 52 -82 68 -82 6 0 1 10 -11 23 -73 78 -52 218 49 319 53 53 102 81 214
119 67 23 74 28 45 28 -19 0 -60 -8 -90 -18z"/>
<path d="M3450 5031 c0 -11 51 -51 89 -71 39 -20 21 10 -28 48 -44 33 -61 39
-61 23z"/>
<path d="M4046 4938 c-3 -13 -6 -33 -6 -44 0 -17 -11 -26 -50 -40 -27 -10 -50
-22 -50 -27 0 -9 54 -3 86 10 11 4 14 -5 14 -43 0 -57 11 -50 25 14 9 43 14
48 53 62 23 8 42 18 42 22 0 10 -6 10 -52 -1 l-38 -9 0 39 c0 43 -14 52 -24
17z"/>
<path d="M4084 4742 c-45 -57 -66 -117 -34 -97 11 7 70 105 70 118 0 14 -15 5
-36 -21z"/>
<path d="M4264 4729 c-3 -6 -19 -9 -35 -5 -31 6 -39 -7 -14 -22 14 -7 14 -12
0 -46 -16 -37 -12 -65 5 -36 26 46 36 53 58 41 18 -9 22 -9 22 2 0 7 -6 19
-12 25 -10 10 -10 17 0 32 10 17 10 20 -2 20 -8 0 -18 -5 -22 -11z"/>
<path d="M3870 4677 c0 -14 403 -300 536 -380 124 -74 82 -34 -92 89 -300 212
-444 307 -444 291z"/>
<path d="M4450 4631 c0 -20 -6 -32 -19 -36 -25 -8 -71 -44 -71 -56 0 -5 18 0
40 11 l40 20 0 -45 c0 -55 17 -60 25 -7 10 59 12 61 55 68 59 10 59 24 1 24
-48 0 -51 2 -51 25 0 14 -4 25 -10 25 -5 0 -10 -13 -10 -29z"/>
<path d="M2496 4528 c-9 -12 -16 -32 -16 -43 0 -27 27 -65 46 -65 12 0 14 -32
14 -199 l0 -198 -216 -434 c-150 -300 -218 -448 -222 -478 -7 -59 18 -104 73
-131 40 -19 60 -20 586 -20 507 0 547 1 579 18 48 25 83 94 75 145 -3 21 -102
231 -220 467 l-215 430 0 198 0 199 24 11 c30 13 41 55 24 90 l-13 27 -252 3
c-251 2 -252 2 -267 -20z m489 -43 c0 -12 -9 -21 -25 -25 l-25 -6 -3 -216 -2
-216 84 -173 84 -174 -335 -3 c-185 -1 -338 -1 -340 2 -2 2 35 81 82 176 l85
173 -2 215 -3 216 -25 6 c-16 4 -26 14 -28 28 l-3 22 228 -2 c219 -3 228 -4
228 -23z m255 -1105 c131 -261 138 -288 96 -337 l-24 -28 -550 0 c-544 0 -551
0 -579 21 -52 38 -46 59 92 333 l126 251 360 0 359 0 120 -240z"/>
<path d="M2653 4363 c-10 -3 -13 -42 -13 -144 0 -119 2 -141 16 -146 27 -10
34 18 34 148 0 127 -7 153 -37 142z"/>
<path d="M2944 3476 c-22 -10 -36 -25 -43 -49 -27 -81 53 -147 129 -107 34 18
40 29 40 72 0 69 -64 112 -126 84z m71 -81 c0 -24 -5 -31 -24 -33 -32 -5 -54
23 -40 50 7 13 19 18 37 16 23 -2 27 -8 27 -33z"/>
<path d="M2715 3328 c-46 -26 -65 -62 -65 -118 0 -34 6 -48 34 -76 30 -30 40
-34 86 -34 46 0 56 4 86 34 28 28 34 42 34 75 0 23 -7 56 -16 72 -25 49 -111
75 -159 47z m99 -59 c50 -40 21 -119 -44 -119 -35 0 -70 34 -70 67 0 29 42 73
68 73 11 0 31 -9 46 -21z"/>
<path d="M4500 4480 c0 -5 11 -10 25 -10 16 0 25 -6 25 -15 0 -17 -7 -20 -62
-30 -24 -3 -38 -11 -38 -20 0 -17 78 -60 88 -49 4 4 2 9 -4 11 -6 2 -20 10
-30 18 -18 14 -18 14 6 15 53 0 88 48 58 78 -14 14 -68 16 -68 2z"/>
<path d="M4046 4448 c-24 -14 -19 -26 9 -20 24 4 55 -12 55 -29 0 -12 -50 -36
-93 -44 -20 -4 -37 -11 -37 -15 0 -12 51 -46 80 -54 l25 -7 -28 24 -28 24 41
12 c22 6 47 23 56 36 15 23 15 27 1 49 -17 26 -56 38 -81 24z"/>
<path d="M5025 4246 c-20 -31 -4 -70 37 -88 15 -7 28 -18 28 -24 0 -20 -60
-94 -78 -95 -25 -2 -25 -2 -49 6 -37 11 -26 -12 11 -25 51 -16 80 3 137 88 51
79 55 99 13 77 -31 -16 -60 -9 -79 18 -13 18 -13 24 0 44 9 13 11 23 5 23 -5
0 -17 -11 -25 -24z"/>
<path d="M4652 4104 c-32 -34 -32 -34 -9 -34 27 0 41 13 51 48 10 31 -3 27
-42 -14z"/>
<path d="M5081 3985 c-31 -35 -39 -55 -23 -55 11 0 47 39 61 68 18 33 -3 27
-38 -13z"/>
<path d="M5292 3994 c-13 -9 -31 -12 -47 -8 -29 7 -33 -3 -8 -21 15 -11 15
-17 5 -39 -22 -50 -14 -64 17 -27 24 30 30 32 49 22 26 -14 28 -5 6 20 -12 14
-13 22 -4 39 15 28 9 33 -18 14z"/>
<path d="M4850 3981 c0 -18 383 -292 538 -385 121 -73 72 -27 -110 101 -250
178 -428 295 -428 284z"/>
<path d="M5420 3954 c-21 -24 -1 -66 42 -87 l37 -18 -16 -37 c-23 -56 -33 -65
-70 -59 -34 6 -46 -6 -17 -17 51 -20 82 3 124 90 12 24 26 44 31 44 5 0 9 7 9
15 0 18 -9 19 -44 5 -52 -19 -111 37 -70 67 15 11 15 13 2 13 -8 0 -21 -7 -28
-16z"/>
<path d="M985 3900 c-104 -15 -165 -32 -189 -51 -24 -19 -26 -26 -26 -104 0
-80 2 -86 31 -120 l31 -35 -3 -837 c-3 -947 -8 -888 77 -1003 95 -130 227
-178 372 -135 60 18 149 94 188 161 59 101 57 64 55 975 l-3 835 29 34 c27 32
28 38 25 123 -3 101 -6 106 -82 131 -96 32 -370 46 -505 26z m429 -61 c49 -10
93 -22 99 -28 16 -16 -119 -51 -230 -60 -57 -4 -149 -4 -205 0 -103 8 -234 34
-243 49 -3 4 8 12 23 18 133 53 361 61 556 21z m116 -134 c0 -32 -6 -51 -20
-65 -19 -19 -20 -33 -20 -266 l0 -246 -27 6 c-153 34 -193 38 -333 33 -82 -3
-170 -12 -203 -21 -32 -9 -60 -16 -63 -16 -3 0 -4 111 -3 247 1 242 1 248 -20
261 -16 11 -21 25 -21 59 l0 46 33 -7 c206 -44 482 -44 618 -2 24 8 47 14 52
15 4 1 7 -19 7 -44z m-178 -586 c64 -14 114 -38 102 -49 -39 -36 -280 -61
-416 -41 -77 11 -158 37 -158 51 0 7 85 36 130 43 56 9 292 6 342 -4z m-182
-131 c123 0 170 4 230 20 41 11 79 17 83 13 4 -5 7 -255 5 -557 -3 -549 -3
-549 -26 -607 -47 -115 -133 -195 -236 -218 -134 -30 -274 60 -338 218 l-23
58 -3 548 c-1 302 0 552 2 556 3 4 38 -1 78 -12 58 -15 105 -19 228 -19z"/>
<path d="M864 3676 c-10 -8 -16 -17 -13 -21 4 -3 49 -13 100 -22 157 -25 549
-5 549 29 0 23 -50 31 -124 19 -90 -15 -331 -15 -405 -1 -70 13 -83 13 -107
-4z"/>
<path d="M5711 3861 c64 -103 46 -220 -51 -325 -23 -25 -69 -59 -103 -76 -50
-25 -72 -30 -131 -30 -50 0 -66 -3 -56 -10 8 -5 45 -10 81 -10 163 0 321 154
323 315 1 68 -31 146 -72 173 -21 14 -20 10 9 -37z"/>
<path d="M5046 3731 c-5 -7 2 -11 17 -11 26 0 65 -35 53 -48 -4 -4 -35 -14
-69 -22 -36 -9 -62 -20 -62 -28 0 -7 19 -24 43 -38 47 -28 56 -21 15 12 l-26
21 43 7 c23 4 51 11 61 17 22 11 26 61 6 78 -21 17 -74 25 -81 12z"/>
<path d="M5522 3731 c-10 -6 -8 -10 10 -15 22 -7 21 -9 -14 -23 -42 -17 -48
-37 -19 -53 26 -14 38 -13 23 2 -9 9 -5 15 18 24 31 14 39 41 18 62 -14 14
-19 15 -36 3z"/>
<path d="M3875 2969 c-374 -358 -772 -740 -885 -848 -113 -108 -329 -316 -480
-461 -151 -145 -278 -268 -282 -275 -7 -12 410 -458 434 -463 7 -1 207 183
444 410 236 227 689 660 1005 962 315 302 628 602 694 666 66 65 138 133 160
153 l40 36 -30 33 c-78 85 -191 204 -300 315 l-120 123 -680 -651z m1021 244
l55 -61 -138 -134 c-154 -149 -474 -456 -1963 -1880 l-185 -177 -145 152 c-80
84 -169 178 -198 209 l-53 56 53 51 c29 28 56 51 60 51 4 0 52 -46 107 -102
79 -81 102 -100 112 -91 10 10 -9 35 -91 118 l-104 105 57 57 57 57 43 -42
c71 -70 97 -48 27 23 l-40 41 64 63 63 62 98 -105 c90 -97 125 -124 125 -95 0
6 -45 59 -101 117 l-101 107 57 53 58 54 41 -41 c23 -23 47 -41 54 -41 24 0
11 34 -27 70 l-39 37 57 57 58 57 101 -105 c55 -58 105 -106 111 -106 25 0 6
28 -86 127 l-96 104 57 57 57 57 35 -42 c33 -39 74 -57 74 -33 0 6 -19 31 -42
56 l-42 45 61 61 61 61 102 -107 c56 -58 106 -106 111 -106 28 0 -3 46 -88
132 l-98 98 58 58 57 57 41 -42 c40 -42 69 -55 69 -31 0 7 -19 32 -42 56 l-43
43 65 59 65 59 100 -100 c94 -93 125 -115 125 -88 0 7 -43 55 -95 108 -52 54
-95 101 -95 106 0 5 23 33 52 62 l52 53 48 -47 c35 -35 51 -44 59 -36 8 8 0
23 -32 58 l-43 46 63 62 62 62 95 -102 c89 -96 124 -121 124 -90 0 7 -21 33
-46 57 -25 25 -69 71 -96 103 l-51 59 49 48 c27 27 54 50 61 50 7 0 30 -19 51
-42 23 -24 44 -38 50 -34 19 12 14 24 -28 69 l-39 43 55 55 56 54 98 -102 c54
-57 103 -103 109 -103 26 0 5 32 -84 127 l-95 101 57 56 58 56 39 -45 c21 -25
44 -45 52 -45 26 0 14 36 -26 75 l-40 39 57 58 c32 32 60 58 64 58 3 0 50 -45
104 -100 92 -93 125 -117 125 -89 0 7 -45 58 -100 113 l-100 102 58 58 57 57
143 -148 c78 -81 167 -176 198 -210z"/>
</g>
</svg>
