<?xml version="1.0" standalone="no"?>
<!DOCTYPE svg PUBLIC "-//W3C//DTD SVG 20010904//EN"
 "http://www.w3.org/TR/2001/REC-SVG-20010904/DTD/svg10.dtd">
<svg version="1.0" xmlns="http://www.w3.org/2000/svg"
 width="800.000000pt" height="399.000000pt" viewBox="0 0 800.000000 399.000000"
 preserveAspectRatio="xMidYMid meet">

<g transform="translate(0.000000,399.000000) scale(0.100000,-0.100000)"
fill="#000000" stroke="none">
<path d="M0 3275 l1 -715 80 1 c44 1 83 -2 86 -5 4 -3 -5 -7 -18 -7 -13 -1
-31 -3 -39 -4 -8 -1 -36 -3 -62 -4 l-48 -1 0 -1270 0 -1270 513 1 c331 0 505
4 492 10 -17 8 -16 9 5 4 14 -4 67 -9 117 -12 l93 -6 3 189 2 189 3 -187 2
-188 74 0 74 0 11 48 c11 52 1 73 -24 52 -12 -10 -15 -10 -15 4 0 17 25 20 79
10 20 -4 31 -12 30 -23 0 -10 -2 -11 -6 -3 -5 13 -29 16 -36 5 -3 -5 -8 -27
-12 -51 l-7 -42 33 0 c18 0 41 8 52 17 18 17 19 17 32 0 11 -15 34 -17 208
-17 l197 0 6 28 c3 15 7 32 9 38 2 6 -2 17 -8 24 -9 10 -9 11 3 4 8 -5 26 -9
40 -9 23 0 25 -3 23 -41 l-1 -41 63 -2 64 -2 -3 134 c-1 74 1 143 5 153 8 20
13 -99 9 -218 l-2 -68 63 0 63 0 -54 58 -55 57 60 -57 61 -58 228 0 c216 0
228 1 215 18 -13 16 -13 16 7 -1 19 -16 63 -17 606 -17 l586 0 11 37 11 38 -5
-38 -4 -37 2040 0 2039 0 0 1881 0 1880 -42 -3 c-24 -2 -43 -8 -43 -15 0 -20
-14 -27 -21 -9 -4 9 -17 16 -33 15 -15 0 -20 -3 -11 -6 34 -14 51 -40 44 -68
-6 -24 -5 -26 12 -17 13 7 26 7 37 1 32 -18 19 -31 -25 -25 l-41 6 20 -23 c11
-12 18 -29 16 -37 -3 -8 2 -6 10 5 8 11 19 16 24 12 9 -9 -23 -37 -43 -37 -6
0 -15 10 -18 23 -6 22 -7 21 -22 -7 -20 -36 -36 -18 -23 27 5 16 6 33 4 38 -3
4 -1 10 5 14 10 6 8 60 -3 72 -4 3 -7 1 -7 -5 0 -7 -16 -12 -40 -12 -33 0 -40
3 -40 20 0 17 -7 20 -40 20 -33 0 -40 -3 -40 -20 0 -11 -7 -20 -15 -20 -8 0
-15 9 -15 20 0 11 -7 20 -15 20 -8 0 -15 -9 -15 -20 0 -11 -4 -20 -10 -20 -5
0 -10 8 -10 18 0 17 -13 18 -160 20 -136 1 -160 0 -160 -13 0 -11 -11 -15 -40
-15 -29 0 -40 4 -40 15 0 11 -11 15 -40 15 -29 0 -40 -4 -40 -15 0 -11 -11
-15 -40 -15 -29 0 -40 4 -40 15 0 13 -20 15 -120 15 -113 0 -120 1 -120 20 0
19 -7 20 -160 20 -100 0 -160 -4 -160 -10 0 -5 -18 -10 -40 -10 -22 0 -40 -4
-40 -10 0 -6 -33 -10 -80 -10 -47 0 -80 4 -80 10 0 6 -18 10 -40 10 -38 0 -54
-13 -27 -23 6 -2 -10 -2 -38 1 -27 3 -51 9 -53 13 -5 13 -82 11 -82 -1 0 -6
-47 -10 -120 -10 -100 0 -120 3 -120 15 0 11 -11 15 -40 15 -30 0 -40 4 -40
16 0 16 -24 16 -280 10 -251 -7 -280 -6 -280 8 0 12 -10 16 -40 16 -38 0 -40
2 -40 30 0 28 -2 30 -40 30 -33 0 -40 -3 -40 -20 0 -17 -7 -20 -40 -20 -29 0
-40 4 -40 15 0 12 -16 15 -80 15 -64 0 -80 3 -80 15 0 11 -12 15 -46 15 -41 0
-45 2 -39 20 3 11 2 20 -4 20 -5 0 -12 -12 -14 -27 l-4 -28 -2 28 c0 15 -5 27
-11 27 -18 0 -1 -61 22 -80 13 -11 20 -19 16 -20 -16 0 -64 26 -80 45 -17 19
-17 19 -18 1 0 -10 -8 -25 -17 -33 -17 -13 -16 -14 5 -10 19 5 21 3 11 -9 -25
-30 -47 29 -24 65 3 6 1 19 -5 28 -10 16 -10 15 -5 -4 3 -12 1 -25 -6 -29 -7
-4 -9 -3 -5 4 3 6 -1 18 -10 27 -15 15 -18 15 -34 -2 -9 -10 -13 -20 -7 -22 5
-2 13 3 18 10 11 18 22 5 26 -32 2 -21 -1 -28 -9 -23 -6 4 -8 3 -5 -2 11 -18
-7 -31 -33 -23 l-25 7 25 3 c15 1 7 4 -20 8 -44 6 -45 7 -43 41 2 30 2 32 -7
13 -12 -29 -34 -31 -27 -3 3 11 1 20 -4 20 -8 0 -14 -39 -10 -63 1 -5 -3 -6
-9 -2 -6 3 -8 11 -5 16 4 5 1 9 -5 9 -8 0 -10 -9 -5 -27 6 -27 6 -27 -10 -8
-14 17 -16 17 -11 3 3 -10 1 -18 -4 -18 -5 0 -12 -11 -16 -25 -6 -24 -8 -22
-30 26 -22 47 -26 50 -38 34 -14 -20 -36 -13 -36 12 0 9 -8 22 -17 29 -15 10
-16 15 -5 26 11 11 14 10 22 -2 5 -8 10 -10 10 -4 0 7 9 14 20 17 26 7 26 37
0 37 -12 0 -20 -7 -21 -17 0 -15 -2 -15 -9 2 -7 17 -9 17 -9 3 -1 -22 -21 -24
-21 -3 0 8 -4 15 -10 15 -5 0 -10 -7 -10 -16 0 -13 -3 -14 -13 -5 -8 6 -17 8
-20 4 -4 -3 -14 0 -23 8 -13 11 -18 11 -21 2 -3 -7 -9 -13 -14 -13 -6 0 -7 5
-4 10 4 7 -51 10 -166 9 -96 0 -167 -4 -159 -9 8 -5 10 -15 6 -26 -7 -18 -8
-18 -21 -1 -13 18 -13 18 -20 -2 -3 -10 -8 -30 -10 -42 -3 -13 -16 -35 -30
-49 l-26 -25 26 52 c28 60 30 67 13 57 -10 -6 -10 -4 0 7 21 22 14 39 -16 39
-15 0 -32 -4 -38 -10 -5 -5 -37 -11 -69 -13 -58 -2 -60 -3 -59 -30 0 -15 -4
-27 -8 -27 -4 0 -8 -5 -8 -10 0 -13 -37 -90 -55 -114 -7 -10 -19 -15 -25 -11
-8 5 -8 10 0 21 9 10 8 21 -4 45 -18 36 -20 49 -7 49 5 0 12 -12 16 -27 5 -21
8 -24 16 -12 5 7 9 10 9 4 0 -13 20 17 20 30 0 6 -5 3 -10 -5 -6 -9 -10 -10
-10 -3 0 6 5 15 10 18 15 9 12 27 -2 20 -7 -4 -4 1 6 9 20 16 20 16 0 17 -10
1 -22 1 -25 1 -3 -1 -4 10 -1 23 3 20 0 25 -15 25 -11 0 -28 -9 -38 -20 -29
-32 -62 -25 -56 13 1 4 -21 7 -49 6 -27 -1 -47 -6 -44 -10 3 -5 -3 -6 -12 -2
-12 4 -15 2 -12 -8 3 -8 13 -13 22 -13 29 3 22 -84 -10 -121 -22 -26 -23 -30
-9 -33 10 -2 21 2 26 10 6 9 9 5 9 -14 0 -26 -3 -28 -38 -28 -21 0 -41 3 -44
6 -3 3 9 29 28 57 38 57 41 69 19 87 -19 16 -34 5 -28 -20 3 -11 1 -20 -5 -20
-22 0 -24 23 -3 51 25 34 25 35 6 43 -20 7 -57 -68 -49 -103 4 -18 3 -22 -4
-12 -7 9 -17 -6 -37 -58 -15 -39 -30 -71 -35 -71 -4 0 -15 21 -25 48 -10 26
-23 50 -29 54 -8 5 -7 11 2 20 16 16 26 4 42 -47 l13 -40 14 40 c7 22 20 54
28 70 9 19 12 46 8 73 l-6 42 -58 0 -59 0 0 -32 c0 -23 -3 -29 -9 -19 -5 7 -6
22 -4 32 4 16 0 19 -26 19 -33 0 -42 -16 -14 -27 15 -6 14 -7 -3 -13 -24 -9
-34 -4 -34 21 0 10 -5 19 -11 19 -6 0 -9 -9 -6 -19 3 -11 -1 -22 -9 -25 -16
-6 -29 10 -14 19 22 13 8 25 -29 25 -38 0 -40 -1 -56 -51 -9 -27 -22 -48 -27
-47 -6 2 -18 24 -27 48 -16 45 -17 45 -69 48 l-52 3 0 -48 c1 -69 17 -132 46
-176 26 -40 24 -67 -3 -32 -31 42 -55 113 -60 183 l-6 73 -93 -2 -94 -1 0 -30
c0 -21 6 -31 20 -35 21 -6 28 -23 9 -23 -29 0 -49 22 -49 55 l0 35 -245 0
c-157 0 -245 -4 -245 -10 0 -5 -18 -10 -41 -10 -24 0 -38 4 -34 10 4 6 -14 10
-47 10 l-54 0 2 -67 c1 -38 0 -52 -2 -33 -2 19 -7 50 -10 68 l-5 32 -70 0
c-67 0 -70 -1 -80 -27 -6 -16 -9 -56 -7 -91 3 -42 1 -57 -5 -46 -5 9 -7 50 -4
90 l5 74 -318 0 -319 0 -11 -32 -10 -33 5 33 c3 24 1 32 -8 29 -8 -2 -12 -28
-12 -78 -1 -42 -5 -73 -10 -71 -6 1 -10 34 -10 72 0 49 -4 70 -12 70 -7 0 -13
-11 -13 -24 0 -37 -22 -126 -32 -126 -11 0 -10 17 3 63 5 21 7 47 3 59 -6 21
-7 21 -21 2 -15 -18 -15 -18 -9 9 5 23 3 27 -14 27 -19 0 -20 -6 -18 -75 1
-42 -3 -80 -8 -84 -5 -5 -29 -11 -54 -12 -52 -3 -53 1 -14 63 15 23 33 56 40
74 l13 32 -70 0 c-52 -1 -72 -5 -76 -15 -3 -8 0 -19 8 -24 11 -7 11 -9 -3 -9
-19 0 -32 -40 -48 -138 -5 -30 -12 -57 -16 -61 -4 -3 -4 8 -1 24 6 27 5 28 -5
8 -6 -13 -14 -23 -18 -23 -3 0 -14 25 -24 55 -21 67 -41 107 -49 98 -4 -3 -7
-3 -7 1 0 12 30 39 37 33 3 -3 15 -34 28 -69 14 -38 25 -57 29 -48 3 8 14 42
25 75 10 33 22 68 26 78 6 15 -1 17 -83 17 -78 0 -91 -2 -95 -17 -4 -17 -5
-17 -6 0 -1 14 -11 17 -55 17 l-55 0 -4 -37 -4 -38 -1 38 -2 37 -80 0 -80 0 0
-715z m1300 672 c0 -23 -2 -22 -19 10 -10 19 -9 22 4 17 8 -4 15 -15 15 -27z
m1122 21 c-7 -7 -12 -21 -12 -33 0 -14 -7 -21 -20 -22 -11 -1 -20 2 -20 8 0 5
5 9 11 9 7 0 9 10 7 25 -5 21 -2 25 20 25 20 0 23 -3 14 -12z m815 -10 c-3 -8
-6 -5 -6 6 -1 11 2 17 5 13 3 -3 4 -12 1 -19z m-2867 8 c0 -9 -40 -13 -46 -5
-3 5 6 9 20 9 14 0 26 -2 26 -4z m868 -13 c-17 -20 -35 -71 -32 -90 1 -7 2
-18 3 -23 0 -6 11 -15 24 -20 l22 -9 -23 0 c-48 -2 -55 97 -10 139 27 25 36
26 16 3z m1032 7 c0 -5 -17 -10 -37 -11 -21 0 -51 -2 -68 -3 -83 -7 -247 -14
-230 -10 25 6 259 31 303 33 17 0 32 -3 32 -9z m-1723 -47 c-3 -10 -5 -2 -5
17 0 19 2 27 5 18 2 -10 2 -26 0 -35z m2433 38 c0 -6 -4 -13 -10 -16 -5 -3
-10 1 -10 9 0 9 5 16 10 16 6 0 10 -4 10 -9z m-1140 -4 c-10 -9 -121 -17 -116
-9 3 5 31 10 63 11 32 1 55 0 53 -2z m1647 -13 c3 -9 -2 -29 -11 -45 -16 -26
-16 -29 -1 -29 9 0 13 -4 10 -10 -3 -5 -17 -10 -31 -10 -13 0 -24 5 -24 10 0
6 4 10 8 10 12 0 32 59 25 76 -3 8 0 14 6 14 7 0 14 -7 18 -16z m-1934 -32
c-4 -15 -6 -35 -5 -44 0 -10 -4 -18 -10 -18 -7 0 -8 14 -4 38 3 20 6 43 6 50
0 7 5 10 10 7 6 -3 7 -18 3 -33z m37 28 c0 -5 -4 -10 -10 -10 -5 0 -10 5 -10
10 0 6 5 10 10 10 6 0 10 -4 10 -10z m1207 -6 c-3 -3 -12 -4 -19 -1 -8 3 -5 6
6 6 11 1 17 -2 13 -5z m1280 0 c-3 -3 -12 -4 -19 -1 -8 3 -5 6 6 6 11 1 17 -2
13 -5z m-1817 -14 c-14 -4 -60 -8 -103 -9 l-77 -1 -19 -42 c-11 -24 -32 -78
-47 -120 -15 -43 -29 -78 -33 -78 -11 0 -41 104 -32 113 4 4 13 -11 20 -34 7
-23 16 -38 20 -33 5 5 23 53 42 106 l33 97 51 4 c99 7 172 5 145 -3z m1299 -7
c-8 -9 -13 -24 -11 -35 2 -10 -2 -18 -7 -18 -6 0 -11 7 -11 15 0 7 -7 18 -16
23 -24 14 -8 32 28 32 27 0 29 -2 17 -17z m-3512 -15 c-3 -8 -6 -5 -6 6 -1 11
2 17 5 13 3 -3 4 -12 1 -19z m48 4 c-3 -3 -11 0 -18 7 -9 10 -8 11 6 5 10 -3
15 -9 12 -12z m72 -49 c-2 -16 -4 -5 -4 22 0 28 2 40 4 28 2 -13 2 -35 0 -50z
m1253 63 c0 -11 -19 -15 -25 -6 -3 5 1 10 9 10 9 0 16 -2 16 -4z m405 -6 c-3
-5 -30 -9 -58 -9 l-52 2 40 7 c61 11 77 11 70 0z m1490 -1 c4 -6 -2 -13 -14
-16 -18 -4 -21 -13 -21 -54 0 -27 -4 -49 -10 -49 -10 0 -13 19 -11 75 1 34 -3
27 -19 -32 -7 -27 -17 -43 -26 -43 -13 0 -13 4 1 30 20 40 21 67 0 50 -12 -10
-15 -10 -15 1 0 26 15 38 55 42 22 2 43 4 47 5 4 1 10 -3 13 -9z m-1944 -33
c7 -19 16 -33 20 -30 4 2 5 -5 2 -16 -7 -25 -5 -26 -31 33 -12 26 -17 47 -12
47 5 0 14 -16 21 -34z m-1091 8 c0 -2 -9 -4 -20 -4 -11 0 -20 4 -20 9 0 5 9 7
20 4 11 -3 20 -7 20 -9z m230 -13 c0 -5 -9 -19 -20 -32 l-20 -24 14 29 c8 16
12 34 9 39 -3 6 -1 7 5 3 7 -4 12 -11 12 -15z m779 7 c0 -7 -4 -22 -9 -33 -7
-17 -9 -15 -9 13 -1 17 4 32 9 32 6 0 10 -6 9 -12z m2228 -20 c-3 -7 -5 -2 -5
12 0 14 2 19 5 13 2 -7 2 -19 0 -25z m-720 0 c-3 -8 -6 -5 -6 6 -1 11 2 17 5
13 3 -3 4 -12 1 -19z m63 18 c0 -3 -4 -8 -10 -11 -5 -3 -10 -1 -10 4 0 6 5 11
10 11 6 0 10 -2 10 -4z m-1345 -16 c3 -5 1 -10 -4 -10 -6 0 -11 5 -11 10 0 6
2 10 4 10 3 0 8 -4 11 -10z m633 -26 c2 -22 -5 -40 -22 -62 -33 -38 -33 -46 0
-38 19 5 25 3 22 -6 -5 -13 -68 -25 -68 -13 0 4 12 26 26 50 14 25 24 55 22
67 -4 28 -41 39 -38 11 4 -30 0 -39 -9 -24 -16 24 6 53 37 49 22 -2 28 -9 30
-34z m2070 11 c-3 -3 -9 2 -12 12 -6 14 -5 15 5 6 7 -7 10 -15 7 -18z m-2881
-37 c-3 -8 -6 -5 -6 6 -1 11 2 17 5 13 3 -3 4 -12 1 -19z m923 12 c0 -10 -13
-14 -37 -11 -7 1 -15 -15 -19 -36 -4 -21 -11 -45 -16 -53 -10 -16 -5 21 8 69
6 21 5 22 -14 12 -18 -9 -21 -9 -16 3 9 23 94 37 94 16z m-2083 -22 c-3 -8 -6
-5 -6 6 -1 11 2 17 5 13 3 -3 4 -12 1 -19z m2620 16 c-3 -3 -12 -4 -19 -1 -8
3 -5 6 6 6 11 1 17 -2 13 -5z m-564 -61 c4 -19 2 -33 -3 -33 -6 0 -10 17 -10
37 0 43 5 41 13 -4z m3947 -73 c0 -13 7 -20 20 -20 11 0 20 -4 20 -10 0 -5 -8
-10 -18 -10 -11 0 -24 -10 -30 -22 l-11 -23 0 22 c-1 14 -9 23 -23 26 l-23 4
23 8 c12 4 22 16 22 26 0 11 5 19 10 19 6 0 10 -9 10 -20z m1310 15 c0 -2 -14
-18 -31 -36 -17 -17 -28 -37 -25 -45 3 -7 0 -16 -6 -20 -7 -4 -8 -3 -4 4 4 7
5 12 1 12 -10 0 -25 -52 -18 -63 4 -7 6 -24 4 -39 -2 -26 0 -28 33 -28 19 0
38 -4 41 -10 4 -6 -9 -10 -33 -10 l-39 0 -6 -51 c-10 -78 -3 -81 156 -78 l132
4 17 -35 c26 -50 22 -65 -7 -36 -34 34 -90 47 -183 44 -67 -3 -77 -5 -76 -21
2 -17 0 -17 -15 -3 -17 15 -41 22 -41 11 0 -3 29 -42 65 -88 36 -45 65 -84 65
-87 0 -3 -33 -43 -74 -90 -41 -47 -73 -87 -71 -90 6 -9 85 1 85 11 0 5 13 9
29 9 26 0 29 5 42 53 9 33 20 52 29 52 16 0 18 -22 7 -67 -6 -24 -4 -27 20
-30 16 -2 27 -8 25 -15 -3 -16 1 -16 44 2 20 8 44 25 55 37 11 13 18 16 15 8
-2 -8 -10 -32 -17 -52 l-12 -37 -75 -3 -76 -3 -18 -74 c-15 -60 -17 -76 -6
-82 15 -9 54 24 64 53 3 10 10 16 15 12 6 -3 1 -20 -11 -40 -23 -36 -22 -37
25 -34 17 1 28 -1 24 -4 -8 -8 -119 -15 -136 -9 -25 10 -31 45 -17 98 24 87
26 84 -78 87 l-91 3 77 89 c42 50 75 94 74 98 -2 5 -34 49 -72 98 -66 84 -70
88 -81 67 -14 -29 -40 -29 -39 1 1 30 -4 28 -48 -15 -40 -39 -47 -53 -24 -53
24 0 40 -30 37 -72 -2 -48 17 -48 38 0 18 39 36 42 26 5 -22 -88 -105 -83
-105 6 0 20 -7 34 -20 41 -23 12 -31 -2 -44 -72 -7 -37 -33 -58 -42 -35 -3 8
11 82 31 167 37 154 37 168 0 170 -5 0 1 10 14 20 18 16 22 26 16 47 -5 23 -4
25 9 14 9 -8 16 -21 16 -31 0 -10 10 -20 21 -23 16 -4 20 -10 14 -24 -4 -10
-18 -58 -31 -107 l-23 -89 49 48 c41 40 53 47 79 43 16 -2 28 -1 25 4 -3 4 9
9 25 9 27 1 37 3 55 8 3 0 -2 17 -10 36 -7 19 -14 46 -14 60 0 21 -5 25 -30
25 -16 0 -30 5 -30 10 0 6 11 10 25 10 28 0 28 -1 43 83 12 65 64 147 94 147
10 0 18 -2 18 -5z m-4418 -42 c-3 -16 -7 -22 -10 -15 -4 13 4 42 11 42 2 0 2
-12 -1 -27z m187 -78 c-1 -27 -4 -61 -8 -75 -4 -15 -7 5 -7 50 1 41 -2 89 -6
105 l-7 30 14 -30 c8 -16 14 -52 14 -80z m3119 81 c6 -27 -25 -48 -49 -35 -13
6 -25 6 -38 -1 -20 -10 -51 -4 -51 10 0 5 8 6 19 3 23 -6 39 16 20 28 -8 5
-15 4 -17 -1 -5 -14 -19 -12 -25 3 -4 11 10 14 66 13 63 -1 72 -3 75 -20z
m-3291 -18 c-3 -8 -6 -5 -6 6 -1 11 2 17 5 13 3 -3 4 -12 1 -19z m84 -69 l-9
-34 -1 31 c-1 17 2 34 6 37 12 13 14 -1 4 -34z m-344 -1 c-3 -7 -5 -2 -5 12 0
14 2 19 5 13 2 -7 2 -19 0 -25z m3543 -24 c0 -11 -7 -11 -34 2 -27 14 -46 15
-101 8 l-67 -9 36 -45 c20 -25 36 -50 36 -55 0 -6 -18 -29 -40 -50 -22 -21
-40 -43 -40 -47 0 -11 118 -10 159 2 19 5 38 15 43 22 6 10 8 9 8 -3 0 -36
-31 -47 -137 -48 -103 -2 -129 6 -95 31 10 7 30 30 46 50 l28 37 -29 38 c-15
21 -36 44 -45 51 -10 7 -18 19 -18 27 0 11 24 15 113 17 112 3 137 -2 137 -28z
m-2983 -21 c-3 -10 -5 -2 -5 17 0 19 2 27 5 18 2 -10 2 -26 0 -35z m1213 -29
c0 -29 -3 -55 -7 -57 -5 -3 -8 16 -8 41 0 26 -4 58 -9 72 -8 22 -7 23 8 11 11
-9 16 -29 16 -67z m2302 -40 l-9 -99 -2 92 c0 55 -5 95 -12 99 -8 4 -7 9 2 15
26 15 30 -8 21 -107z m-2592 46 c0 -33 -4 -60 -10 -60 -6 0 -10 27 -10 60 0
33 4 60 10 60 6 0 10 -27 10 -60z m133 -5 c-6 -58 -7 -59 -15 -26 -6 23 -5 43
3 63 16 40 19 32 12 -37z m105 40 c1 -11 -6 -30 -18 -42 -25 -28 -25 -31 3
-36 13 -3 7 -5 -16 -6 l-38 -1 20 29 c26 36 27 68 4 75 -10 2 -4 4 12 3 22 -2
31 -8 33 -22z m2178 7 c-3 -9 -6 -45 -7 -80 -1 -34 -5 -62 -8 -62 -6 0 -8 148
-2 158 0 1 6 2 12 2 6 0 8 -8 5 -18z m872 -14 c7 -16 18 -28 23 -28 6 0 7 6 3
13 -4 6 -4 9 0 5 4 -3 21 -2 36 2 16 5 42 5 57 1 22 -6 27 -13 25 -32 -6 -52
-13 -69 -28 -69 -12 0 -8 -10 15 -35 44 -50 99 -164 123 -254 13 -51 22 -123
25 -218 4 -103 10 -146 19 -154 22 -18 17 -57 -10 -74 -17 -11 -28 -33 -36
-68 -26 -112 -147 -317 -188 -317 -18 0 -16 4 36 73 48 63 88 154 112 255 16
69 6 82 -46 57 -48 -23 -84 -9 -84 32 0 16 4 34 9 42 13 20 67 18 89 -2 18
-16 20 -16 37 3 37 41 17 309 -34 454 -25 72 -94 180 -132 207 l-28 20 -28
-21 c-25 -18 -32 -19 -60 -8 -28 10 -32 17 -31 45 1 18 5 33 10 33 4 0 3 9 -4
19 -17 28 6 53 46 49 22 -2 35 -11 44 -30z m-792 -2 c-3 -13 -8 -31 -12 -39
-3 -8 2 -21 10 -30 9 -9 16 -23 16 -33 0 -10 -3 -14 -7 -10 -5 4 -8 13 -8 19
0 5 -6 12 -12 15 -8 2 -13 -5 -13 -17 0 -12 -5 -21 -11 -21 -8 0 -9 11 -4 33
3 17 9 49 12 70 4 23 11 37 20 37 11 0 13 -7 9 -24z m-2311 4 c3 -5 1 -10 -4
-10 -6 0 -11 5 -11 10 0 6 2 10 4 10 3 0 8 -4 11 -10z m2118 -2 c-32 -15 -29
-32 9 -49 17 -8 33 -19 36 -26 6 -20 -36 -53 -65 -52 -30 1 -25 3 20 13 39 9
36 39 -5 51 -18 6 -34 18 -36 27 -4 23 18 47 43 47 19 0 18 -1 -2 -11z m57 -8
c0 -11 -4 -20 -10 -20 -5 0 -10 9 -10 20 0 11 5 20 10 20 6 0 10 -9 10 -20z
m-3747 3 c-7 -2 -19 -2 -25 0 -7 3 -2 5 12 5 14 0 19 -2 13 -5z m-306 -40 c-3
-10 -5 -4 -5 12 0 17 2 24 5 18 2 -7 2 -21 0 -30z m460 15 c-3 -8 -6 -5 -6 6
-1 11 2 17 5 13 3 -3 4 -12 1 -19z m53 12 c0 -5 -2 -10 -4 -10 -3 0 -8 5 -11
10 -3 6 -1 10 4 10 6 0 11 -4 11 -10z m1222 -30 c2 -24 -1 -40 -7 -40 -6 0 -9
16 -7 40 2 22 5 40 7 40 2 0 5 -18 7 -40z m42 24 c9 -25 7 -64 -4 -64 -5 0
-10 15 -10 34 0 19 -6 37 -12 39 -8 4 -7 6 3 6 9 1 20 -6 23 -15z m596 -25
c-6 -18 -10 -54 -11 -79 l-1 -45 -9 35 c-8 36 -6 53 13 103 15 38 20 29 8 -14z
m262 -5 c-12 -37 -13 -56 -5 -86 8 -30 8 -37 -1 -28 -16 16 -14 123 3 143 20
24 20 22 3 -29z m139 6 c9 -29 9 -50 1 -82 -11 -43 -11 -43 -7 -6 3 35 -2 67
-20 111 -4 10 -3 17 4 17 5 0 16 -18 22 -40z m70 19 c13 -25 7 -125 -8 -140
-7 -7 -8 2 -3 31 7 39 1 95 -14 119 -4 6 -3 11 3 11 6 0 15 -10 22 -21z m1645
-34 c-1 -49 -12 -59 -22 -21 -5 20 9 66 20 66 2 0 2 -20 2 -45z m164 29 c0
-14 -3 -15 -17 -3 -10 7 -20 15 -22 16 -2 2 5 3 17 3 14 0 22 -6 22 -16z
m-410 -15 c0 -5 -4 -9 -10 -9 -5 0 -10 7 -10 16 0 8 5 12 10 9 6 -3 10 -10 10
-16z m144 -3 c-3 -13 -1 -34 6 -45 13 -25 3 -27 -21 -5 -14 13 -15 21 -7 45
12 35 31 39 22 5z m56 3 c0 -5 -4 -9 -10 -9 -5 0 -10 7 -10 16 0 8 5 12 10 9
6 -3 10 -10 10 -16z m-2125 1 c3 -5 -3 -10 -14 -10 -12 0 -21 -4 -21 -10 0 -5
7 -10 15 -10 25 0 17 -17 -10 -22 -19 -4 -25 -1 -25 13 0 11 -4 19 -10 19 -11
0 -13 -30 -4 -54 3 -9 15 -16 25 -16 10 0 19 -4 19 -10 0 -5 -8 -10 -17 -10
-56 1 -74 78 -25 104 32 18 58 20 67 6z m395 0 c0 -21 -25 -90 -33 -90 -9 0
-4 57 7 83 9 18 26 23 26 7z m1917 -7 c19 -4 39 -30 30 -39 -7 -7 -77 31 -82
44 -4 10 0 12 12 7 10 -4 28 -10 40 -12z m735 9 c-7 -5 -52 -9 -100 -10 -58 0
-79 2 -62 8 33 11 179 12 162 2z m-6065 -39 c-3 -10 -5 -4 -5 12 0 17 2 24 5
18 2 -7 2 -21 0 -30z m1153 2 c0 -14 -4 -25 -9 -25 -4 0 -6 11 -3 25 2 14 6
25 8 25 2 0 4 -11 4 -25z m2707 8 c-20 -2 -52 -2 -70 0 -17 2 0 4 38 4 39 0
53 -2 32 -4z m-2353 -33 c9 0 16 -4 16 -10 0 -5 -6 -10 -14 -10 -8 0 -21 -3
-30 -6 -13 -5 -16 1 -16 27 1 30 2 32 14 17 7 -10 21 -18 30 -18z m1661 -9 c3
-5 1 -12 -5 -16 -5 -3 -10 -1 -10 4 0 6 -7 11 -15 11 -8 0 -15 7 -15 15 0 12
4 14 19 5 11 -5 22 -14 26 -19z m66 20 c-7 -5 -11 -14 -7 -20 4 -6 0 -23 -9
-38 l-16 -28 5 34 c4 18 6 40 6 47 0 8 8 14 18 14 13 0 14 -2 3 -9z m48 2 c0
-5 -4 -17 -9 -28 -8 -18 -9 -17 -9 8 -1 15 4 27 9 27 6 0 10 -3 9 -7z m1358
-25 c-3 -7 -5 -2 -5 12 0 14 2 19 5 13 2 -7 2 -19 0 -25z m-2907 12 c0 -5 -11
-10 -25 -10 -14 0 -25 5 -25 10 0 6 11 10 25 10 14 0 25 -4 25 -10z m70 0 c0
-5 -4 -10 -10 -10 -5 0 -10 5 -10 10 0 6 5 10 10 10 6 0 10 -4 10 -10z m2067
4 c-3 -3 -12 -4 -19 -1 -8 3 -5 6 6 6 11 1 17 -2 13 -5z m2188 -28 c0 -16 -5
-31 -10 -33 -6 -2 -11 9 -10 24 0 25 -3 28 -33 28 -33 0 -34 -2 -55 -65 -22
-70 -25 -76 -32 -69 -2 3 3 31 11 63 8 32 13 65 10 73 -5 12 5 14 57 11 61 -3
62 -3 62 -32z m-7282 -19 c-9 -16 -26 12 -18 30 7 17 8 17 15 -2 4 -11 5 -24
3 -28z m2839 31 c-17 -8 -26 -8 -34 0 -9 9 -4 12 23 11 32 0 33 -1 11 -11z
m-889 -29 c12 0 16 -3 10 -6 -7 -2 -15 -4 -19 -3 -4 1 -11 -4 -15 -12 -6 -8
-8 -1 -8 22 1 19 3 27 6 18 2 -10 14 -18 26 -19z m597 21 c0 -5 -12 -10 -26
-10 -14 0 -23 4 -19 10 3 6 15 10 26 10 10 0 19 -4 19 -10z m95 0 c-3 -5 -12
-10 -20 -10 -8 0 -17 5 -20 10 -4 6 5 10 20 10 15 0 24 -4 20 -10z m-295 -10
c0 -5 -9 -10 -20 -10 -11 0 -20 5 -20 10 0 6 9 10 20 10 11 0 20 -4 20 -10z
m93 3 c-7 -2 -21 -2 -30 0 -10 3 -4 5 12 5 17 0 24 -2 18 -5z m-283 -13 c0 -5
-11 -10 -25 -10 -14 0 -25 5 -25 10 0 6 11 10 25 10 14 0 25 -4 25 -10z m88 3
c-10 -2 -26 -2 -35 0 -10 3 -2 5 17 5 19 0 27 -2 18 -5z m749 -30 c-3 -10 -5
-4 -5 12 0 17 2 24 5 18 2 -7 2 -21 0 -30z m2707 -29 c-46 -60 -97 -171 -91
-196 3 -10 2 -16 -2 -14 -12 8 -33 -136 -21 -148 5 -5 10 -21 10 -34 0 -15 4
-21 12 -16 6 4 8 3 4 -4 -3 -6 -2 -13 4 -17 5 -3 10 -13 10 -22 0 -9 12 -26
26 -39 14 -14 22 -29 18 -35 -5 -8 1 -10 19 -7 16 3 24 1 20 -5 -3 -5 3 -6 17
-2 18 6 21 3 18 -12 -2 -10 -11 -17 -21 -15 -10 2 -18 -4 -18 -13 -1 -8 -3
-19 -4 -25 -1 -5 -3 -14 -4 -18 0 -5 -14 -9 -31 -9 -34 0 -41 22 -10 30 11 3
20 12 20 21 0 15 -2 15 -24 1 -19 -13 -25 -13 -29 -3 -3 7 -3 -2 0 -21 6 -33
5 -34 -22 -27 l-28 7 7 -66 c12 -119 58 -224 150 -339 36 -45 44 -107 22 -156
-9 -19 -14 -26 -10 -15 23 75 11 148 -27 160 -24 8 -101 116 -129 181 -33 75
-60 166 -60 202 0 17 -4 32 -10 32 -5 0 -10 -4 -10 -10 0 -21 -20 -9 -21 13
-1 18 -2 19 -6 4 -4 -16 -13 -18 -54 -15 -45 3 -48 1 -43 -17 4 -16 2 -15 -9
4 -9 15 -17 20 -21 12 -4 -6 -12 -11 -17 -11 -6 0 -7 5 -3 12 5 8 2 9 -12 3
-10 -4 -35 -11 -54 -16 -34 -8 -34 -8 7 -5 28 3 46 -1 54 -10 6 -8 9 -14 6
-14 -3 0 -14 -3 -24 -6 -15 -5 -15 -4 -3 5 8 5 11 13 7 17 -4 4 -12 3 -17 -2
-15 -15 -82 -5 -76 12 3 8 3 14 0 14 -2 0 -9 -10 -14 -22 -8 -20 -9 -21 -9 -4
-1 20 -1 20 -16 0 -13 -17 -14 -17 -15 -1 0 15 -3 15 -20 5 -11 -7 -19 -17
-19 -23 1 -5 1 -22 0 -37 -1 -38 -21 -36 -21 2 0 40 -17 38 -26 -2 l-7 -33 -9
28 c-7 18 -6 32 1 41 8 9 7 13 -4 13 -9 0 -18 -11 -21 -23 -6 -23 -31 -51 -39
-43 -2 3 0 21 4 42 5 21 5 35 0 31 -5 -3 -9 -13 -9 -22 -1 -13 -4 -11 -14 7
-8 15 -16 20 -20 12 -4 -6 -2 -11 5 -11 10 0 10 -3 1 -12 -8 -8 -15 -8 -27 2
-10 8 -19 9 -27 2 -7 -5 -68 -16 -135 -23 -67 -7 -122 -15 -121 -18 4 -41 -3
-51 -37 -51 -39 0 -49 24 -15 35 11 3 20 11 20 16 0 6 -4 8 -9 5 -5 -4 -12 0
-14 6 -4 8 -6 7 -6 -4 -1 -17 -57 -31 -123 -31 -16 0 -28 -4 -28 -8 0 -4 -8
-8 -17 -8 -39 -1 -93 -14 -93 -21 0 -5 -10 -6 -22 -2 -13 3 -19 1 -15 -5 5 -7
-1 -9 -15 -5 -14 3 -19 1 -14 -6 4 -8 2 -10 -7 -6 -13 5 -81 -11 -255 -57 -34
-9 -44 -17 -51 -43 -7 -25 -9 -26 -10 -8 -1 12 -6 22 -12 22 -17 0 -143 -34
-149 -40 -3 -3 -39 -16 -80 -29 -41 -12 -85 -29 -97 -37 -12 -8 -29 -11 -37
-8 -9 3 -16 2 -16 -4 0 -6 -14 -14 -32 -17 -18 -4 -53 -16 -78 -27 -25 -11
-53 -20 -62 -21 -9 -1 -15 -3 -13 -5 2 -3 -3 -12 -12 -21 -11 -11 -18 -12 -20
-4 -5 13 -33 6 -33 -9 0 -5 3 -7 8 -5 4 3 18 1 31 -4 43 -16 10 -27 -89 -30
-76 -2 -99 -6 -116 -22 -12 -10 -33 -20 -45 -22 -26 -4 -119 -34 -214 -70 -58
-23 -141 -48 -159 -49 -5 -1 -15 -17 -21 -36 -12 -33 -13 -34 -16 -10 -3 14
-10 24 -17 22 -7 -1 -29 -5 -50 -8 -20 -3 -40 -8 -44 -11 -5 -2 -8 5 -8 15 0
11 -8 23 -17 26 -15 6 -13 11 12 34 40 37 81 62 100 62 9 0 18 7 21 15 4 8 15
15 25 15 11 0 19 7 19 18 0 13 2 14 9 3 5 -7 11 -9 14 -4 4 6 57 36 119 68 62
32 116 63 120 69 5 6 8 7 8 1 0 -5 5 -2 11 9 9 15 13 16 21 5 7 -10 8 -2 4 24
-4 32 -2 37 15 37 29 0 34 -4 32 -22 -4 -25 6 -22 17 5 8 20 9 20 10 2 1 -16
4 -14 15 10 13 26 14 27 9 5 -4 -22 -3 -23 8 -9 7 8 28 24 46 34 17 11 32 23
32 27 0 4 14 8 30 8 17 0 30 4 30 8 0 5 10 14 23 20 19 9 13 11 -35 11 -31 1
-59 5 -62 9 -3 5 37 66 89 137 l93 128 -25 41 c-88 141 -128 196 -142 197 -11
0 -12 2 -3 6 10 4 9 10 -3 30 -10 14 -13 29 -8 34 9 9 424 30 433 22 3 -2 10
-19 16 -36 13 -37 -35 -33 386 -28 210 3 238 6 243 20 6 20 53 21 64 2 6 -9
36 -11 121 -7 63 4 115 8 116 9 2 1 4 26 5 55 3 60 19 79 87 101 35 12 43 12
56 -2 20 -20 20 -23 0 -31 -9 -4 -23 -1 -30 5 -11 9 -14 8 -14 -5 0 -9 12 -21
26 -26 22 -9 25 -14 20 -43 -6 -32 -6 -32 15 8 20 39 20 39 14 8 -9 -44 7 -42
21 2 6 19 7 32 2 29 -14 -9 -9 4 23 56 17 27 35 50 40 50 13 0 12 -5 -11 -47
-26 -48 -27 -78 -2 -68 9 4 26 7 36 7 11 -1 24 5 30 13 9 12 18 13 48 5 45
-13 52 -23 38 -52 -11 -22 -10 -22 4 -4 9 11 16 23 16 28 0 4 4 8 9 8 5 0 7
-10 5 -22 -5 -23 -4 -23 8 0 10 20 18 23 47 19 20 -2 50 0 66 4 26 7 28 7 12
-5 -14 -11 -15 -15 -3 -19 8 -3 18 2 22 11 6 14 8 13 14 -8 8 -24 8 -24 9 6 2
47 49 134 73 134 13 0 9 -20 -11 -48 -23 -34 -38 -77 -22 -68 7 5 9 1 5 -8 -4
-11 0 -16 14 -16 11 0 22 -8 24 -17 3 -15 4 -15 21 1 9 10 17 22 17 27 0 8
-23 14 -44 10 -5 -1 -6 5 -2 14 3 9 6 21 6 27 0 5 7 2 16 -6 22 -22 31 -20 36
8 3 17 1 23 -8 19 -7 -2 -10 -12 -7 -21 4 -12 3 -14 -5 -7 -9 8 -7 21 8 50 11
22 20 47 20 57 0 10 5 18 10 18 6 0 10 -9 10 -19 0 -30 11 -51 26 -51 21 0 17
-18 -6 -25 -12 -4 -20 -15 -20 -28 0 -16 3 -19 9 -8 5 7 14 11 19 7 14 -9 4
-36 -13 -36 -13 0 -31 -36 -27 -53 1 -4 -3 -18 -8 -30 -8 -16 -4 -14 14 8 14
16 21 32 16 35 -5 3 -6 11 -1 18 4 7 16 -13 30 -53 15 -40 27 -62 34 -58 8 5
7 8 -1 11 -7 2 -12 13 -12 25 1 21 1 21 15 3 13 -17 14 -11 11 55 -3 84 -10
105 -43 136 -13 12 -23 23 -23 25 0 2 27 1 60 0 47 -3 63 -8 70 -23 10 -17 7
-19 -20 -19 -34 0 -34 1 -19 -37 6 -15 13 -48 15 -71 2 -24 11 -50 19 -59 8
-8 15 -24 16 -36 1 -12 7 5 15 38 27 117 28 122 5 165 -28 54 -27 69 4 40 14
-13 25 -29 25 -37 0 -7 5 -13 11 -13 6 0 9 9 6 20 -3 11 -1 18 3 15 12 -8 33
33 24 47 -4 7 -3 8 4 4 6 -4 17 5 26 21 24 47 76 97 87 86 7 -7 -1 -26 -27
-59z m-3641 49 c-7 -2 -21 -2 -30 0 -10 3 -4 5 12 5 17 0 24 -2 18 -5z m1710
0 c-57 -2 -149 -2 -205 0 -57 1 -11 3 102 3 113 0 159 -2 103 -3z m2262 -3 c3
-5 -1 -10 -9 -10 -9 0 -16 5 -16 10 0 6 4 10 9 10 6 0 13 -4 16 -10z m-4787
-32 c13 -3 12 -5 -5 -10 -20 -5 -23 -2 -22 20 1 16 3 20 6 10 2 -9 12 -18 21
-20z m535 25 c-7 -2 -19 -2 -25 0 -7 3 -2 5 12 5 14 0 19 -2 13 -5z m90 0 c-7
-2 -21 -2 -30 0 -10 3 -4 5 12 5 17 0 24 -2 18 -5z m1437 -43 l0 -50 45 0 c44
0 45 1 45 32 0 24 3 29 12 20 9 -9 9 -18 0 -37 -9 -19 -9 -31 -2 -43 8 -12 10
-13 7 -2 -6 21 19 67 43 80 25 14 67 3 84 -22 13 -18 14 -18 21 -1 5 10 9 23
9 28 1 6 10 10 21 10 11 0 25 3 31 7 17 11 67 -48 69 -82 1 -16 -1 -30 -5 -30
-4 0 -12 -12 -19 -26 -11 -24 -16 -26 -53 -21 -23 3 -45 13 -50 22 -8 14 -13
13 -39 -10 -38 -31 -62 -32 -86 -2 -10 13 -24 22 -31 19 -6 -2 -12 3 -12 12 0
12 -11 16 -44 16 l-45 0 -3 -52 c-4 -70 -23 -69 -21 1 l2 53 -38 -5 c-41 -5
-79 7 -51 17 8 3 31 7 50 8 34 3 35 5 38 47 2 28 -1 47 -10 52 -9 6 -6 9 10 9
20 0 22 -5 22 -50z m-1798 28 c-9 -9 -15 -9 -24 0 -9 9 -7 12 12 12 19 0 21
-3 12 -12z m91 5 c-7 -2 -19 -2 -25 0 -7 3 -2 5 12 5 14 0 19 -2 13 -5z m90 0
c-7 -2 -21 -2 -30 0 -10 3 -4 5 12 5 17 0 24 -2 18 -5z m-356 -9 c-3 -3 -12
-4 -19 -1 -8 3 -5 6 6 6 11 1 17 -2 13 -5z m96 -1 c-7 -2 -21 -2 -30 0 -10 3
-4 5 12 5 17 0 24 -2 18 -5z m-256 -9 c-3 -3 -12 -4 -19 -1 -8 3 -5 6 6 6 11
1 17 -2 13 -5z m-250 -10 c-3 -3 -12 -4 -19 -1 -8 3 -5 6 6 6 11 1 17 -2 13
-5z m80 0 c-3 -3 -12 -4 -19 -1 -8 3 -5 6 6 6 11 1 17 -2 13 -5z m1690 -41
c-3 -10 -5 -2 -5 17 0 19 2 27 5 18 2 -10 2 -26 0 -35z m1313 37 c0 -6 -10
-24 -21 -40 -28 -37 -30 -150 -4 -200 22 -43 11 -51 -14 -9 -40 65 -37 170 7
237 15 23 32 29 32 12z m185 -22 c30 -50 28 -170 -4 -221 -28 -46 -40 -42 -14
5 25 46 25 178 1 205 -19 20 -24 43 -10 43 4 0 17 -15 27 -32z m-3428 16 c-3
-3 -12 -4 -19 -1 -8 3 -5 6 6 6 11 1 17 -2 13 -5z m80 0 c-3 -3 -12 -4 -19 -1
-8 3 -5 6 6 6 11 1 17 -2 13 -5z m3275 -28 c18 -26 8 -74 -22 -106 -16 -18
-30 -34 -30 -36 0 -10 49 -2 53 9 3 6 6 0 6 -15 1 -27 -1 -28 -49 -28 -27 0
-50 3 -50 6 0 4 15 27 33 53 43 58 50 78 37 102 -16 30 -40 24 -40 -10 0 -34
-17 -51 -26 -27 -11 28 5 64 29 68 27 5 49 -2 59 -16z m-351 -10 c8 -17 8 -29
0 -44 -15 -28 -14 -105 1 -120 9 -9 4 -12 -22 -12 -26 0 -31 3 -22 12 16 16
17 172 1 162 -6 -3 -8 -17 -4 -32 5 -22 4 -24 -9 -13 -14 12 -14 16 0 42 18
35 41 37 55 5z m-3641 -34 c89 -56 170 -154 297 -358 19 -31 4 72 -18 125 -22
51 -18 65 7 26 22 -34 44 -118 44 -170 0 -28 15 -70 52 -145 29 -58 57 -108
61 -111 4 -3 75 -4 158 -1 107 3 149 2 149 -7 0 -8 -43 -11 -145 -11 -115 0
-145 -3 -145 -13 0 -8 25 -67 56 -133 52 -112 55 -116 51 -72 -2 26 -13 65
-24 88 -11 22 -16 40 -11 40 20 0 58 -105 58 -163 0 -38 8 -78 25 -119 14 -34
23 -63 21 -65 -2 -2 -12 16 -21 42 l-18 45 -23 -56 c-13 -31 -28 -62 -35 -68
-9 -8 -10 -6 -4 9 29 74 34 95 34 135 0 31 -12 69 -39 125 -37 77 -38 79 -39
43 -1 -20 -5 -40 -11 -43 -6 -3 -7 -30 -4 -63 6 -52 4 -61 -20 -89 -14 -17
-26 -37 -26 -44 0 -9 -3 -10 -8 -4 -4 6 -13 10 -19 11 -28 2 -33 4 -33 13 0 5
10 7 21 4 19 -5 21 -3 15 28 l-6 34 12 -29 c12 -25 15 -27 27 -13 7 9 13 37
14 63 2 42 -1 48 -21 53 -30 8 -30 25 0 30 29 4 38 18 38 59 0 29 -3 33 -22
30 -44 -6 -75 -103 -55 -168 7 -23 7 -24 -5 -5 -12 18 -13 15 -20 -30 -8 -63
-29 -148 -34 -142 -2 2 5 53 16 112 12 60 19 119 15 132 -3 14 -2 22 4 19 5
-3 12 6 15 20 16 61 62 98 92 73 13 -10 13 -8 5 15 -32 83 -36 86 -111 86
l-70 0 11 -26 c5 -15 8 -29 5 -31 -2 -2 -9 10 -15 28 l-11 32 -187 -6 c-447
-16 -718 -19 -708 -10 6 6 195 15 444 21 330 9 437 15 443 24 6 10 8 10 8 1 0
-9 20 -13 65 -13 39 0 65 4 65 11 0 12 -78 170 -91 184 -5 5 -9 -1 -9 -16 0
-14 -11 -47 -24 -73 -14 -27 -22 -56 -20 -65 6 -21 -11 13 -35 70 l-19 46 -56
-5 c-31 -2 -56 0 -56 4 0 5 16 33 35 61 34 51 34 52 19 89 -11 26 -18 33 -24
24 -15 -24 -32 0 -26 36 8 39 -13 86 -81 181 -55 79 -101 114 -156 120 -35 4
-50 -1 -89 -27 -27 -18 -48 -36 -48 -41 0 -5 -5 -9 -12 -9 -6 0 -3 9 7 20 22
25 9 26 -19 3 -19 -17 -20 -17 -7 -1 21 28 81 61 120 67 63 11 114 0 171 -37z
m1797 11 c-3 -10 -5 -4 -5 12 0 17 2 24 5 18 2 -7 2 -21 0 -30z m1959 -23 c9
-8 14 -31 14 -61 0 -32 4 -49 13 -49 7 0 5 -5 -5 -10 -20 -12 -57 -2 -38 10
14 9 5 100 -9 100 -21 0 -33 -33 -29 -75 5 -42 4 -45 -18 -45 -13 0 -24 5 -24
10 0 6 5 10 10 10 16 0 11 72 -7 92 -15 17 -14 18 25 18 40 0 42 1 43 33 2 29
2 29 6 5 2 -14 11 -32 19 -38z m-62 25 c11 -8 15 -15 9 -15 -19 0 -43 12 -43
21 0 13 12 11 34 -6z m168 -17 c-8 -8 -9 -4 -5 13 4 13 8 18 11 10 2 -7 -1
-18 -6 -23z m-2765 -10 c-3 -7 -5 -2 -5 12 0 14 2 19 5 13 2 -7 2 -19 0 -25z
m4480 11 c8 -8 17 -8 31 0 29 16 39 14 16 -3 -21 -16 -13 -31 21 -39 14 -3 10
-5 -10 -5 -20 -1 -42 9 -65 28 -20 18 -28 30 -19 30 8 0 20 -5 26 -11z m-43
-18 c3 -5 -1 -11 -9 -14 -9 -4 -12 -1 -8 9 6 16 10 17 17 5z m-2967 -58 c-3
-10 -5 -2 -5 17 0 19 2 27 5 18 2 -10 2 -26 0 -35z m3013 37 c0 -5 -10 -10
-22 -9 -22 0 -22 1 -3 9 11 5 21 9 23 9 1 1 2 -3 2 -9z m-5713 -32 c-3 -8 -6
-5 -6 6 -1 11 2 17 5 13 3 -3 4 -12 1 -19z m1930 -35 c-3 -10 -5 -4 -5 12 0
17 2 24 5 18 2 -7 2 -21 0 -30z m-700 -20 c-3 -10 -5 -4 -5 12 0 17 2 24 5 18
2 -7 2 -21 0 -30z m4903 18 c0 -9 -174 -21 -197 -13 -7 2 -10 8 -7 13 7 12
204 12 204 0z m-713 -78 c-3 -10 -5 -4 -5 12 0 17 2 24 5 18 2 -7 2 -21 0 -30z
m-2720 -10 c-3 -10 -5 -4 -5 12 0 17 2 24 5 18 2 -7 2 -21 0 -30z m3433 27 c0
-6 -42 -10 -106 -10 -67 0 -103 4 -99 10 3 6 50 10 106 10 59 0 99 -4 99 -10z
m-693 -22 c-3 -8 -6 -5 -6 6 -1 11 2 17 5 13 3 -3 4 -12 1 -19z m-3510 -25
c-3 -10 -5 -4 -5 12 0 17 2 24 5 18 2 -7 2 -21 0 -30z m-1738 -33 c-28 -75
-28 -205 0 -280 11 -30 19 -55 18 -57 -2 -1 -13 15 -25 36 -46 82 -46 234 0
324 27 54 32 41 7 -23z m5724 48 c34 -18 46 -40 46 -83 0 -51 -11 -71 -84
-145 l-59 -61 54 6 c64 8 70 10 70 35 0 10 5 22 10 25 6 4 10 3 9 -2 -7 -40 2
-53 39 -55 l37 -1 -35 -4 c-36 -4 -67 -23 -39 -23 10 -1 8 -4 -5 -12 -10 -6
-59 -13 -108 -16 -101 -6 -108 1 -55 57 17 18 27 31 20 27 -6 -3 -15 -1 -19 6
-5 8 -12 3 -20 -17 l-13 -30 -1 36 c0 23 8 46 20 60 l21 24 -6 -32 c-4 -18 -2
-34 5 -38 13 -8 73 53 96 97 18 34 15 104 -3 101 -7 -2 -12 3 -10 9 3 20 -43
21 -64 3 -16 -16 -17 -20 -4 -38 17 -25 4 -56 -22 -53 -31 5 -29 67 2 105 29
34 76 42 118 19z m-4686 -30 c-3 -7 -5 -2 -5 12 0 14 2 19 5 13 2 -7 2 -19 0
-25z m1640 -46 c-5 -53 -5 -55 8 -32 9 16 14 19 15 9 0 -25 -23 -50 -39 -40
-11 7 -12 17 -3 52 6 24 7 48 3 52 -15 15 -40 -22 -47 -69 -4 -31 -10 -42 -17
-35 -6 6 -6 23 1 50 6 24 6 43 1 47 -5 3 -9 -3 -10 -13 0 -11 -3 -13 -6 -5 -8
22 14 37 58 39 l42 3 -6 -58z m-2927 -71 c0 -66 3 -126 6 -135 5 -13 -1 -16
-27 -16 -26 0 -30 3 -21 12 17 17 17 229 0 246 -9 9 -6 12 15 12 l27 0 0 -119z
m3185 109 c4 -6 -25 -9 -82 -8 l-88 2 80 6 c44 3 81 7 82 8 1 1 5 -2 8 -8z
m-436 -104 c-9 -8 -10 -7 -5 7 3 10 7 28 7 40 2 16 3 14 6 -7 3 -16 -1 -34 -8
-40z m449 49 c3 -3 -35 -4 -84 -4 -65 1 -78 4 -49 8 43 7 125 5 133 -4z
m-1165 -18 c30 -46 49 -122 49 -199 0 -72 2 -78 22 -79 l21 -2 -22 -4 c-15 -3
-26 -18 -38 -56 -17 -52 -53 -112 -62 -104 -2 3 5 23 16 45 45 87 48 291 6
371 -21 42 -35 47 -36 14 -1 -18 -3 -22 -6 -10 -12 46 24 63 50 24z m4275 0
c3 -12 -3 -17 -21 -17 -52 0 -57 -8 -57 -79 0 -36 4 -72 9 -80 5 -8 7 -20 4
-28 -6 -17 -43 -17 -44 0 -3 38 -2 78 5 125 6 48 5 52 -13 52 -15 0 -23 -10
-31 -40 -5 -22 -15 -59 -21 -82 -17 -66 -25 -76 -55 -70 -24 4 -25 6 -10 17 9
7 30 49 46 94 29 78 29 81 9 81 -11 0 -31 -12 -45 -27 -38 -41 -50 -15 -13 29
30 37 30 37 117 41 117 4 116 4 120 -16z m-5021 -29 c-3 -7 -5 -2 -5 12 0 14
2 19 5 13 2 -7 2 -19 0 -25z m644 -41 c18 -42 23 -70 23 -142 0 -72 -5 -100
-23 -142 -13 -29 -29 -58 -37 -64 -19 -15 -18 -9 6 42 23 51 25 85 8 92 -8 3
-5 6 6 6 17 1 18 8 14 89 -3 62 -11 100 -26 131 -12 25 -22 49 -22 54 0 21 29
-17 51 -66z m-1861 52 c0 -8 4 -8 14 1 8 6 25 10 38 8 21 -3 23 -9 26 -73 2
-38 8 -75 14 -82 8 -10 3 -13 -23 -13 -26 0 -30 3 -21 12 14 14 16 116 2 138
-8 13 -11 13 -26 -2 -21 -21 -33 -138 -15 -138 6 0 11 -4 11 -10 0 -5 -13 -10
-30 -10 -16 0 -30 5 -30 10 0 6 5 10 10 10 13 0 13 127 0 135 -6 4 -8 11 -5
16 9 13 35 11 35 -2z m1180 8 c0 -2 -10 -23 -21 -47 -40 -83 -40 -264 0 -355
29 -66 7 -55 -26 13 -26 52 -28 67 -28 167 0 100 2 115 28 168 16 31 33 57 38
57 5 0 9 -1 9 -3z m447 -48 c-19 -38 -22 -59 -22 -164 0 -106 3 -124 23 -158
25 -43 26 -47 11 -47 -9 0 -40 61 -64 125 -20 53 8 213 46 267 30 41 33 30 6
-23z m1500 9 c-3 -7 -5 -2 -5 12 0 14 2 19 5 13 2 -7 2 -19 0 -25z m2638 22
c3 -5 1 -10 -4 -10 -6 0 -11 5 -11 10 0 6 2 10 4 10 3 0 8 -4 11 -10z m436
-64 c-9 -30 -17 -53 -19 -51 -6 6 21 105 29 105 3 0 -1 -24 -10 -54z m497 26
c3 -11 -134 -22 -288 -24 -77 -1 -105 2 -105 11 0 8 21 14 59 17 33 2 60 5 62
6 7 8 269 -2 272 -10z m-7031 -14 c-3 -8 -6 -5 -6 6 -1 11 2 17 5 13 3 -3 4
-12 1 -19z m1358 2 c3 -11 11 -20 16 -20 16 0 10 -17 -8 -24 -11 -5 -23 1 -35
16 l-18 23 0 -32 c0 -45 9 -62 29 -56 11 3 21 -2 25 -12 9 -24 -2 -37 -22 -26
-13 7 -23 2 -43 -22 -15 -18 -31 -29 -35 -24 -4 4 -2 13 4 19 13 13 15 72 3
103 -8 19 -8 19 -19 -2 -7 -12 -12 -44 -12 -72 0 -62 35 -111 80 -111 16 0 32
5 35 10 3 6 10 10 15 10 15 0 1 -24 -25 -43 -21 -15 -31 -16 -65 -7 -51 14
-72 52 -72 130 0 73 10 91 67 120 25 13 48 27 51 32 9 14 22 9 29 -12z m727
-22 c-3 -28 1 -37 15 -41 16 -4 15 -6 -5 -12 -12 -4 -24 -17 -27 -29 -23 -100
-25 -120 -16 -129 7 -7 13 -4 17 9 12 33 26 47 34 33 10 -16 -29 -59 -53 -59
-10 0 -21 9 -24 20 -3 11 -8 18 -12 16 -4 -3 -13 -1 -21 5 -12 7 -11 9 6 9 17
0 23 8 28 38 3 20 9 47 12 60 5 18 2 22 -15 22 -11 0 -21 5 -21 10 0 6 9 10
20 10 21 0 24 4 35 53 8 41 30 28 27 -15z m4518 22 c-6 -11 -12 -20 -14 -20
-2 0 -2 9 1 20 3 11 9 20 15 20 5 0 4 -9 -2 -20z m-3583 -47 c-3 -10 -5 -4 -5
12 0 17 2 24 5 18 2 -7 2 -21 0 -30z m3811 -20 l-3 -48 70 -7 c39 -4 97 -11
130 -16 54 -8 56 -9 19 -11 -40 -1 -40 -2 -36 -33 6 -40 -20 -89 -60 -112 -17
-10 -59 -21 -94 -24 -64 -5 -64 -5 -74 -41 -24 -90 -24 -101 -1 -101 11 0 21
-4 21 -10 0 -5 -20 -10 -45 -10 -40 0 -45 -3 -51 -27 -4 -14 -2 -40 4 -57 10
-28 10 -29 -3 -12 -8 11 -15 37 -15 58 0 27 -4 38 -15 38 -8 0 -15 5 -15 10 0
6 11 10 24 10 15 0 27 7 30 18 10 35 66 274 66 282 0 4 -9 10 -20 13 -28 7
-25 27 5 27 19 0 26 7 34 36 5 19 7 42 4 50 -3 9 1 14 11 14 14 0 16 -9 14
-47z m-6821 -30 c-2 -16 -4 -5 -4 22 0 28 2 40 4 28 2 -13 2 -35 0 -50z m1540
35 c-3 -7 -5 -2 -5 12 0 14 2 19 5 13 2 -7 2 -19 0 -25z m-1820 -50 c-2 -13
-4 -3 -4 22 0 25 2 35 4 23 2 -13 2 -33 0 -45z m3243 43 c0 -9 -104 -21 -187
-21 -51 0 -80 14 -46 23 33 9 233 7 233 -2z m-1320 -16 c14 -16 7 -45 -11 -45
-6 0 -9 9 -6 19 6 25 -18 35 -38 15 -22 -22 -19 -33 12 -45 32 -12 43 -26 43
-56 0 -34 -34 -63 -75 -63 -33 0 -35 2 -35 35 0 19 4 35 9 35 17 0 23 -20 11
-35 -10 -12 -9 -16 5 -21 24 -10 49 8 53 37 2 19 -4 27 -28 36 -22 8 -30 18
-30 35 0 54 60 90 90 53z m5240 -11 c0 -16 -16 -19 -25 -4 -5 8 -12 7 -23 -2
-13 -10 -13 -7 1 9 20 23 47 21 47 -3z m153 -1 c-23 -2 -64 -2 -90 0 -26 2 -7
3 42 3 50 0 71 -1 48 -3z m-5205 -25 c7 -7 12 -23 12 -36 0 -42 -17 -60 -64
-67 -40 -6 -44 -10 -49 -38 -2 -18 -1 -33 4 -35 22 -9 6 -22 -26 -22 -34 0
-47 13 -22 23 15 6 41 139 32 167 -6 18 -2 20 47 20 30 0 59 -5 66 -12z m4213
-31 c-17 -17 -24 -1 -9 22 11 18 14 19 16 5 2 -9 -1 -21 -7 -27z m-6044 -29
c-2 -13 -4 -5 -4 17 -1 22 1 32 4 23 2 -10 2 -28 0 -40z m3010 15 c-3 -10 -5
-4 -5 12 0 17 2 24 5 18 2 -7 2 -21 0 -30z m-3290 -5 c-3 -7 -5 -2 -5 12 0 14
2 19 5 13 2 -7 2 -19 0 -25z m2520 0 c-3 -7 -5 -2 -5 12 0 14 2 19 5 13 2 -7
2 -19 0 -25z m713 17 c-6 -12 -204 -20 -228 -9 -12 6 -5 10 28 15 67 10 206 6
200 -6z m3540 -30 c0 -8 -4 -15 -10 -15 -5 0 -7 7 -4 15 4 8 8 15 10 15 2 0 4
-7 4 -15z m-810 -5 c0 -5 -4 -10 -10 -10 -5 0 -10 5 -10 10 0 6 5 10 10 10 6
0 10 -4 10 -10z m-3400 -14 c0 -9 -30 -14 -35 -6 -4 6 3 10 14 10 12 0 21 -2
21 -4z m177 -2 c-3 -3 -12 -4 -19 -1 -8 3 -5 6 6 6 11 1 17 -2 13 -5z m96 -1
c-7 -2 -19 -2 -25 0 -7 3 -2 5 12 5 14 0 19 -2 13 -5z m100 0 c-7 -2 -19 -2
-25 0 -7 3 -2 5 12 5 14 0 19 -2 13 -5z m94 1 c-3 -3 -12 -4 -19 -1 -8 3 -5 6
6 6 11 1 17 -2 13 -5z m106 -1 c-7 -2 -19 -2 -25 0 -7 3 -2 5 12 5 14 0 19 -2
13 -5z m100 0 c-7 -2 -21 -2 -30 0 -10 3 -4 5 12 5 17 0 24 -2 18 -5z m100 0
c-7 -2 -21 -2 -30 0 -10 3 -4 5 12 5 17 0 24 -2 18 -5z m100 0 c-7 -2 -19 -2
-25 0 -7 3 -2 5 12 5 14 0 19 -2 13 -5z m100 0 c-7 -2 -19 -2 -25 0 -7 3 -2 5
12 5 14 0 19 -2 13 -5z m3222 -33 c-4 -12 -9 -19 -12 -17 -3 3 -2 15 2 27 4
12 9 19 12 17 3 -3 2 -15 -2 -27z m-6658 -22 c-3 -7 -5 -2 -5 12 0 14 2 19 5
13 2 -7 2 -19 0 -25z m6710 0 c-3 -7 -5 -2 -5 12 0 14 2 19 5 13 2 -7 2 -19 0
-25z m-1227 12 c0 -5 -4 -10 -10 -10 -5 0 -10 5 -10 10 0 6 5 10 10 10 6 0 10
-4 10 -10z m-2293 -37 c-3 -10 -5 -4 -5 12 0 17 2 24 5 18 2 -7 2 -21 0 -30z
m-770 -5 c-3 -7 -5 -2 -5 12 0 14 2 19 5 13 2 -7 2 -19 0 -25z m-1131 -62 c47
-72 57 -222 21 -326 l-22 -65 33 -79 c18 -43 31 -80 29 -83 -2 -2 -17 27 -32
64 -15 38 -33 73 -39 78 -13 11 -19 58 -7 50 9 -5 27 55 35 121 8 59 -9 178
-32 224 -21 44 -12 55 14 16z m-912 -38 c-28 -52 -32 -235 -7 -310 14 -41 16
-55 6 -47 -49 41 -58 272 -13 363 13 28 25 45 27 39 3 -7 -4 -27 -13 -45z
m534 -5 c-15 -34 -23 -75 -26 -139 -4 -80 -1 -98 21 -155 l26 -64 -24 30 c-52
63 -60 237 -16 328 30 62 46 61 19 0z m1509 5 c-3 -7 -5 -2 -5 12 0 14 2 19 5
13 2 -7 2 -19 0 -25z m770 -15 c-3 -10 -5 -4 -5 12 0 17 2 24 5 18 2 -7 2 -21
0 -30z m-3120 -103 c0 -63 4 -123 8 -132 6 -14 2 -18 -19 -18 -26 0 -35 13
-15 25 12 8 7 198 -6 229 -6 14 -4 17 11 14 17 -3 19 -14 21 -118z m7008 30
c19 -37 19 -71 -1 -96 -15 -18 -15 -18 -5 3 15 30 14 59 -4 93 -9 17 -13 30
-11 30 3 0 12 -13 21 -30z m-6395 -8 c44 -36 35 -141 -15 -164 -22 -10 -29 -8
-49 11 -13 13 -27 34 -30 47 -10 38 11 99 36 112 31 15 33 14 58 -6z m138 -16
c2 -18 0 -26 -7 -21 -6 3 -11 12 -11 20 0 20 -32 28 -48 11 -13 -12 -13 -18
-2 -30 7 -9 18 -16 26 -16 22 0 44 -30 44 -60 0 -35 -26 -64 -49 -54 -9 3 -22
7 -28 7 -8 0 -13 13 -13 31 l0 31 13 -25 c14 -28 46 -39 57 -20 13 21 -1 47
-33 61 -59 26 -45 103 17 96 25 -3 32 -8 34 -31z m-656 15 c33 18 48 -6 48
-77 0 -34 5 -66 10 -69 17 -11 11 -22 -13 -22 -21 0 -22 2 -18 74 4 81 -6 104
-33 78 -18 -18 -24 -135 -6 -135 6 0 10 -4 10 -10 0 -5 -13 -10 -30 -10 -16 0
-30 5 -30 10 0 6 5 10 10 10 14 0 13 127 -1 136 -8 4 -7 9 2 15 8 4 18 4 23
-1 5 -5 17 -5 28 1z m398 -11 c12 -22 6 -40 -12 -40 -6 0 -8 9 -5 21 7 25 -17
37 -38 19 -15 -13 -21 -93 -9 -124 9 -24 49 -20 62 7 6 12 11 17 11 11 1 -7
-7 -22 -17 -34 -38 -47 -92 -1 -92 77 0 27 17 64 34 75 21 14 55 8 66 -12z
m1857 -22 c-3 -7 -5 -2 -5 12 0 14 2 19 5 13 2 -7 2 -19 0 -25z m770 -10 c-3
-7 -5 -2 -5 12 0 14 2 19 5 13 2 -7 2 -19 0 -25z m3591 7 c-3 -14 -1 -28 5
-32 13 -8 37 25 30 43 -3 8 0 14 6 14 17 0 13 -36 -5 -55 -9 -9 -23 -14 -30
-11 -13 5 -18 -6 -15 -26 0 -5 -3 -8 -9 -8 -12 0 -13 16 -1 57 7 22 6 33 -2
37 -7 2 -4 5 7 5 14 1 17 -4 14 -24z m242 14 c0 -6 -9 -8 -21 -4 -19 6 -21 4
-17 -24 3 -21 0 -31 -8 -31 -8 0 -12 13 -11 35 2 31 5 35 30 35 15 0 27 -5 27
-11z m-1962 -46 c-15 -30 -19 -54 -16 -115 3 -78 -7 -85 -18 -11 -7 50 0 88
26 131 27 44 32 40 8 -5z m253 -17 c27 -61 20 -182 -12 -202 -7 -4 -6 3 1 17
21 38 15 164 -9 205 -12 19 -16 32 -10 28 6 -3 20 -25 30 -48z m-1009 32 c-18
-18 -14 -26 11 -21 49 10 84 -88 47 -132 -18 -22 -76 -19 -100 5 -19 19 -19
19 -31 -23 -11 -42 -7 -227 6 -277 5 -19 4 -21 -4 -10 -19 27 -34 152 -27 228
6 59 4 72 -6 66 -19 -12 -61 -5 -75 14 -7 9 -13 33 -13 54 0 70 60 98 111 52
22 -20 24 -18 48 21 11 19 26 35 33 35 9 0 9 -3 0 -12z m1232 -107 c38 -86 52
-192 38 -296 -10 -80 -46 -174 -74 -200 -6 -5 -2 6 9 27 36 62 57 179 50 282
-7 108 -25 173 -68 241 -29 46 -29 48 -6 27 14 -13 37 -50 51 -81z m1411 89
c3 -5 1 -10 -4 -10 -6 0 -11 5 -11 10 0 6 2 10 4 10 3 0 8 -4 11 -10z m-1185
-26 c-13 -33 -13 -100 1 -127 10 -21 10 -21 -5 -3 -18 23 -22 107 -6 137 15
27 21 23 10 -7z m122 -62 c3 -45 0 -52 -15 -52 -12 0 -16 4 -10 13 4 6 8 37 9
67 3 89 10 76 16 -28z m169 78 c25 -14 24 -36 -3 -68 -15 -20 -19 -22 -13 -7
19 49 18 65 -6 74 -13 5 -18 10 -11 10 7 1 22 -4 33 -9z m99 -65 c0 -37 -4
-65 -10 -65 -6 0 -10 28 -10 65 0 37 4 65 10 65 6 0 10 -28 10 -65z m-5863 49
c-3 -3 -12 -4 -19 -1 -8 3 -5 6 6 6 11 1 17 -2 13 -5z m5713 -10 c0 -8 -4 -12
-10 -9 -5 3 -10 10 -10 16 0 5 5 9 10 9 6 0 10 -7 10 -16z m595 -21 c-7 -16
-28 -102 -45 -193 -38 -200 -75 -347 -96 -377 -21 -33 -25 -28 -8 12 8 20 28
108 45 198 35 190 75 355 91 374 19 23 27 14 13 -14z m40 -2 c-9 -16 -25 -3
-18 15 4 10 9 12 15 6 6 -6 7 -15 3 -21z m-4218 -3 c-3 -8 -6 -5 -6 6 -1 11 2
17 5 13 3 -3 4 -12 1 -19z m2507 14 c3 -5 -3 -42 -14 -83 -10 -41 -16 -77 -13
-81 2 -5 -2 -8 -11 -8 -14 0 -12 18 21 149 5 20 3 23 -11 18 -10 -4 -15 -3
-11 3 7 12 32 13 39 2z m54 -4 c19 -19 14 -63 -9 -89 -18 -21 -20 -21 -14 -4
26 74 25 86 -5 98 -13 5 -13 6 1 6 8 1 20 -4 27 -11z m-1791 -50 c-2 -13 -4
-5 -4 17 -1 22 1 32 4 23 2 -10 2 -28 0 -40z m883 31 c0 -5 -43 -9 -95 -9 -71
0 -93 3 -90 13 6 14 185 11 185 -4z m1111 -39 c-5 -24 -8 -47 -5 -52 3 -4 -1
-5 -8 -3 -11 4 -12 17 -4 60 6 30 14 51 19 46 4 -4 3 -27 -2 -51z m59 51 c0
-6 -4 -13 -10 -16 -5 -3 -10 1 -10 9 0 9 5 16 10 16 6 0 10 -4 10 -9z m1910
-9 c0 -7 -390 -5 -435 2 -11 2 82 4 208 5 125 0 227 -2 227 -7z m-425 -84 c-5
-29 -10 -47 -13 -40 -5 17 8 106 15 99 3 -3 2 -30 -2 -59z m-5656 -8 c0 -10
-3 -8 -9 5 -12 27 -12 43 0 25 5 -8 9 -22 9 -30z m4881 30 c0 -5 -4 -10 -10
-10 -5 0 -10 5 -10 10 0 6 5 10 10 10 6 0 10 -4 10 -10z m113 -2 c-6 -11 -73
-10 -73 0 0 4 18 8 39 7 21 0 37 -3 34 -7z m850 -22 c-3 -18 0 -44 6 -57 12
-23 11 -23 -3 -5 -17 21 -20 53 -10 80 10 26 13 18 7 -18z m217 -15 c0 -20 -7
-46 -16 -57 -14 -18 -15 -18 -4 5 7 13 10 40 8 61 -2 21 0 36 4 34 5 -3 8 -22
8 -43z m-3209 19 c-7 -4 -10 -36 -9 -88 2 -50 -1 -82 -7 -82 -6 0 -9 24 -7 60
2 33 -1 73 -6 89 -12 34 -8 41 19 34 13 -4 16 -8 10 -13z m76 -16 c17 -27 11
-53 -16 -62 -10 -3 -10 0 -2 16 14 26 6 46 -22 60 l-22 11 22 0 c14 1 29 -9
40 -25z m1128 17 c3 -5 1 -12 -5 -16 -5 -3 -10 1 -10 9 0 18 6 21 15 7z m1634
-45 c-9 -8 -10 -7 -5 7 3 10 7 26 7 35 1 9 4 6 6 -7 3 -13 -1 -28 -8 -35z m64
47 c-7 -2 -13 -16 -13 -31 0 -19 -3 -23 -11 -15 -13 13 5 53 24 52 9 0 9 -2 0
-6z m44 -7 c-3 -8 -9 -31 -13 -50 -3 -20 -10 -36 -14 -36 -4 0 -3 23 3 50 5
28 14 50 19 50 6 0 8 -6 5 -14z m155 -32 c-2 -14 -8 -22 -13 -17 -4 4 -5 21
-2 36 3 17 9 24 13 17 4 -6 5 -23 2 -36z m33 36 c3 -5 1 -10 -4 -10 -6 0 -11
5 -11 10 0 6 2 10 4 10 3 0 8 -4 11 -10z m-2648 -28 c-32 -4 -51 -33 -42 -65
5 -17 4 -19 -4 -7 -27 38 8 94 51 82 22 -7 22 -7 -5 -10z m273 0 c0 -5 -11
-14 -25 -20 -39 -18 -44 -14 -10 7 36 23 35 23 35 13z m-3586 -57 c4 -19 3
-25 -3 -15 -4 8 -11 29 -15 45 -4 19 -3 25 3 15 4 -8 11 -28 15 -45z m6610 13
c-3 -13 -15 -39 -26 -58 l-19 -35 5 30 c2 17 9 42 15 58 13 33 36 37 25 5z
m-3642 -48 c2 -36 -1 -60 -7 -60 -6 0 -9 21 -6 51 2 36 -1 54 -10 60 -11 7
-11 9 3 9 13 0 17 -12 20 -60z m534 45 c-11 -8 -23 -15 -28 -15 -22 0 -2 -19
52 -48 33 -19 60 -36 60 -38 0 -3 -31 12 -70 33 -38 21 -70 41 -70 45 0 5 15
14 33 22 42 19 46 19 23 1z m2816 -115 c2 -83 0 -110 -9 -110 -10 0 -13 28
-13 104 0 74 -4 106 -12 109 -7 3 -3 6 9 6 21 1 22 -3 25 -109z m-7115 33 c-3
-10 -5 -4 -5 12 0 17 2 24 5 18 2 -7 2 -21 0 -30z m2722 -30 l0 -38 -20 43
c-20 47 -17 71 7 48 8 -8 14 -32 13 -53z m1356 -3 c16 -9 31 -22 33 -29 2 -7
-13 -2 -34 12 -29 18 -39 31 -41 53 -2 27 -1 27 5 5 4 -14 21 -32 37 -41z
m518 53 c-13 -2 -35 -2 -50 0 -16 2 -5 4 22 4 28 0 40 -2 28 -4z m290 -10
c-34 -2 -93 -2 -130 0 -37 2 -9 3 62 3 72 0 102 -1 68 -3z m850 0 c-23 -2 -64
-2 -90 0 -26 2 -7 3 42 3 50 0 71 -1 48 -3z m-2983 -23 c0 -11 -2 -20 -4 -20
-2 0 -6 9 -9 20 -3 11 -1 20 4 20 5 0 9 -9 9 -20z m2323 13 c-18 -2 -48 -2
-65 0 -18 2 -4 4 32 4 36 0 50 -2 33 -4z m-2536 -50 c-3 -10 -5 -2 -5 17 0 19
2 27 5 18 2 -10 2 -26 0 -35z m4491 37 c-25 -15 -32 -65 -15 -100 18 -35 5
-40 -17 -8 -30 42 -9 118 32 118 16 -1 16 -1 0 -10z m-4521 -22 c-3 -8 -6 -5
-6 6 -1 11 2 17 5 13 3 -3 4 -12 1 -19z m123 1 c-21 -16 -23 -20 -10 -29 11
-7 7 -10 -18 -10 -30 0 -32 2 -18 15 8 9 13 22 10 29 -3 9 5 13 28 14 l33 1
-25 -20z m4624 -42 c-10 -40 -11 -54 -1 -66 10 -12 9 -13 -11 -2 -16 8 -21 18
-17 29 3 9 9 35 12 58 4 29 10 41 18 38 10 -4 10 -15 -1 -57z m76 42 c0 -5 -7
-9 -15 -9 -15 0 -20 12 -9 23 8 8 24 -1 24 -14z m-1673 -15 c-3 -3 -12 -4 -19
-1 -8 3 -5 6 6 6 11 1 17 -2 13 -5z m101 -1 c-15 -2 -42 -2 -60 0 -18 2 -6 4
27 4 33 0 48 -2 33 -4z m-3881 -9 c-3 -3 -12 -4 -19 -1 -8 3 -5 6 6 6 11 1 17
-2 13 -5z m657 -21 c9 4 16 2 16 -3 0 -11 -53 -14 -63 -4 -3 3 -3 12 0 20 4
12 7 12 18 -2 7 -10 19 -15 29 -11z m136 17 c0 -5 -5 -10 -11 -10 -5 0 -7 5
-4 10 3 6 8 10 11 10 2 0 4 -4 4 -10z m1900 -1 c0 -21 -33 -149 -37 -145 -8 7
20 156 29 156 4 0 8 -5 8 -11z m-2513 -5 c-3 -3 -12 -4 -19 -1 -8 3 -5 6 6 6
11 1 17 -2 13 -5z m190 -10 c-3 -3 -12 -4 -19 -1 -8 3 -5 6 6 6 11 1 17 -2 13
-5z m96 -1 c-7 -2 -21 -2 -30 0 -10 3 -4 5 12 5 17 0 24 -2 18 -5z m102 -3 c4
-6 -5 -10 -19 -10 -14 0 -26 5 -26 10 0 6 9 10 19 10 11 0 23 -4 26 -10z
m1918 3 c-13 -2 -35 -2 -50 0 -16 2 -5 4 22 4 28 0 40 -2 28 -4z m-2246 -25
c-3 -8 -6 -5 -6 6 -1 11 2 17 5 13 3 -3 4 -12 1 -19z m533 12 c-20 -13 -60
-13 -60 0 0 6 17 10 38 10 27 0 33 -3 22 -10z m90 -6 c0 -2 -11 -4 -25 -4 -14
0 -25 4 -25 9 0 4 11 6 25 3 14 -2 25 -6 25 -8z m87 0 c-3 -3 -12 -4 -19 -1
-8 3 -5 6 6 6 11 1 17 -2 13 -5z m1963 -79 l-7 -70 -1 57 c-2 47 6 97 12 86 1
-2 -1 -34 -4 -73z m290 -20 c0 -33 -4 -65 -8 -72 -4 -6 -7 26 -7 72 0 46 3 78
7 72 4 -7 8 -39 8 -72z m2101 62 c-13 -13 -26 -3 -16 12 3 6 11 8 17 5 6 -4 6
-10 -1 -17z m-2571 -62 c-6 -19 -16 -35 -21 -35 -6 0 -6 8 1 19 5 11 10 35 10
53 1 28 2 30 11 15 7 -12 7 -28 -1 -52z m109 -24 c-27 -100 -38 -99 -14 1 19
76 24 92 31 85 3 -2 -5 -41 -17 -86z m-54 62 c-4 -10 -11 -34 -15 -53 l-8 -35
-1 33 c-1 32 13 72 25 72 4 0 3 -8 -1 -17z m-701 -30 c9 -18 14 -33 12 -33 -6
0 -36 55 -36 66 0 11 5 3 24 -33z m971 -18 c-4 -26 -11 -43 -16 -38 -4 4 -3
27 3 51 14 55 22 47 13 -13z m-2818 -17 c-3 -7 -5 -2 -5 12 0 14 2 19 5 13 2
-7 2 -19 0 -25z m1017 -37 c-20 -41 -20 -125 1 -157 8 -13 12 -24 7 -24 -5 0
-17 18 -27 40 -21 47 -17 113 10 153 23 36 29 29 9 -12z m222 -17 c8 -18 14
-46 14 -61 0 -30 -37 -119 -45 -111 -3 3 1 18 10 34 19 37 19 104 0 150 -8 19
-10 32 -4 28 6 -3 17 -21 25 -40z m2903 -15 c-1 -40 -4 -57 -10 -48 -14 23 -9
109 7 109 2 0 3 -28 3 -61z m-5099 7 c0 -12 -5 -7 -19 24 -11 24 -11 24 3 6 9
-11 16 -24 16 -30z m3720 34 c0 -5 -2 -10 -4 -10 -3 0 -8 5 -11 10 -3 6 -1 10
4 10 6 0 11 -4 11 -10z m1456 -59 c-9 -58 -21 -53 -21 10 0 51 2 57 13 42 8
-11 11 -31 8 -52z m-5387 -105 c0 -6 -11 20 -25 58 -13 39 -24 75 -23 80 0 6
11 -20 25 -58 13 -39 24 -75 23 -80z m2117 98 c8 -33 -21 -78 -47 -71 -17 5
-25 -8 -20 -35 0 -5 -9 -8 -20 -8 -16 0 -19 3 -11 13 11 14 33 110 26 117 -3
2 -9 -2 -14 -10 -6 -8 -10 -10 -10 -4 0 18 9 22 50 22 34 1 41 -3 46 -24z
m210 3 c2 -14 1 -14 -3 -2 -8 28 -33 -4 -33 -43 0 -34 0 -35 20 -17 11 10 20
13 20 7 0 -18 -28 -28 -65 -24 -21 3 -35 10 -35 18 0 8 5 14 10 14 6 0 10 -5
10 -12 0 -19 17 4 24 33 8 34 -3 43 -26 22 -21 -19 -25 -11 -3 10 20 21 79 16
81 -6z m-2035 -133 c17 -21 19 -67 2 -52 -7 6 -13 17 -13 25 0 8 -6 13 -12 11
-15 -5 -43 -122 -34 -143 7 -19 31 -9 44 18 8 16 11 17 11 6 1 -9 -8 -24 -20
-35 -17 -15 -23 -16 -41 -5 -14 9 -24 9 -31 2 -7 -7 -16 -7 -29 0 -22 12 -24
39 -3 39 8 0 15 -7 15 -15 0 -23 19 -18 25 8 29 121 21 162 -20 112 -27 -33
-34 -23 -9 13 16 23 48 29 59 12 5 -8 11 -8 20 0 11 9 8 23 -16 77 -39 88 -36
94 6 10 18 -37 39 -75 46 -83z m-182 94 c-43 -83 -43 -244 -1 -328 14 -29 16
-40 7 -44 -15 -5 -70 148 -59 165 4 8 3 9 -4 5 -7 -4 -12 -2 -12 3 0 6 4 11 8
11 5 0 10 24 11 52 2 69 16 119 42 152 30 38 33 32 8 -16z m5051 32 c0 -5 -4
-10 -10 -10 -5 0 -10 5 -10 10 0 6 5 10 10 10 6 0 10 -4 10 -10z m-4774 -67
c37 -85 23 -273 -23 -319 -33 -33 -36 -30 -12 10 16 27 18 39 10 55 -16 28
-14 38 3 16 13 -18 15 -13 21 48 9 80 0 146 -26 206 -10 24 -19 46 -19 50 1
11 32 -33 46 -66z m-1165 10 c-59 -82 -92 -301 -74 -486 11 -111 49 -244 79
-278 8 -8 14 -22 14 -30 -1 -22 -29 18 -60 86 -74 161 -81 465 -14 635 24 60
66 128 71 113 3 -7 -5 -25 -16 -40z m1405 -88 c78 -166 87 -418 23 -650 -8
-27 -19 -56 -25 -62 -7 -7 -22 -28 -34 -48 -12 -19 -26 -35 -31 -35 -13 0 -12
5 16 46 14 21 28 49 32 63 3 14 10 31 14 37 39 50 55 382 26 519 -17 78 -47
152 -77 195 -11 16 -20 34 -20 42 1 23 42 -34 76 -107z m284 73 c-26 -58 -27
-161 -1 -211 23 -45 8 -50 -16 -4 -25 46 -24 169 1 220 25 51 40 47 16 -5z
m548 -37 c23 -76 13 -162 -24 -207 l-24 -29 20 45 c27 61 26 160 -1 219 -19
42 -19 44 -1 28 10 -10 24 -35 30 -56z m-418 -21 c0 -49 4 -70 13 -70 8 0 7
-4 -3 -10 -12 -8 -13 -13 -2 -30 11 -18 10 -20 -12 -20 -27 0 -42 15 -26 25
16 10 1 25 -25 25 -13 0 -26 4 -30 9 -7 12 63 141 76 141 5 0 9 -31 9 -70z
m191 60 c34 -19 26 -77 -18 -122 l-37 -38 31 0 c17 0 34 6 36 13 3 6 6 0 6
-15 1 -27 -1 -28 -49 -28 -27 0 -50 3 -50 6 0 3 15 24 34 47 41 50 52 87 36
117 -15 28 -45 22 -45 -9 0 -13 -6 -26 -12 -28 -19 -7 -16 32 3 51 18 19 38
20 65 6z m124 -180 c8 0 15 -5 15 -10 0 -7 -14 -8 -37 -4 -42 7 -56 14 -30 14
15 0 17 12 17 80 0 69 -2 80 -17 80 -13 0 -11 4 7 13 l25 13 3 -93 c2 -74 6
-93 17 -93z m2801 143 c-36 -55 -49 -120 -44 -226 3 -78 8 -102 34 -155 33
-67 29 -84 -6 -27 -12 19 -25 35 -29 35 -9 0 -31 120 -31 174 0 25 5 67 11 95
11 51 61 141 79 141 6 0 -1 -17 -14 -37z m392 -48 c37 -72 43 -215 13 -297
-22 -58 -55 -108 -72 -108 -5 0 1 17 14 38 37 58 51 110 51 197 0 88 -22 177
-54 218 -26 33 -26 45 1 21 12 -10 33 -41 47 -69z m-2650 21 c3 -20 0 -27 -10
-24 -7 3 -13 15 -12 27 0 11 -3 21 -7 21 -16 0 -39 -103 -64 -290 -18 -138
-70 -414 -91 -490 -24 -83 -54 -109 -88 -74 -20 20 -21 44 -1 44 10 0 15 -10
15 -26 0 -22 2 -25 15 -14 23 19 42 97 69 290 42 290 91 525 118 558 19 23 53
10 56 -22z m-1962 9 c5 -11 10 -13 19 -5 7 6 22 13 33 15 17 3 24 -5 36 -42
18 -51 19 -59 9 -50 -3 4 -14 -11 -24 -32 -20 -46 -53 -68 -74 -51 -11 9 -15
4 -21 -25 -5 -27 -3 -40 7 -46 10 -6 4 -9 -18 -9 -18 0 -33 5 -33 10 0 6 4 10
8 10 9 0 42 161 42 204 0 32 -19 26 -21 -7 -1 -18 -2 -18 -6 -4 -5 19 12 47
29 47 5 0 11 -7 14 -15z m2442 -22 c61 -3 112 -9 112 -12 0 -10 -514 0 -524
10 -12 11 244 12 412 2z m-370 -73 c-4 -23 -1 -30 13 -30 24 0 37 -21 33 -50
-7 -42 -58 -67 -70 -35 -9 23 6 145 18 145 6 0 8 -13 6 -30z m226 5 c-22 -34
-22 -121 0 -163 22 -42 11 -41 -14 1 -12 19 -20 50 -20 75 0 45 25 112 41 112
5 0 2 -11 -7 -25z m230 -90 c0 -33 -6 -62 -18 -79 -23 -35 -31 -28 -11 10 19
37 19 95 0 141 -21 49 -18 54 7 14 16 -24 22 -50 22 -86z m1446 80 c10 -12 15
-12 36 2 20 12 30 14 49 5 29 -13 40 -48 32 -102 -9 -72 -82 -134 -119 -103
-15 14 -18 13 -23 -13 -4 -16 -9 -37 -12 -46 -3 -12 1 -18 11 -18 9 0 16 -5
16 -10 0 -6 -16 -8 -42 -4 -45 7 -63 14 -36 14 11 0 22 26 38 98 29 123 36
182 22 182 -6 0 -16 -17 -23 -37 -9 -26 -14 -32 -17 -20 -5 22 23 67 42 67 7
0 19 -7 26 -15z m-2795 -25 c-5 -8 -11 -8 -17 -2 -6 6 -7 16 -3 22 5 8 11 8
17 2 6 -6 7 -16 3 -22z m3221 15 c5 -12 9 -12 29 1 38 25 86 -2 65 -36 -13
-21 -39 -5 -33 21 5 19 4 20 -15 10 -12 -6 -25 -24 -28 -39 -3 -15 -10 -43
-15 -62 -22 -87 5 -117 53 -60 32 39 39 26 7 -14 -14 -17 -30 -26 -49 -26 -28
0 -29 -2 -33 -52 l-3 -53 -2 63 c-2 62 -8 72 -29 51 -7 -7 -23 -9 -38 -5 -20
5 -26 12 -23 29 4 30 34 29 31 0 -2 -13 2 -23 7 -23 18 0 38 45 50 112 7 37 9
71 5 77 -12 20 -36 11 -53 -19 -9 -16 -20 -30 -25 -30 -11 0 21 57 35 63 26
11 59 7 64 -8z m-5461 -40 c49 -48 22 -115 -46 -115 l-39 0 0 -50 c0 -36 5
-52 18 -59 13 -8 7 -10 -28 -10 -34 0 -41 2 -28 9 13 8 16 29 17 119 1 95 -1
111 -16 120 -14 8 -5 10 40 11 48 0 62 -4 82 -25z m3274 16 c12 -8 13 -18 3
-61 -7 -29 -10 -56 -6 -61 3 -5 -4 -9 -16 -9 -18 0 -19 3 -10 20 9 17 8 20
-10 20 -26 0 -42 37 -27 65 17 34 39 43 66 26z m231 -16 c0 -8 -4 -15 -10 -15
-5 0 -10 5 -10 11 0 19 -18 0 -22 -25 -7 -37 9 -56 27 -32 8 11 15 15 15 9 0
-19 -24 -31 -59 -29 -19 1 -36 7 -39 14 -5 16 15 16 21 0 2 -7 9 3 14 22 12
40 1 59 -22 40 -13 -11 -14 -10 -9 4 8 22 94 23 94 1z m-3009 -25 c5 0 9 -5 9
-11 0 -7 -10 -9 -25 -6 -29 5 -45 -15 -45 -57 0 -21 5 -26 25 -26 14 0 25 -4
25 -10 0 -5 -12 -10 -26 -10 -32 0 -53 -25 -54 -61 0 -20 10 -33 40 -53 42
-27 51 -55 26 -76 -11 -9 -19 -9 -33 0 -16 10 -15 10 5 5 38 -11 26 27 -18 57
-45 31 -52 66 -24 106 10 15 13 32 9 52 -7 30 17 90 35 90 6 0 10 7 10 16 0
14 1 14 16 0 8 -9 20 -16 25 -16z m4339 -37 c-11 -17 -11 -17 -6 0 3 10 7 26
7 35 1 15 2 15 6 0 2 -10 -1 -25 -7 -35z m-4034 28 c-3 -5 -37 -28 -76 -51
-38 -23 -70 -45 -70 -49 0 -4 32 -29 70 -55 39 -27 70 -52 70 -58 0 -11 -5 -8
-98 55 -40 28 -71 55 -69 61 2 6 39 32 82 58 76 46 102 58 91 39z m3447 -37
c3 -3 -6 -38 -20 -78 -29 -79 -31 -82 -39 -73 -3 3 2 40 12 81 16 68 29 88 47
70z m912 -60 l-15 -59 6 49 c6 51 14 79 20 73 2 -2 -3 -30 -11 -63z m-5075 45
c0 -8 4 -8 15 1 16 14 35 6 35 -16 0 -20 -20 -17 -20 4 -1 15 -2 15 -15 -2
-22 -29 -20 -122 3 -135 14 -8 9 -10 -22 -11 -31 0 -37 3 -28 12 15 15 16 138
2 138 -5 0 -10 5 -10 10 0 6 9 10 20 10 11 0 20 -5 20 -11z m3830 -169 c0
-127 2 -150 15 -150 8 0 15 -4 15 -10 0 -5 -6 -10 -14 -10 -8 0 -21 -3 -30 -6
-11 -4 -16 -1 -16 10 0 13 -4 15 -19 6 -31 -16 -51 -12 -82 19 -24 25 -29 38
-29 79 0 40 5 54 26 76 28 28 72 34 92 14 9 -9 12 1 12 45 0 44 -3 57 -15 57
-8 0 -15 5 -15 10 0 6 14 10 30 10 l30 0 0 -150z m873 143 c-7 -2 -19 -2 -25
0 -7 3 -2 5 12 5 14 0 19 -2 13 -5z m120 -10 c-13 -2 -33 -2 -45 0 -13 2 -3 4
22 4 25 0 35 -2 23 -4z m-3365 -28 c-3 -3 -9 2 -12 12 -6 14 -5 15 5 6 7 -7
10 -15 7 -18z m3269 -17 c-3 -8 -6 -5 -6 6 -1 11 2 17 5 13 3 -3 4 -12 1 -19z
m-3393 -25 c82 -1 151 -5 154 -8 3 -3 16 -5 29 -5 12 0 23 -4 23 -9 0 -11 -47
-20 -57 -11 -4 5 -93 11 -198 14 -279 9 -425 18 -425 26 0 4 73 5 163 2 89 -3
229 -7 311 -9z m985 -9 c14 -13 -20 -16 -114 -9 -60 4 -105 11 -105 17 0 10
209 2 219 -8z m2398 -6 c-3 -8 -6 -5 -6 6 -1 11 2 17 5 13 3 -3 4 -12 1 -19z
m-730 -33 c5 -14 7 -14 23 0 25 23 55 15 55 -13 0 -12 -4 -21 -10 -19 -5 1
-10 10 -9 20 1 31 -27 18 -42 -19 -20 -47 -24 -145 -6 -151 8 -3 12 7 13 29 1
30 2 31 8 8 l7 -25 13 23 c7 13 15 21 18 19 2 -3 -1 -16 -9 -29 -7 -12 -18
-43 -25 -68 -12 -43 -12 -43 -8 -7 3 31 1 37 -15 37 -11 0 -25 6 -32 14 -11
12 -17 11 -40 -5 -15 -11 -29 -29 -31 -42 -4 -17 -5 -15 -5 8 -1 17 -4 42 -8
58 -5 20 -3 27 9 27 8 0 17 10 20 22 4 12 9 19 12 16 4 -3 2 -23 -4 -43 -7
-27 -7 -35 2 -32 17 5 38 73 40 127 2 57 -23 67 -48 20 -9 -18 -19 -30 -22
-27 -6 7 16 50 31 59 19 13 56 9 63 -7z m616 -2 c-7 -2 -19 -2 -25 0 -7 3 -2
5 12 5 14 0 19 -2 13 -5z m212 -3 c3 -6 -1 -7 -9 -4 -18 7 -21 14 -7 14 6 0
13 -4 16 -10z m-3301 -16 c3 -8 2 -12 -4 -9 -6 3 -10 10 -10 16 0 14 7 11 14
-7z m-295 -20 c5 3 6 -6 3 -19 -2 -14 -8 -25 -12 -25 -35 0 -42 -208 -10 -291
24 -66 19 -75 -11 -17 -34 65 -39 208 -10 287 12 32 19 67 15 77 -5 18 -5 18
6 1 6 -9 15 -15 19 -13z m1052 6 c29 0 49 -4 49 -11 0 -8 -22 -10 -72 -6 -40
4 -90 6 -110 7 -22 0 -38 5 -38 11 0 8 18 10 61 5 34 -3 84 -6 110 -6z m742 3
c-7 -2 -19 -2 -25 0 -7 3 -2 5 12 5 14 0 19 -2 13 -5z m1516 -9 c33 -4 61 -11
61 -16 0 -12 -251 0 -264 13 -12 11 112 12 203 3z m824 -15 c-6 -6 -21 -9 -34
-6 -22 4 -22 4 4 6 15 0 27 6 27 13 0 6 3 8 7 5 4 -4 2 -12 -4 -18z m-4426 -6
c-3 -10 -8 -35 -12 -57 -5 -33 -4 -38 9 -33 47 18 69 -46 41 -118 -18 -49 -53
-68 -80 -45 -19 16 -19 57 1 160 12 63 12 85 3 96 -9 11 -7 14 15 14 21 0 26
-4 23 -17z m568 -77 c24 -78 20 -191 -9 -252 -13 -28 -29 -55 -36 -59 -6 -4
-1 13 12 36 20 39 23 58 23 159 0 100 -3 121 -22 158 -28 52 -29 65 -3 32 11
-14 27 -47 35 -74z m1722 88 c-3 -3 -12 -4 -19 -1 -8 3 -5 6 6 6 11 1 17 -2
13 -5z m-2508 -30 c2 -2 2 -7 -2 -10 -9 -10 -167 7 -167 17 0 9 159 1 169 -7z
m531 -49 c0 -5 -5 -3 -10 5 -5 8 -10 20 -10 25 0 6 5 3 10 -5 5 -8 10 -19 10
-25z m4025 15 c383 -14 495 -22 495 -31 0 -11 -51 -11 -380 5 -219 10 -267 10
-276 -1 -9 -11 -16 -10 -40 1 -23 12 -157 22 -216 17 -4 -1 15 -34 42 -75 28
-41 50 -81 50 -89 0 -8 -9 -22 -19 -31 -20 -18 -19 -18 6 -40 16 -14 26 -34
28 -56 3 -39 20 -51 30 -21 10 33 64 81 90 81 13 0 29 -8 34 -17 9 -16 12 -16
20 -3 23 35 21 -8 -7 -131 -29 -124 -30 -133 -14 -145 15 -12 10 -13 -30 -14
-26 0 -50 5 -53 10 -3 6 3 10 13 10 13 0 22 9 26 28 4 15 9 35 12 44 4 15 1
15 -25 5 -25 -9 -33 -8 -50 7 -10 9 -22 33 -25 52 -9 43 -19 43 -46 -1 -35
-57 -75 -70 -110 -35 -26 26 -26 65 4 190 20 84 22 102 10 107 -23 9 -16 23
12 23 l25 0 -18 31 c-10 17 -30 45 -45 61 -16 17 -28 33 -28 36 0 3 53 2 118
-2 64 -3 230 -10 367 -16z m-3675 -54 c0 -12 -5 -7 -19 24 -11 24 -11 24 3 6
9 -11 16 -24 16 -30z m2978 38 c12 -4 22 -10 22 -15 0 -10 -252 1 -264 12 -11
10 206 12 242 3z m-917 -34 c5 0 9 -9 9 -20 0 -18 -1 -18 -25 4 -14 13 -25 29
-25 35 0 8 5 7 16 -3 8 -9 20 -16 25 -16z m-2566 0 c5 -8 12 -7 23 2 13 11 15
10 9 -12 -3 -14 -13 -67 -23 -117 -13 -75 -14 -96 -4 -108 11 -13 7 -15 -24
-15 -40 0 -43 4 -21 26 21 21 19 54 -2 54 -28 0 -42 13 -47 46 -7 37 7 90 30
115 19 21 49 25 59 9z m250 -10 c4 -7 13 -6 27 1 16 8 24 8 35 -4 9 -8 12 -20
9 -26 -10 -16 -26 -13 -26 5 0 9 -6 14 -12 12 -19 -7 -43 -137 -28 -152 9 -8
18 -3 36 19 l25 30 -12 -28 c-14 -30 -56 -47 -69 -27 -4 7 -13 9 -20 5 -9 -6
-9 -3 -1 12 6 11 8 23 4 26 -3 4 -1 12 4 19 17 21 26 95 13 103 -15 9 -38 -11
-43 -38 -3 -20 -4 -20 -11 -4 -14 30 52 75 69 47z m280 -40 c9 -16 13 -30 11
-30 -3 0 -12 14 -21 30 -9 17 -13 30 -11 30 3 0 12 -13 21 -30z m2598 23 c-13
-2 -33 -2 -45 0 -13 2 -3 4 22 4 25 0 35 -2 23 -4z m-496 -48 c-6 -19 -12 -34
-13 -32 -7 7 9 76 16 72 5 -3 3 -21 -3 -40z m560 39 c-3 -3 -12 -4 -19 -1 -8
3 -5 6 6 6 11 1 17 -2 13 -5z m-460 -36 c-3 -8 -6 -5 -6 6 -1 11 2 17 5 13 3
-3 4 -12 1 -19z m1459 -41 c-58 -112 -57 -262 4 -374 31 -59 28 -68 -10 -21
-83 105 -80 339 5 431 14 15 28 27 30 27 2 0 -11 -28 -29 -63z m-1093 36 c-7
-2 -21 -2 -30 0 -10 3 -4 5 12 5 17 0 24 -2 18 -5z m1471 -34 c42 -63 56 -114
56 -205 0 -99 -25 -175 -70 -219 l-30 -29 29 55 c41 75 56 168 42 259 -11 69
-40 142 -61 155 -12 8 -13 25 -1 25 4 0 21 -18 35 -41z m-1381 24 c-7 -2 -21
-2 -30 0 -10 3 -4 5 12 5 17 0 24 -2 18 -5z m-1367 -41 c36 -23 47 -139 18
-180 -21 -30 -69 -30 -86 1 -20 35 -15 142 7 167 19 21 42 25 61 12z m3293
-92 c-23 -111 -29 -133 -36 -127 -2 3 5 49 17 104 23 108 28 128 35 122 2 -3
-5 -47 -16 -99z m61 90 c0 -5 -2 -10 -4 -10 -3 0 -8 5 -11 10 -3 6 -1 10 4 10
6 0 11 -4 11 -10z m-658 -75 c3 -40 2 -61 -3 -50 -7 19 -13 132 -5 124 2 -2 6
-35 8 -74z m-4322 44 c0 -24 -23 -21 -28 4 -2 10 3 17 12 17 10 0 16 -9 16
-21z m4445 -9 c-3 -5 8 -16 25 -25 21 -11 30 -22 29 -38 -1 -12 -3 -15 -5 -7
-3 8 -18 23 -34 32 -29 16 -41 48 -19 48 5 0 8 -4 4 -10z m690 -97 c-1 -46 -6
-78 -14 -85 -10 -11 -11 -7 -4 17 10 37 10 99 1 145 -7 30 -6 32 5 15 6 -11
12 -52 12 -92z m405 98 c0 -5 -7 -12 -16 -15 -14 -5 -15 -4 -4 9 14 17 20 19
20 6z m85 -28 c-7 -16 -21 -63 -31 -105 -15 -67 -21 -78 -38 -78 -13 0 -16 3
-10 8 14 9 57 170 50 189 -4 9 3 13 19 13 22 0 23 -1 10 -27z m-5205 -3 c6
-11 8 -20 6 -20 -3 0 -10 9 -16 20 -6 11 -8 20 -6 20 3 0 10 -9 16 -20z m4254
-22 c-3 -5 -10 -8 -16 -8 -6 0 -9 3 -5 6 3 4 -4 15 -16 25 -22 19 -22 19 10 2
17 -10 29 -21 27 -25z m551 -48 c0 -49 -3 -82 -7 -72 -11 29 -7 162 6 162 0 0
1 -40 1 -90z m485 80 c0 -5 -2 -10 -4 -10 -3 0 -8 5 -11 10 -3 6 -1 10 4 10 6
0 11 -4 11 -10z m-990 -4 c0 -2 -7 -7 -16 -10 -8 -3 -12 -2 -9 4 6 10 25 14
25 6z m-4652 -31 c-3 -3 -9 2 -12 12 -6 14 -5 15 5 6 7 -7 10 -15 7 -18z
m4111 1 c10 -12 16 -12 41 2 23 14 31 14 44 3 20 -17 21 -51 1 -51 -9 0 -15 9
-15 21 0 14 -5 19 -17 17 -21 -4 -42 -61 -50 -135 -5 -49 -4 -53 15 -53 11 0
32 15 46 33 14 17 26 27 26 20 0 -6 -12 -25 -26 -42 -14 -17 -23 -35 -19 -41
10 -16 -27 0 -52 23 -18 16 -25 18 -38 7 -23 -19 -67 -4 -63 22 2 12 9 23 17
26 10 3 13 -2 9 -22 -7 -33 16 -35 36 -3 14 22 36 112 36 148 0 36 -31 35 -62
-1 -32 -39 -39 -26 -7 14 22 29 60 34 78 12z m1719 -106 l-1 -65 -7 70 c-3 39
-10 79 -14 90 -4 12 -1 10 8 -5 10 -16 15 -47 14 -90z m179 70 c-1 -22 -5 -40
-8 -40 -4 0 -12 -28 -18 -62 -14 -74 -30 -118 -43 -118 -5 0 -5 7 1 18 8 16
23 83 36 159 6 36 22 83 29 83 2 0 3 -18 3 -40z m53 30 c0 -5 -4 -10 -10 -10
-5 0 -10 5 -10 10 0 6 5 10 10 10 6 0 10 -4 10 -10z m-1490 -4 c0 -3 -4 -8
-10 -11 -5 -3 -10 -1 -10 4 0 6 5 11 10 11 6 0 10 -2 10 -4z m725 -26 c-1 -3
-8 -24 -14 -47 -7 -24 -15 -43 -20 -43 -4 0 -1 27 8 60 8 33 19 54 23 48 3 -7
5 -15 3 -18z m-698 -12 c-3 -7 -5 -2 -5 12 0 14 2 19 5 13 2 -7 2 -19 0 -25z
m772 -37 c-7 -28 -16 -48 -21 -43 -4 4 -1 27 8 50 8 24 11 49 8 55 -5 9 -4 9
6 0 10 -9 10 -21 -1 -62z m-443 -11 c-8 -25 -14 -36 -15 -25 -1 28 22 103 26
85 2 -8 -3 -35 -11 -60z m-4516 20 c6 -11 8 -20 6 -20 -3 0 -10 9 -16 20 -6
11 -8 20 -6 20 3 0 10 -9 16 -20z m-361 -30 c11 -24 11 -24 -3 -6 -9 11 -16
24 -16 30 0 12 5 7 19 -24z m5611 -49 c0 -5 9 -11 20 -14 11 -3 20 -10 20 -16
0 -7 -7 -7 -24 1 -25 11 -43 38 -26 38 6 0 10 -4 10 -9z m-2107 -41 c-3 -12
-8 -19 -11 -16 -5 6 5 36 12 36 2 0 2 -9 -1 -20z m2259 -12 c-8 -8 -9 -4 -5
13 4 13 8 18 11 10 2 -7 -1 -18 -6 -23z m282 5 c-11 -45 -23 -71 -23 -52 -2
30 11 79 20 79 5 0 6 -12 3 -27z m-5603 0 c13 -16 12 -17 -3 -4 -10 7 -18 15
-18 17 0 8 8 3 21 -13z m5149 7 c0 -5 -5 -10 -11 -10 -5 0 -7 5 -4 10 3 6 8
10 11 10 2 0 4 -4 4 -10z m-2568 -47 c-3 -16 -7 -22 -10 -15 -4 13 4 42 11 42
2 0 2 -12 -1 -27z m285 5 c-3 -8 -6 -5 -6 6 -1 11 2 17 5 13 3 -3 4 -12 1 -19z
m-2815 -32 c6 -14 1 -11 -16 8 -14 16 -26 31 -26 34 0 10 32 -22 42 -42z
m2579 13 c-5 -13 -10 -19 -10 -12 -1 15 10 45 15 40 3 -2 0 -15 -5 -28z m2679
27 c0 -2 -8 -10 -17 -17 -16 -13 -17 -12 -4 4 13 16 21 21 21 13z m110 -6 c0
-5 -5 -10 -11 -10 -5 0 -7 5 -4 10 3 6 8 10 11 10 2 0 4 -4 4 -10z m-2553 -57
c-3 -10 -5 -4 -5 12 0 17 2 24 5 18 2 -7 2 -21 0 -30z m518 -13 c-4 -17 -9
-29 -12 -26 -3 2 -2 19 2 36 4 17 9 29 12 26 3 -2 2 -19 -2 -36z m-3304 -7
c13 -16 12 -17 -3 -4 -10 7 -18 15 -18 17 0 8 8 3 21 -13z m3042 10 c-7 -2
-19 -2 -25 0 -7 3 -2 5 12 5 14 0 19 -2 13 -5z m-3012 -50 c13 -16 12 -17 -3
-4 -10 7 -18 15 -18 17 0 8 8 3 21 -13z m3256 -15 c-3 -8 -6 -5 -6 6 -1 11 2
17 5 13 3 -3 4 -12 1 -19z m-350 -10 c-3 -8 -6 -5 -6 6 -1 11 2 17 5 13 3 -3
4 -12 1 -19z m-3814 -63 c-3 -8 0 -15 7 -15 7 0 6 -6 -4 -16 -9 -8 -16 -27
-16 -41 0 -22 2 -24 15 -13 13 11 14 10 9 -4 -4 -9 -14 -16 -23 -14 -11 2 -16
15 -16 46 0 23 3 42 8 42 4 0 7 9 7 21 0 11 4 18 10 14 5 -3 7 -12 3 -20z
m585 -60 c-3 -3 -9 2 -12 12 -6 14 -5 15 5 6 7 -7 10 -15 7 -18z m472 -30 c19
-19 32 -35 29 -35 -3 0 -20 16 -39 35 -19 19 -32 35 -29 35 3 0 20 -16 39 -35z
m-794 -75 c18 0 34 -5 34 -11 0 -7 -12 -9 -35 -5 l-35 7 -2 -48 -2 -48 -3 48
c-4 44 -6 47 -33 47 -16 0 -32 5 -36 11 -4 7 5 10 27 7 34 -3 34 -3 39 47 l4
50 4 -52 3 -53 35 0z m107 58 c-4 -22 -3 -29 5 -24 7 4 12 2 12 -3 0 -6 -6
-11 -14 -11 -9 0 -16 -17 -21 -46 -8 -53 0 -67 22 -39 8 11 13 14 11 6 -7 -23
-36 -37 -49 -24 -8 8 -8 24 -1 57 8 39 7 48 -7 56 -15 9 -15 9 0 10 9 0 20 11
23 25 9 37 27 31 19 -7z m268 -15 c13 -16 12 -17 -3 -4 -17 13 -22 21 -14 21
2 0 10 -8 17 -17z m-618 -19 c43 -4 77 -11 77 -16 0 -10 -164 0 -195 13 -17 6
-15 8 11 8 17 1 65 -2 107 -5z m1201 -111 c9 -20 3 -16 -44 34 l-45 47 41 -34
c23 -19 45 -41 48 -47z m1263 35 c-3 -8 -6 -5 -6 6 -1 11 2 17 5 13 3 -3 4
-12 1 -19z m-2040 4 c8 -5 9 -13 3 -22 -6 -8 -10 -25 -10 -37 0 -13 -4 -23 -9
-23 -5 0 -7 19 -4 43 3 31 2 38 -6 27 -6 -8 -11 -10 -11 -4 0 22 17 29 37 16z
m-1207 -21 c0 -5 -9 -7 -20 -4 -11 3 -20 7 -20 9 0 2 9 4 20 4 11 0 20 -4 20
-9z m107 -17 c-3 -3 -12 -4 -19 -1 -8 3 -5 6 6 6 11 1 17 -2 13 -5z m50 -10
c-3 -3 -12 -4 -19 -1 -8 3 -5 6 6 6 11 1 17 -2 13 -5z m116 -21 c-7 -2 -19 -2
-25 0 -7 3 -2 5 12 5 14 0 19 -2 13 -5z"/>
<path d="M6330 3640 c0 -5 9 -10 20 -10 11 0 20 5 20 10 0 6 -9 10 -20 10 -11
0 -20 -4 -20 -10z"/>
<path d="M7531 3531 c-21 -13 -9 -28 18 -21 20 4 21 7 9 17 -8 7 -19 8 -27 4z"/>
<path d="M7537 3479 c-20 -12 -22 -33 -4 -46 17 -14 61 0 65 20 4 22 -21 22
-43 1 -9 -9 -19 -13 -23 -9 -4 3 2 13 12 21 23 17 18 27 -7 13z"/>
<path d="M7663 3480 c-13 -5 -23 -15 -23 -21 0 -8 4 -8 15 1 13 10 15 9 15 -9
0 -11 5 -21 10 -21 6 0 10 6 10 14 0 8 3 21 6 30 7 18 0 19 -33 6z"/>
<path d="M7710 3459 c0 -11 4 -18 10 -14 5 3 7 12 3 20 -7 21 -13 19 -13 -6z"/>
<path d="M7703 2743 c-7 -2 -13 -17 -13 -33 0 -36 31 -48 65 -26 30 20 31 28
7 49 -19 17 -36 20 -59 10z"/>
<path d="M7870 2715 c0 -25 4 -35 13 -32 6 2 12 16 12 32 0 16 -6 30 -12 33
-9 2 -13 -8 -13 -33z"/>
<path d="M7814 2729 c-3 -6 -1 -16 5 -22 8 -8 11 -5 11 11 0 24 -5 28 -16 11z"/>
<path d="M6136 3208 c7 -11 54 -10 54 1 0 5 -13 9 -30 9 -16 -1 -27 -5 -24
-10z"/>
<path d="M5316 3114 c-9 -23 -7 -36 4 -29 6 4 7 -1 3 -11 -4 -11 -2 -15 6 -13
7 3 12 8 12 12 -1 4 -1 18 -1 32 0 28 -15 34 -24 9z"/>
<path d="M5596 3114 c-5 -14 -4 -15 9 -4 17 14 19 20 6 20 -5 0 -12 -7 -15
-16z"/>
<path d="M5543 3093 c-7 -2 -13 -12 -13 -21 1 -15 3 -14 16 3 14 19 15 19 20
-3 9 -30 22 -28 16 3 -4 24 -14 29 -39 18z"/>
<path d="M5620 3090 c0 -5 4 -10 9 -10 6 0 13 5 16 10 3 6 -1 10 -9 10 -9 0
-16 -4 -16 -10z"/>
<path d="M5382 3068 c-7 -7 -12 -19 -12 -27 0 -11 5 -8 16 7 18 25 15 39 -4
20z"/>
<path d="M5806 3053 c-6 -14 -5 -15 5 -6 7 7 10 15 7 18 -3 3 -9 -2 -12 -12z"/>
<path d="M5395 3040 c3 -5 8 -10 11 -10 2 0 4 5 4 10 0 6 -5 10 -11 10 -5 0
-7 -4 -4 -10z"/>
<path d="M6066 3015 c-9 -26 -7 -32 5 -12 6 10 9 21 6 23 -2 3 -7 -2 -11 -11z"/>
<path d="M4007 3013 c-37 -4 -38 -5 -22 -23 9 -10 24 -16 34 -13 11 3 22 0 25
-6 4 -7 -1 -11 -13 -11 -12 0 -21 -4 -21 -8 0 -13 66 -103 71 -97 3 2 6 -5 6
-17 1 -12 9 -28 18 -37 13 -14 15 -13 15 11 0 15 -4 38 -10 52 -8 23 -7 26 10
26 19 0 26 -20 21 -60 -5 -43 -3 -108 3 -118 5 -8 -2 -12 -21 -12 -24 0 -38
-14 -96 -98 l-68 -97 43 -3 c55 -5 199 19 173 28 -15 5 -13 8 13 13 18 4 35 7
40 8 4 1 12 7 17 14 6 7 26 18 45 25 19 7 36 15 38 16 2 1 -4 14 -14 28 -9 15
-13 30 -9 34 4 4 10 1 12 -6 3 -7 14 -22 26 -33 18 -17 22 -17 30 -4 4 9 12
13 18 10 5 -3 6 1 3 10 -6 14 -8 14 -20 -2 -13 -16 -13 -16 -6 6 5 12 4 47 -2
77 -6 38 -6 69 3 106 12 55 36 97 47 85 4 -4 2 -12 -4 -19 -5 -7 -16 -42 -23
-77 -11 -57 -10 -64 4 -73 10 -5 17 -14 17 -21 0 -7 -4 -6 -10 3 -8 12 -10 9
-10 -11 0 -15 8 -37 19 -50 l18 -23 23 22 c13 12 35 22 48 22 l25 0 -21 19
c-40 34 -21 116 27 123 34 5 55 -15 46 -43 -5 -15 -4 -19 4 -15 6 4 11 14 11
21 0 8 11 22 25 31 21 14 31 15 50 6 14 -7 25 -16 25 -22 0 -5 5 -10 11 -10 8
0 8 4 0 14 -7 8 -8 17 -3 20 5 3 15 26 22 51 7 25 17 48 21 51 5 3 13 13 18
22 8 16 -5 17 -186 14 -186 -3 -195 -4 -200 -23 -5 -20 -6 -20 -23 -1 -16 17
-30 18 -140 14 -89 -3 -121 -1 -116 7 5 7 48 11 119 11 110 1 111 1 82 18 -30
16 -199 26 -288 15z m254 -203 c5 -8 9 -35 9 -60 0 -28 3 -40 9 -32 7 11 9 11
14 -2 5 -13 -1 -16 -30 -16 -29 0 -34 3 -25 12 13 13 16 66 6 92 -5 12 -10 13
-25 5 -22 -11 -27 -77 -7 -97 9 -9 7 -12 -13 -12 -23 0 -24 3 -21 45 2 25 -1
51 -7 59 -15 18 -8 22 39 21 24 -1 45 -7 51 -15z"/>
<path d="M6173 2976 c-1 -30 3 -46 13 -50 16 -6 19 10 4 19 -5 3 -10 12 -9 18
0 9 2 9 6 0 10 -26 20 -12 14 19 -10 47 -26 44 -28 -6z"/>
<path d="M6070 2975 c-11 -13 -10 -14 4 -9 9 3 16 10 16 15 0 13 -6 11 -20 -6z"/>
<path d="M4926 2964 c-9 -24 -7 -46 4 -39 6 3 10 -1 10 -10 0 -11 -5 -15 -14
-12 -10 4 -13 1 -9 -9 7 -19 33 -18 33 1 0 8 5 15 10 15 6 0 9 12 6 28 -2 15
-5 30 -5 35 -2 14 -29 7 -35 -9z"/>
<path d="M5002 2956 c-2 -27 44 -52 52 -29 4 9 13 13 23 9 15 -6 14 -4 -2 14
-16 17 -16 20 -2 20 9 0 19 -4 22 -10 3 -5 12 -10 18 -10 7 0 4 7 -7 15 -10 8
-37 14 -60 13 -35 0 -42 -4 -44 -22z m53 -16 c-3 -5 -13 -6 -21 -3 -12 4 -13
8 -3 14 15 9 32 2 24 -11z"/>
<path d="M5188 2973 c12 -2 32 -2 45 0 12 2 2 4 -23 4 -25 0 -35 -2 -22 -4z"/>
<path d="M4813 2963 c-25 -5 -29 -13 -14 -28 5 -6 11 -23 13 -39 4 -43 20 -41
45 4 19 36 20 42 6 55 -8 8 -17 14 -21 14 -4 -1 -17 -4 -29 -6z"/>
<path d="M6267 2936 c-4 -10 -5 -21 -2 -24 9 -9 17 6 13 25 -3 17 -4 17 -11
-1z"/>
<path d="M4779 2939 c-4 -25 -2 -76 3 -73 3 2 8 -2 11 -8 2 -7 4 6 3 29 -1 23
-4 45 -8 49 -5 4 -8 5 -9 3z"/>
<path d="M6172 2890 c0 -14 2 -19 5 -12 2 6 2 18 0 25 -3 6 -5 1 -5 -13z"/>
<path d="M6282 2865 c0 -16 2 -22 5 -12 2 9 2 23 0 30 -3 6 -5 -1 -5 -18z"/>
<path d="M6263 2825 c0 -22 2 -30 4 -17 2 12 2 30 0 40 -3 9 -5 -1 -4 -23z"/>
<path d="M6305 2830 c3 -5 8 -10 11 -10 2 0 4 5 4 10 0 6 -5 10 -11 10 -5 0
-7 -4 -4 -10z"/>
<path d="M4522 2808 c-15 -15 -16 -78 -1 -78 5 0 7 6 3 13 -5 8 -2 8 9 -2 12
-9 17 -10 17 -2 0 7 5 9 11 5 7 -4 10 -1 7 7 -3 8 -11 13 -17 11 -7 -1 -9 6
-5 22 6 27 -7 41 -24 24z"/>
<path d="M4628 2807 c0 -7 -2 -25 -2 -40 -1 -24 0 -26 10 -12 9 12 13 13 18 3
3 -7 4 0 1 15 -4 20 -2 27 6 21 7 -4 10 -2 7 6 -5 17 -37 22 -40 7z"/>
<path d="M6330 2779 c0 -5 5 -7 10 -4 6 3 10 8 10 11 0 2 -4 4 -10 4 -5 0 -10
-5 -10 -11z"/>
<path d="M6266 2715 c-3 -8 -1 -15 4 -15 6 0 10 7 10 15 0 8 -2 15 -4 15 -2 0
-6 -7 -10 -15z"/>
<path d="M5591 2647 c-13 -21 -12 -21 5 -5 10 10 16 20 13 22 -3 3 -11 -5 -18
-17z"/>
<path d="M3928 2393 c7 -3 16 -2 19 1 4 3 -2 6 -13 5 -11 0 -14 -3 -6 -6z"/>
<path d="M4291 3287 c-6 -8 -7 -18 -3 -22 4 -5 2 -5 -5 -1 -24 13 -23 -15 1
-39 33 -33 59 -34 50 -1 -3 14 -1 33 5 43 10 15 10 14 5 -8 -3 -15 -1 -30 5
-33 15 -10 14 47 -1 62 -16 16 -43 15 -57 -1z"/>
<path d="M4149 3288 c-8 -30 -4 -82 8 -94 14 -14 19 -12 44 12 30 29 28 39
-11 71 -13 11 -39 17 -41 11z m39 -43 c-3 -3 -9 2 -12 12 -6 14 -5 15 5 6 7
-7 10 -15 7 -18z"/>
<path d="M823 3195 c19 -19 54 -71 78 -115 42 -77 45 -80 74 -74 17 4 32 8 34
10 8 7 -99 132 -148 171 -63 52 -85 56 -38 8z"/>
<path d="M970 2991 c-12 -8 -10 -17 10 -61 16 -34 26 -46 32 -38 13 22 9 76
-8 92 -18 19 -15 18 -34 7z"/>
<path d="M1050 2930 c0 -12 -7 -34 -16 -51 -15 -30 -11 -69 7 -69 5 0 9 -12
10 -27 0 -16 8 -46 18 -68 17 -39 18 -39 30 -18 6 12 16 46 21 74 10 49 8 55
-25 115 -20 35 -38 64 -40 64 -3 0 -5 -9 -5 -20z"/>
<path d="M988 2815 c-24 -32 -23 -35 12 -35 33 0 35 5 17 37 l-12 21 -17 -23z"/>
<path d="M7225 2690 c-11 -18 3 -24 22 -9 16 13 17 12 4 -3 -15 -20 -41 -24
-41 -6 0 9 -3 9 -11 1 -6 -6 -12 -29 -12 -51 -1 -22 -6 -38 -10 -35 -5 3 -7
-5 -5 -18 2 -20 9 -24 38 -25 52 -2 89 15 105 47 16 31 20 85 7 93 -21 13 -90
18 -97 6z"/>
<path d="M2126 2679 c-9 -46 -8 -49 17 -49 31 0 47 18 47 52 0 24 -4 28 -29
28 -24 0 -29 -5 -35 -31z"/>
<path d="M821 2331 c-15 -27 -14 -104 1 -119 20 -20 47 -14 53 11 4 13 5 46 3
73 -3 42 -6 49 -25 52 -14 2 -26 -4 -32 -17z"/>
<path d="M4480 2240 c-11 -11 -20 -26 -20 -33 0 -18 42 -57 61 -57 38 0 54 64
23 94 -21 21 -40 20 -64 -4z"/>
<path d="M4330 2231 c-16 -30 -12 -56 11 -77 19 -17 23 -17 47 -3 35 19 39 45
11 75 -27 29 -55 31 -69 5z"/>
<path d="M3512 1641 c-5 -15 -6 -34 -2 -41 13 -21 40 7 40 41 0 38 -25 38 -38
0z"/>
<path d="M2437 1505 l-26 -45 30 0 c28 0 29 2 29 45 0 25 -2 45 -4 45 -2 0
-16 -20 -29 -45z"/>
<path d="M1400 1500 c-16 -29 -18 -132 -3 -137 19 -7 42 39 49 100 6 53 5 57
-14 57 -12 0 -26 -9 -32 -20z"/>
<path d="M3449 1363 c-11 -29 -6 -53 11 -53 11 0 30 41 30 66 0 24 -30 15 -41
-13z"/>
<path d="M5392 1407 c-19 -20 -42 -100 -42 -143 0 -9 12 -14 33 -14 27 0 36 6
46 27 19 43 26 120 11 138 -17 20 -23 19 -48 -8z"/>
<path d="M247 1383 c-4 -3 -7 -30 -7 -60 l0 -53 34 0 c22 0 36 6 40 16 10 27
7 71 -6 82 -19 14 -53 23 -61 15z"/>
<path d="M3562 1378 c-17 -23 -23 -56 -11 -64 15 -9 39 23 39 53 0 25 -12 30
-28 11z"/>
<path d="M4130 1130 c-33 -33 -24 -137 14 -162 17 -12 24 -10 46 12 30 30 29
133 -2 154 -29 20 -34 20 -58 -4z"/>
<path d="M1332 972 c-26 -17 -44 -134 -22 -147 18 -11 38 14 50 65 11 46 7 90
-8 90 -4 0 -13 -4 -20 -8z"/>
<path d="M5287 870 c-3 -8 -10 -34 -15 -58 -10 -42 -10 -43 11 -29 11 7 26 22
33 33 11 16 10 23 -6 44 -14 19 -20 21 -23 10z"/>
<path d="M5275 749 c-37 -44 -33 -59 15 -59 40 0 40 0 40 39 0 51 -21 59 -55
20z"/>
<path d="M5472 763 c-13 -5 -42 -54 -42 -73 0 -15 43 -12 68 6 12 8 22 24 22
34 0 21 -28 40 -48 33z"/>
<path d="M5240 641 c0 -44 16 -64 40 -51 16 9 47 67 39 74 -2 2 -21 6 -41 9
l-38 6 0 -38z"/>
<path d="M5420 616 c0 -43 29 -54 59 -22 34 36 28 56 -19 56 -39 0 -40 -1 -40
-34z"/>
<path d="M1444 935 c-17 -41 -19 -111 -3 -121 6 -3 17 0 25 7 16 17 36 112 28
134 -10 26 -34 16 -50 -20z"/>
<path d="M3270 821 c-16 -31 -13 -146 5 -161 32 -27 45 -5 45 78 0 93 -23 132
-50 83z"/>
<path d="M2660 3983 c0 -17 19 -35 29 -29 18 12 12 36 -9 36 -11 0 -20 -3 -20
-7z"/>
<path d="M3050 3970 c0 -11 4 -20 9 -20 5 0 11 9 14 20 3 13 0 20 -9 20 -8 0
-14 -9 -14 -20z"/>
<path d="M3478 3983 c12 -2 32 -2 45 0 12 2 2 4 -23 4 -25 0 -35 -2 -22 -4z"/>
<path d="M4240 3975 c-10 -11 -8 -19 7 -38 l18 -24 19 24 c10 13 15 27 12 30
-3 4 -6 2 -6 -3 0 -5 -9 -10 -21 -11 -16 -2 -20 3 -16 18 6 23 3 24 -13 4z"/>
<path d="M4480 3975 c-7 -9 -8 -15 -2 -15 5 0 12 7 16 15 3 8 4 15 2 15 -2 0
-9 -7 -16 -15z"/>
<path d="M4415 3953 l-17 -28 23 22 c12 12 20 25 17 28 -3 3 -13 -7 -23 -22z"/>
<path d="M4605 3970 c-19 -8 -19 -9 3 -9 12 -1 22 4 22 9 0 6 -1 10 -2 9 -2 0
-12 -4 -23 -9z"/>
<path d="M4520 3959 c0 -5 5 -7 10 -4 6 3 10 8 10 11 0 2 -4 4 -10 4 -5 0 -10
-5 -10 -11z"/>
<path d="M604 3900 c-30 -45 -27 -56 11 -46 21 5 25 12 25 46 0 22 -2 40 -5
40 -3 0 -17 -18 -31 -40z"/>
<path d="M4241 3920 c0 -8 4 -22 9 -30 12 -18 12 -2 0 25 -6 13 -9 15 -9 5z"/>
<path d="M1950 54 c-15 -38 -12 -54 10 -54 12 0 20 7 20 18 0 9 3 27 6 40 9
32 -24 29 -36 -4z"/>
<path d="M1490 10 c0 -5 5 -10 10 -10 6 0 10 5 10 10 0 6 -4 10 -10 10 -5 0
-10 -4 -10 -10z"/>
</g>
</svg>
