<?xml version="1.0" standalone="no"?>
<!DOCTYPE svg PUBLIC "-//W3C//DTD SVG 20010904//EN"
 "http://www.w3.org/TR/2001/REC-SVG-20010904/DTD/svg10.dtd">
<svg version="1.0" xmlns="http://www.w3.org/2000/svg"
 width="343.000000pt" height="147.000000pt" viewBox="0 0 343.000000 147.000000"
 preserveAspectRatio="xMidYMid meet">

<g transform="translate(0.000000,147.000000) scale(0.100000,-0.100000)"
fill="#000000" stroke="none">
<path d="M0 735 l0 -735 209 0 208 0 7 77 c3 42 6 120 6 175 l0 98 -29 0 c-16
0 -34 -7 -41 -15 -7 -8 -23 -15 -35 -15 -53 0 -57 66 -5 76 28 6 28 7 23 59
-4 33 -1 55 6 59 6 4 11 16 11 26 0 10 5 22 11 25 14 9 47 -22 52 -49 2 -11 5
25 6 82 l1 102 38 40 c20 22 45 40 55 40 10 0 15 -4 12 -10 -3 -5 -14 -10 -24
-10 -21 0 -43 -55 -35 -87 4 -13 13 -23 20 -23 8 0 17 -17 21 -43 10 -60 10
-70 -5 -75 -9 -3 -13 4 -12 19 4 47 0 80 -9 74 -5 -3 -9 -28 -8 -55 1 -28 -2
-52 -8 -54 -5 -3 1 -5 15 -5 14 -1 38 -8 54 -16 15 -8 39 -12 51 -9 13 3 31 1
41 -4 16 -9 16 -10 -2 -20 -18 -9 -122 -10 -154 -1 -13 3 -15 -27 -18 -229 -2
-225 -2 -232 17 -232 19 0 20 8 23 195 2 107 0 208 -3 224 -5 22 -3 28 7 24
11 -4 14 -49 14 -224 l0 -219 111 0 111 0 -4 215 c-1 118 0 215 5 215 4 0 7
-97 7 -215 l0 -215 44 0 c39 0 45 3 50 25 4 14 6 118 6 231 l-1 205 -34 -4
c-26 -4 -32 -1 -28 10 4 10 8 11 13 3 5 -8 11 -6 20 5 10 13 9 15 -6 15 -16 0
-16 3 6 20 19 15 21 20 9 20 -14 0 -16 13 -17 81 0 58 -4 84 -13 90 -10 6 -7
9 10 9 23 0 23 1 8 18 -10 10 -14 22 -10 25 3 4 -4 7 -16 7 -13 0 -20 -4 -15
-11 4 -7 -2 -9 -17 -7 -16 2 -24 10 -24 23 0 11 -4 30 -9 43 -7 22 -12 23 -91
20 l-84 -3 -4 55 c-3 30 -11 74 -18 97 -11 36 -10 59 9 175 12 74 22 160 22
191 0 32 7 73 14 92 l15 35 -295 0 -294 0 0 -735z m600 75 c0 -5 -4 -10 -10
-10 -5 0 -10 5 -10 10 0 6 5 10 10 10 6 0 10 -4 10 -10z m30 -46 c0 -2 -19 -4
-42 -3 -31 0 -37 3 -24 8 18 7 66 3 66 -5z m-360 -63 c17 -33 12 -61 -14 -72
-36 -17 -66 3 -66 45 0 40 5 46 41 46 18 0 32 -7 39 -19z m90 -31 c12 -7 12
-12 0 -34 -16 -31 -22 -32 -44 -7 -30 34 4 67 44 41z m249 -72 c-1 -57 -2 -59
-9 -25 -6 35 -3 87 6 87 2 0 3 -28 3 -62z m-415 -34 c12 -5 16 -21 16 -75 0
-61 3 -72 25 -91 33 -28 33 -58 1 -58 -13 0 -29 -7 -36 -15 -13 -16 -48 -20
-66 -7 -5 4 -18 18 -27 31 -14 21 -14 27 -1 52 7 15 14 53 14 83 0 72 25 99
74 80z m560 -80 c16 -6 12 -24 -5 -24 -6 0 -7 5 -4 10 9 15 -11 12 -27 -3 -8
-9 -21 -11 -33 -6 -18 7 -18 8 -2 8 10 1 15 6 12 11 -7 11 34 14 59 4z m-265
-86 c1 -5 -3 -8 -9 -8 -5 0 -10 12 -9 28 0 24 1 25 9 7 5 -11 9 -23 9 -27z
m221 -20 c0 -28 -3 -48 -7 -45 -8 9 -15 68 -8 84 9 26 15 12 15 -39z"/>
<path d="M593 1457 c-3 -5 -7 -46 -9 -90 -3 -45 -9 -116 -15 -157 -26 -182
-27 -211 -13 -238 8 -15 14 -37 14 -49 0 -22 4 -23 88 -24 48 -1 90 -1 95 0 4
0 7 -10 7 -23 0 -13 3 -32 7 -42 5 -13 3 -15 -8 -9 -8 5 -11 5 -6 -1 5 -5 12
-9 16 -9 3 0 17 -10 31 -22 13 -13 28 -23 32 -23 5 0 6 -5 3 -10 -8 -13 14
-42 26 -34 5 3 10 2 10 -3 4 -25 9 -261 9 -476 l0 -248 168 4 c92 3 172 5 177
6 6 0 30 -2 55 -5 36 -4 58 1 111 25 65 29 99 54 99 71 0 4 -37 -10 -81 -32
-45 -21 -84 -37 -87 -34 -8 8 -8 8 98 58 l95 45 34 92 c32 86 51 120 51 89 -1
-7 -14 -47 -30 -88 -17 -41 -30 -79 -30 -85 0 -5 48 -40 106 -77 134 -86 156
-88 204 -20 18 26 35 49 37 51 2 2 5 2 8 -1 3 -3 -8 -23 -25 -46 -16 -23 -30
-44 -30 -47 0 -3 358 -5 795 -5 l795 0 0 735 0 735 -1339 0 -1340 0 15 -35 c7
-19 14 -61 14 -95 0 -33 7 -123 16 -200 14 -123 14 -165 0 -149 -2 2 -6 29
-10 59 -4 30 -11 89 -16 130 -5 41 -9 112 -10 158 0 59 -5 90 -16 108 -15 23
-22 25 -81 23 -35 -1 -66 -6 -70 -12z m570 -12 c12 -5 12 -14 -3 -58 -9 -29
-23 -81 -30 -115 -17 -83 -27 -63 -32 61 -3 86 -1 97 14 97 9 0 20 5 23 10 7
12 9 12 28 5z m941 -46 c-3 -44 -14 -49 -14 -6 0 21 4 37 8 37 5 0 7 -14 6
-31z m-17 -111 c-2 -13 -4 -3 -4 22 0 25 2 35 4 23 2 -13 2 -33 0 -45z m509
-15 c-2 -10 -12 -44 -22 -76 -11 -35 -14 -61 -8 -66 5 -6 45 -30 89 -55 44
-25 74 -46 67 -46 -7 0 -48 20 -91 45 l-78 46 -104 -40 c-57 -22 -118 -45
-136 -52 -29 -12 -35 -10 -97 31 -37 23 -64 45 -62 48 3 2 34 -14 70 -37 61
-40 66 -42 93 -28 15 7 74 31 130 52 91 33 102 40 99 59 -3 11 -7 47 -10 79
l-6 57 36 0 c29 0 34 -3 30 -17z m-1451 -173 c21 -44 36 -82 33 -86 -4 -3 -24
29 -44 73 -21 43 -40 81 -42 86 -2 4 0 7 5 7 5 0 26 -36 48 -80z m890 54 c2
-10 6 -28 9 -39 4 -11 -2 -4 -13 15 -23 40 -26 53 -9 48 6 -2 12 -13 13 -24z
m55 -13 c1 10 4 8 11 -4 18 -31 0 -32 -29 -2 -17 19 -19 23 -4 11 17 -15 22
-16 22 -5z m-1505 -46 c-4 -25 -9 -44 -12 -41 -2 2 -1 25 2 51 4 25 9 44 12
41 2 -2 1 -25 -2 -51z m1435 1 c0 -6 -7 -1 -15 10 -8 10 -15 23 -15 28 0 6 7
1 15 -10 8 -10 15 -23 15 -28z m-58 -13 c3 -13 4 -23 2 -23 -4 0 -34 56 -34
65 0 14 27 -22 32 -42z m-1338 -10 c-10 -40 -14 -41 -14 -5 0 18 5 32 10 32 6
0 8 -11 4 -27z m2306 -65 c20 -42 20 -42 1 -18 -19 23 -34 60 -25 60 2 0 13
-19 24 -42z m-42 -2 c13 5 14 4 3 -4 -8 -6 -11 -17 -8 -26 11 -27 -2 -18 -18
14 -17 32 -20 55 -4 28 5 -10 17 -15 27 -12z m-1152 -31 c14 -56 -49 -74 -74
-21 -13 25 -12 30 4 45 16 15 17 15 6 0 -17 -22 4 -69 30 -69 29 0 33 28 8 62
-21 29 -21 29 -1 19 11 -7 24 -23 27 -36z m1088 36 c3 -4 -6 -6 -19 -3 -28 5
-33 -14 -15 -49 13 -23 47 -25 53 -4 4 11 4 10 3 -2 -2 -24 -33 -28 -57 -7
-19 17 -26 54 -12 67 9 10 41 9 47 -2z m-474 -285 c28 -10 50 -22 50 -26 0 -5
-31 3 -70 17 l-69 26 -96 -43 c-53 -23 -99 -39 -102 -36 -5 5 67 41 135 67 12
5 22 15 22 24 0 19 5 21 -91 -20 -45 -20 -84 -33 -87 -30 -7 7 -8 7 98 52 l95
40 27 99 c14 54 28 101 29 104 2 3 5 -54 6 -126 l4 -130 49 -18z m-1104 228
c19 -46 12 -53 -28 -24 -33 25 -33 25 -14 -35 4 -11 -3 -1 -15 22 -27 51 -20
63 17 34 32 -25 38 -23 25 13 -16 40 -2 31 15 -10z m-475 -31 c-8 -15 -10 -15
-11 -2 0 17 10 32 18 25 2 -3 -1 -13 -7 -23z m815 9 c-2 -4 -43 -25 -90 -47
-47 -22 -86 -43 -86 -47 0 -18 45 -6 120 32 44 22 80 37 80 32 0 -4 -35 -25
-79 -46 l-79 -39 -27 -123 c-16 -68 -27 -125 -24 -127 2 -2 34 -22 71 -46 37
-24 66 -47 63 -51 -3 -5 -36 11 -73 36 -37 24 -71 44 -75 44 -5 0 -62 -28
-128 -62 -118 -61 -120 -62 -115 -92 3 -17 8 -55 12 -83 l7 -53 -44 1 -44 2
40 7 40 7 -40 3 -40 3 35 7 35 7 -30 3 -30 2 30 8 c29 7 29 8 5 10 -22 2 -22
3 -5 8 l20 5 -20 8 -20 8 20 0 c14 1 16 4 7 10 -10 6 -11 13 -1 34 7 15 10 28
8 30 -55 35 -119 81 -119 84 0 4 37 -17 97 -55 21 -13 32 -9 145 51 l123 65 3
134 3 135 -42 29 c-23 15 -36 30 -30 32 6 2 26 -8 44 -22 l34 -26 94 45 c94
45 115 52 105 37z m-486 -84 c-71 -64 -84 -71 -35 -20 27 28 54 52 60 52 5 0
-6 -14 -25 -32z m905 -170 c12 -30 12 -35 -6 -53 -23 -23 -45 -14 -69 28 -12
21 -12 28 -1 41 23 28 60 20 76 -16z m533 -23 c12 -24 17 -47 12 -50 -5 -3
-25 9 -44 26 -40 34 -43 32 -21 -11 9 -17 12 -30 8 -30 -7 0 -43 71 -43 85 0
13 23 2 56 -27 l37 -32 -22 42 c-12 23 -18 42 -13 42 4 0 18 -20 30 -45z m312
-86 c28 -55 49 -103 47 -106 -5 -4 -88 142 -103 181 -7 17 -15 18 -106 12 -63
-4 -98 -3 -98 4 0 6 41 10 104 10 l104 0 52 -101z m-404 -100 c-9 -29 -16 -56
-16 -59 0 -4 52 -31 115 -60 l114 -53 108 70 c134 86 133 85 133 78 0 -7 -227
-155 -239 -155 -5 0 -62 23 -126 50 -64 28 -118 50 -120 50 -2 0 -29 -41 -60
-90 l-57 -91 36 -76 c20 -41 35 -78 32 -80 -3 -3 -20 24 -38 61 -26 53 -37 66
-55 66 -13 0 -23 -2 -23 -5 0 -3 16 -37 36 -76 19 -39 33 -73 30 -76 -6 -6
-64 94 -72 124 -5 19 -15 23 -85 29 -43 3 -79 11 -79 16 0 5 12 7 28 4 25 -5
104 -9 127 -7 6 1 3 5 -5 11 -11 7 7 30 87 107 84 82 102 104 108 137 8 48 24
90 31 83 3 -3 -2 -29 -10 -58z m-688 6 c12 -25 18 -45 13 -45 -6 0 -13 9 -16
20 -5 16 -10 18 -26 10 -14 -8 -18 -17 -13 -35 10 -40 -3 -29 -26 22 -20 47
-21 72 0 34 9 -17 14 -19 31 -11 15 9 17 15 9 30 -6 11 -7 20 -2 20 4 0 18
-20 30 -45z m-92 -42 c12 -27 17 -50 12 -51 -5 -2 -25 8 -44 23 l-36 27 17
-32 c9 -17 14 -34 11 -38 -7 -7 -7 -6 -29 41 -21 47 -13 66 17 39 40 -36 49
-37 32 -4 -18 35 -19 42 -8 42 4 0 17 -21 28 -47z m1307 2 c-3 -9 -8 -14 -10
-11 -3 3 -2 9 2 15 9 16 15 13 8 -4z m18 -12 c-12 -20 -14 -14 -5 12 4 9 9 14
11 11 3 -2 0 -13 -6 -23z m20 -6 c-10 -9 -11 -8 -5 6 3 10 9 15 12 12 3 -3 0
-11 -7 -18z m32 8 c-3 -9 -8 -14 -10 -11 -3 3 -2 9 2 15 9 16 15 13 8 -4z
m-1110 -135 c-3 -3 -7 0 -10 5 -10 27 -21 35 -37 29 -14 -5 -17 -14 -12 -35 3
-16 3 -29 0 -29 -8 0 -45 92 -39 98 3 3 5 1 5 -4 0 -5 4 -15 9 -23 14 -22 50
3 45 31 -3 13 6 3 20 -22 13 -25 22 -47 19 -50z m-782 -97 c7 -20 6 -30 -7
-44 -10 -11 -22 -19 -28 -19 -6 0 -3 5 7 11 19 11 22 41 6 71 -8 15 -8 19 1
13 6 -4 16 -18 21 -32z m834 -3 c10 -22 15 -43 12 -46 -4 -4 -22 5 -42 20 -39
30 -42 28 -19 -15 8 -17 13 -33 10 -36 -5 -5 -29 39 -40 75 -10 30 14 29 44
-3 30 -32 36 -26 15 14 -8 17 -12 31 -7 31 5 0 17 -18 27 -40z"/>
<path d="M1940 676 c0 -30 25 -57 45 -50 30 12 8 74 -25 74 -14 0 -20 -7 -20
-24z"/>
<path d="M618 853 c7 -3 16 -2 19 1 4 3 -2 6 -13 5 -11 0 -14 -3 -6 -6z"/>
<path d="M650 850 c0 -13 30 -13 50 0 11 7 7 10 -17 10 -18 0 -33 -4 -33 -10z"/>
<path d="M497 480 c13 -13 56 -23 49 -12 -3 5 -17 12 -32 15 -14 2 -22 1 -17
-3z"/>
<path d="M585 470 c-3 -5 3 -10 14 -10 12 0 21 5 21 10 0 6 -6 10 -14 10 -8 0
-18 -4 -21 -10z"/>
<path d="M1442 34 l-67 -33 160 1 c88 0 153 2 145 5 -8 3 -50 18 -93 33 l-78
27 -67 -33z"/>
</g>
</svg>
